<?xml version="1.0" encoding="UTF-8"?><svg xmlns="http://www.w3.org/2000/svg" width="813" height="1185" viewBox="0 0 813 1185" data-yugilife-text-mode="paths" style="-webkit-font-smoothing: antialiased; -moz-osx-font-smoothing: grayscale"><title>typeLine</title><g><path d="M409 -110L97 -110L97 818L409 818L409 775L356 775Q286 775 263 764Q240 753 240 719L240 -12Q240 -52 279 -62Q296 -67 356 -67L409 -67Z" fill="rgb(17, 17, 17)" transform="translate(63.5 918) scale(0.031 -0.031)"></path><path d="M813 358Q813 171 685 77Q581 0 389 0L32 0L32 38Q93 44 100 48Q122 59 122 107L122 593Q122 637 108 648Q94 659 32 663L32 700L440 700Q600 700 703 612Q813 518 813 358ZM602 362Q602 497 543 575Q478 660 351 660L333 660L333 144Q333 72 339.5 56Q346 40 376 40Q492 40 553 147Q602 235 602 362Z" fill="rgb(17, 17, 17)" transform="translate(78.75 918) scale(0.031 -0.031)"></path><path d="M656 0L492 0Q465 0 437 46L311 252L275 252L275 88Q275 48 291 39Q298 35 349 31L349 1L26 1L26 31Q78 35 89.5 43.5Q101 52 101 88L101 489Q101 526 89.5 535Q78 544 26 547L26 578L397 578Q485 578 536 537.5Q587 497 587 429Q587 315 455 273L587 102Q606 78 656 21ZM404 422Q404 483 384.5 509.5Q365 536 323 536L275 536L275 292L314 292Q387 292 401 373Q404 394 404 422Z" fill="rgb(17, 17, 17)" transform="translate(105 918) scale(0.031 -0.031)"></path><path d="M676 0L385 0L385 31Q425 34 425 66Q425 75 419 90L387 172L201 172L174 94Q169 77 169 64Q169 34 208 31L208 0L31 0L31 31Q76 35 101 67Q126 99 167 204L319 587L386 587L524 254Q585 108 606 76Q631 38 676 31ZM370 219L296 417L218 219Z" fill="rgb(17, 17, 17)" transform="translate(126.25 918) scale(0.031 -0.031)"></path><path d="M653 249Q604 246 591.5 237.5Q579 229 579 193L579 29Q450 -10 348 -10Q209 -10 123 66Q31 146 31 288Q31 436 129 515Q219 587 370 587Q469 587 535 555Q554 545 554 526L554 421L529 421Q493 488 469 512Q427 550 375 550Q302 550 256 479Q210 408 210 296Q210 209 238 133Q274 28 346 28Q426 28 426 139L426 195Q426 233 410 240Q392 248 324 249L324 281L653 281Z" fill="rgb(17, 17, 17)" transform="translate(147.5 918) scale(0.031 -0.031)"></path><path d="M643 297Q643 167 549 78.5Q455 -10 324 -10Q199 -10 115 73Q31 156 31 281Q31 414 125 502Q217 587 351 587Q476 587 559.5 504.5Q643 422 643 297ZM464 274Q464 396 425.5 473Q387 550 327 550Q210 550 210 314Q210 219 234 142Q270 28 345 28Q402 28 433 91.5Q464 155 464 274Z" fill="rgb(17, 17, 17)" transform="translate(169.75 918) scale(0.031 -0.031)"></path><path d="M639 547Q615 546 605 543Q585 538 579 523Q573 508 573 441L573 0L453 0L148 413L148 137Q148 61 157 50Q169 35 245 31L245 0L27 0L27 31Q79 35 89 49.5Q99 64 99 137L99 464Q74 516 30 537Q12 545 -12 547L-12 578L237 578L524 189L524 441Q524 518 511.5 531.5Q499 545 426 547L426 578L639 578Z" fill="rgb(17, 17, 17)" transform="translate(191 918) scale(0.031 -0.031)"></path><path d="M600 775L192 -68L99 -68L508 775Z" fill="rgb(17, 17, 17)" transform="translate(212.25 918) scale(0.031 -0.031)"></path><path d="M792 0L425 0L425 38Q486 42 486 63Q486 79 465 109L342 287L219 125Q185 80 185 60Q185 41 223 38L223 0L24 0L24 38Q65 40 95.5 65Q126 90 191 175L311 331L123 606Q100 640 83 651Q66 662 30 663L30 700L377 700L377 663Q326 660 326 636Q326 621 343 597L437 466L537 595Q555 618 555 636Q555 661 518 663L518 700L717 700L717 663Q652 663 624 627L468 423L678 124Q719 66 736 53Q753 40 792 38Z" fill="rgb(17, 17, 17)" transform="translate(234.5 918) scale(0.031 -0.031)"></path><path d="M632 547Q609 547 595.5 538.5Q582 530 569 506L438 266Q413 219 413 185L413 88Q413 52 424.5 43.5Q436 35 488 31L488 0L165 0L165 31Q216 35 227 43.5Q238 52 238 88L238 214L107 482Q90 517 68 531.5Q46 546 10 547L10 578L314 578L314 547Q260 545 260 522Q260 510 274 482L381 263L497 477Q508 497 508 511Q508 544 444 547L444 578L632 578Z" fill="rgb(17, 17, 17)" transform="translate(259.75 918) scale(0.031 -0.031)"></path><path d="M544 0L50 0L21 47L346 536L189 536Q144 536 121.5 514.5Q99 493 90 449L64 449L64 578L528 578L528 530L204 41L413 41Q469 41 491 68Q508 87 518 145L544 145Z" fill="rgb(17, 17, 17)" transform="translate(280 918) scale(0.031 -0.031)"></path><path d="M600 775L192 -68L99 -68L508 775Z" fill="rgb(17, 17, 17)" transform="translate(298.25 918) scale(0.031 -0.031)"></path><path d="M711 516Q711 434 657.5 379Q604 324 506 307Q466 300 376 300L376 332Q484 358 484 494Q484 650 379 650L334 650L334 107Q334 63 347.5 52.5Q361 42 423 38L423 0L32 0L32 38Q95 42 109 52.5Q123 63 123 107L123 593Q123 636 108.5 647Q94 658 32 662L32 700L490 700Q591 700 651 650Q711 600 711 516Z" fill="rgb(17, 17, 17)" transform="translate(320.5 918) scale(0.031 -0.031)"></path><path d="M544 150L519 0L26 0L26 31Q78 35 89.5 43.5Q101 52 101 88L101 489Q101 526 89.5 535Q78 544 26 547L26 578L491 578L491 445L466 445Q449 495 426 515.5Q403 536 366 536L275 536L275 322L341 322Q410 322 413 408L437 408L437 191L413 191Q408 280 341 280L275 280L275 99Q275 64 290 50.5Q305 37 345 37Q404 37 443.5 63Q483 89 518 150Z" fill="rgb(17, 17, 17)" transform="translate(342.75 918) scale(0.031 -0.031)"></path><path d="M639 547Q615 546 605 543Q585 538 579 523Q573 508 573 441L573 0L453 0L148 413L148 137Q148 61 157 50Q169 35 245 31L245 0L27 0L27 31Q79 35 89 49.5Q99 64 99 137L99 464Q74 516 30 537Q12 545 -12 547L-12 578L237 578L524 189L524 441Q524 518 511.5 531.5Q499 545 426 547L426 578L639 578Z" fill="rgb(17, 17, 17)" transform="translate(361 918) scale(0.031 -0.031)"></path><path d="M671 295Q671 141 565 64Q479 0 321 0L26 0L26 31Q77 36 83 40Q101 49 101 88L101 489Q101 526 89.5 535Q78 544 26 547L26 578L363 578Q495 578 580 505Q671 427 671 295ZM497 299Q497 410 448 474Q394 545 290 545L275 545L275 119Q275 59 280 46Q285 33 310 33Q406 33 456 121Q497 194 497 299Z" fill="rgb(17, 17, 17)" transform="translate(382.25 918) scale(0.031 -0.031)"></path><path d="M637 547Q586 545 576.5 530Q567 515 567 441L567 203Q567 98 506.5 43.5Q446 -11 338 -11Q97 -11 97 220L97 489Q97 526 85 535Q73 544 22 547L22 578L346 578L346 547Q295 545 286 539Q271 530 271 489L271 198Q271 130 297 97Q325 61 393 61Q465 61 495 107Q518 144 518 219L518 441Q518 516 508.5 530Q499 544 446 547L446 578L637 578Z" fill="rgb(17, 17, 17)" transform="translate(404.5 918) scale(0.031 -0.031)"></path><path d="M544 150L520 0L26 0L26 31Q78 35 89.5 43.5Q101 52 101 88L101 489Q101 526 89.5 535Q78 544 26 547L26 578L349 578L349 547Q298 544 286.5 535Q275 526 275 489L275 102Q275 66 290 51.5Q305 37 343 37Q404 37 443.5 62.5Q483 88 519 150Z" fill="rgb(17, 17, 17)" transform="translate(425.75 918) scale(0.031 -0.031)"></path><path d="M637 547Q586 545 576.5 530Q567 515 567 441L567 203Q567 98 506.5 43.5Q446 -11 338 -11Q97 -11 97 220L97 489Q97 526 85 535Q73 544 22 547L22 578L346 578L346 547Q295 545 286 539Q271 530 271 489L271 198Q271 130 297 97Q325 61 393 61Q465 61 495 107Q518 144 518 219L518 441Q518 516 508.5 530Q499 544 446 547L446 578L637 578Z" fill="rgb(17, 17, 17)" transform="translate(444 918) scale(0.031 -0.031)"></path><path d="M807 547Q763 545 747 532Q728 516 728 471L728 88Q728 52 739.5 43.5Q751 35 803 31L803 0L479 0L479 31Q531 35 542.5 43.5Q554 52 554 88L554 394L351 0L329 0L141 395L141 137Q141 64 151.5 49.5Q162 35 215 31L215 0L22 0L22 31Q75 35 84.5 48.5Q94 62 94 137L94 464Q76 504 50 527Q31 544 0 547L0 578L223 578L405 197L601 578L807 578Z" fill="rgb(17, 17, 17)" transform="translate(465.25 918) scale(0.031 -0.031)"></path><path d="M600 775L192 -68L99 -68L508 775Z" fill="rgb(17, 17, 17)" transform="translate(491.5 918) scale(0.031 -0.031)"></path><path d="M659 182L629 0L32 0L32 38Q95 42 108.5 52.5Q122 63 122 107L122 593Q122 637 108 648Q94 659 32 663L32 700L595 700L595 539L565 539Q544 600 516.5 625Q489 650 444 650L333 650L333 390L413 390Q497 390 500 495L530 495L530 231L500 231Q495 339 413 339L333 339L333 120Q333 77 351.5 61Q370 45 418 45Q490 45 538 76.5Q586 108 628 182Z" fill="rgb(17, 17, 17)" transform="translate(513.75 918) scale(0.031 -0.031)"></path><path d="M491 445L466 445Q449 496 426 516Q403 536 364 536L275 536L275 304L352 304Q420 304 425 392L450 392L450 175L425 175Q420 262 352 262L275 262L275 88Q275 52 286 43.5Q297 35 349 31L349 0L26 0L26 31Q78 35 89.5 43.5Q101 52 101 88L101 489Q101 526 89.5 535Q78 544 26 547L26 578L491 578Z" fill="rgb(17, 17, 17)" transform="translate(535 918) scale(0.031 -0.031)"></path><path d="M491 445L466 445Q449 496 426 516Q403 536 364 536L275 536L275 304L352 304Q420 304 425 392L450 392L450 175L425 175Q420 262 352 262L275 262L275 88Q275 52 286 43.5Q297 35 349 31L349 0L26 0L26 31Q78 35 89.5 43.5Q101 52 101 88L101 489Q101 526 89.5 535Q78 544 26 547L26 578L491 578Z" fill="rgb(17, 17, 17)" transform="translate(551.25 918) scale(0.031 -0.031)"></path><path d="M544 150L519 0L26 0L26 31Q78 35 89.5 43.5Q101 52 101 88L101 489Q101 526 89.5 535Q78 544 26 547L26 578L491 578L491 445L466 445Q449 495 426 515.5Q403 536 366 536L275 536L275 322L341 322Q410 322 413 408L437 408L437 191L413 191Q408 280 341 280L275 280L275 99Q275 64 290 50.5Q305 37 345 37Q404 37 443.5 63Q483 89 518 150Z" fill="rgb(17, 17, 17)" transform="translate(567.5 918) scale(0.031 -0.031)"></path><path d="M577 167L556 54Q554 39 535 31Q440 -10 344 -10Q208 -10 134 53Q31 139 31 288Q31 442 145 530Q219 587 368 587Q455 587 527 556Q552 545 552 527L552 420L526 420Q466 550 374 550Q299 550 254.5 479Q210 408 210 288Q210 171 250 98Q267 67 298.5 47.5Q330 28 364 28Q443 28 502 97Q529 127 552 167Z" fill="rgb(17, 17, 17)" transform="translate(585.75 918) scale(0.031 -0.031)"></path><path d="M604 451L578 451Q546 495 533 507Q503 536 455 536L393 536L393 88Q393 52 404 43.5Q415 35 467 31L467 0L144 0L144 31Q196 35 207.5 43.5Q219 52 219 88L219 536L158 536Q106 536 72 501Q63 492 33 451L7 451L31 578L581 578Z" fill="rgb(17, 17, 17)" transform="translate(605 918) scale(0.031 -0.031)"></path><path d="M356 -110L44 -110L44 -67L98 -67Q158 -67 175 -62Q214 -52 214 -12L214 719Q214 753 191 764Q168 775 98 775L44 775L44 818L356 818Z" fill="rgb(17, 17, 17)" transform="translate(624.25 918) scale(0.031 -0.031)"></path></g></svg>