<svg height="512" viewBox="0 0 510 510" width="512" xmlns="http://www.w3.org/2000/svg" xmlns:xlink="http://www.w3.org/1999/xlink"><linearGradient id="e" gradientUnits="userSpaceOnUse" x1="33" x2="471.9" y1="207.5" y2="207.5"><stop offset="0" stop-color="#cdbfba"/><stop offset="1" stop-color="#766e6e"/></linearGradient><linearGradient id="a"><stop offset="0" stop-color="#9e9797"/><stop offset="1" stop-color="#5b5555"/></linearGradient><linearGradient id="f" gradientUnits="userSpaceOnUse" x1="272" x2="499.4" xlink:href="#a" y1="207.5" y2="207.5"/><linearGradient id="b"><stop offset="0" stop-color="#f2fbff"/><stop offset=".6" stop-color="#faf7f7"/><stop offset="1" stop-color="#f3eae6"/></linearGradient><linearGradient id="g" gradientUnits="userSpaceOnUse" x1="80.2" x2="425.8" xlink:href="#b" y1="311.2" y2="311.2"/><linearGradient id="c"><stop offset="0" stop-color="#f3eae6"/><stop offset="1" stop-color="#cdbfba"/></linearGradient><linearGradient id="h" gradientUnits="userSpaceOnUse" x1="359.2" x2="429.9" xlink:href="#c" y1="311.2" y2="311.2"/><linearGradient id="i" gradientUnits="userSpaceOnUse" x1="429" x2="466.6" xlink:href="#a" y1="409.2" y2="409.2"/><linearGradient id="j" gradientUnits="userSpaceOnUse" x1="154" x2="382.3" xlink:href="#a" y1="80.9" y2="80.9"/><linearGradient id="k" gradientUnits="userSpaceOnUse" x1="104.5" x2="311.9" xlink:href="#b" y1="83.4" y2="83.4"/><linearGradient id="l" gradientUnits="userSpaceOnUse" x1="243.3" x2="314" xlink:href="#c" y1="83.4" y2="83.4"/><linearGradient id="m" gradientUnits="userSpaceOnUse" x1="291.3" x2="344.5" xlink:href="#a" y1="9.6" y2="9.6"/><linearGradient id="n" gradientUnits="userSpaceOnUse" x1="114" x2="409.4" y1="358.7" y2="358.7"><stop offset="0" stop-color="#fe99a0"/><stop offset=".6" stop-color="#fe646f"/><stop offset="1" stop-color="#e41f2d"/></linearGradient><linearGradient id="d"><stop offset="0" stop-color="#fe646f"/><stop offset=".7" stop-color="#e41f2d"/><stop offset="1" stop-color="#c41926"/></linearGradient><linearGradient id="o" gradientUnits="userSpaceOnUse" x1="266.1" x2="377.2" xlink:href="#d" y1="274.7" y2="274.7"/><linearGradient id="p" gradientUnits="userSpaceOnUse" x1="266.1" x2="377.2" xlink:href="#d" y1="425.9" y2="425.9"/><path d="M360 0H64C46 0 32 14 32 32v351c0 18 14 32 32 32h382c18 0 32-14 32-32V118c0-12-4-23-13-32l-73-73c-8-8-20-13-32-13z" fill="url(#e)"/><path d="M465 86l-73-73c-8-8-20-13-32-13h-40c12 0 24 5 32 13l73 73c9 9 13 20 13 32v265c0 18-14 32-32 32h40c18 0 32-14 32-32V118c0-12-4-23-13-32z" fill="url(#f)"/><path d="M399 207h-84l-58 7-62-7h-84c-18 0-32 15-32 32v176h352V239c0-17-14-32-32-32z" fill="url(#g)"/><path d="M399 207h-40c18 0 32 15 32 32v176h40V239c0-17-14-32-32-32z" fill="url(#h)"/><path d="M406 415h25v-12c-6 7-15 12-25 12z" fill="url(#i)"/><path d="M112 162h214c18 0 32-15 32-32V0H80v130c0 17 14 32 32 32z" fill="url(#j)"/><path d="M104 0v135c0 17 14 32 32 32h147c18 0 32-15 32-32V0zm175 119c0 9-7 15-15 15h-19c-8 0-15-6-15-15V47c0-8 7-15 15-15h19c8 0 15 7 15 15z" fill="url(#k)"/><path d="M275 0v37c2 3 4 7 4 10v72c0 4-2 8-4 10v6c0 17-14 32-32 32h40c18 0 32-15 32-32V0z" fill="url(#l)"/><path d="M358 19V0h-38c12 0 24 5 32 13z" fill="url(#m)"/><path d="M367 342h-52V207H195v135h-52c-20 0-31 24-18 39l96 113c18 21 50 21 68 0l96-113c13-15 2-39-18-39z" fill="url(#n)"/><g><path d="M275 207h40v135h-40z" fill="url(#o)"/><path d="M367 342h-40c20 0 31 24 18 39l-96 113c-4 5-9 9-14 11 18 9 40 5 54-11l96-113c13-15 2-39-18-39z" fill="url(#p)"/></g></svg>