<svg xmlns="http://www.w3.org/2000/svg" viewBox="0 -276.4 1920 674"><path d="M1889.9 283.9l-34.7-.1-68.9 65.5-36-51.6-20.1 12.5-61.6-83-17.2 13.1-20.3-26.9-43.2 49.4-12.4-2.1-3.2 4.1-15.2-9.1-16.8 10.9 8.3 6-15.6 10.5 16 10.6-21.5 26.8-11.1-5.9-19.6 23-35-35.7h-27.1l-42.8-50.7-.1-18.6 4-17.2 5.2.5 21.6-14-17.1-11.3 4.4-2.9-17.5-11.4-17 11.6 4.7 2.5-19.4 12.8 22.4 14.8 5.3-3.9 2 2.2c-1.9 3.8-8.8 15.8-8.8 15.8l-.5 7.4-38.1-44.2-11 6-20.5-23.2-7.9 2.1-.4-54.7-5.1-9-4.5 8.8.1 9.7h-4.4l-.4-6.9-7-.8v-25.7l-2.9-11.2-2.5-1.8-3.6 7.6v9.8h-8.3V79.3s-1-6.6-8.3-19.1l-.4-.9c-1-4.4-2.4-8.9-2.9-13.4-1-8.9 2-18.2-2.3-27 15.2 7.9 17.2 23.9 23.7 37.3-1.8-5.9-3.1-13.1-7-21.3.3-.1 2.3 3.5 2.5 3.4l8.5 14.4c.2-2.2-.4-3.9-1.3-5.4-6.2-9.5-12.1-19.2-18.9-28.2-3.5-4.6-8.8-7.9-13.3-11.7-1.1-.9-2.7-1.6-3.3-2.8-2.7-5.2-3.3-5.5-8.3-3.4 1.3.9 4.1 2 4.2 3.2.3 6.3 3.4 10.5 8.6 13-1.6 11-6.2 21.4-.6 32.1.4.8.4 3-.7 3.5-2.6 1.2-3.3 4.4-4.7 6.8-7.5 12.6-9.8 19.5-9.8 19.5v26.3h-7.4V98l-1.7-4.6-4 4.1-4.2 2.1.2 35.1H1202l-.3-10.1-4.5-8.1-5 8.2v61.7l-36.4 38.9-20.7-7.7-11.2 23.5-5.3 7-26 20.7-7.5-5.1 5.9-4.8-20.7-13.8 5-3.9-20.7-13.3-20.6 13.3 4.8 3.9-19.5 12.9 3.8 3.5-15.9 10.6 9.2 6.3-8.6 6 25.8 16.6s9.3 7.6 13.4 11.7c2.6 2.6.2 6.1-3.5 6.8-2.3.4-4.6.8-6.9 1a507.2 507.2 0 01-80.8 3.2c-24-1-47.8-3.7-71.3-8.5-1.7-.3-3.7-1.2-4.6-2.4a633.8 633.8 0 01-12.5-19.1l16-10.7-16.6-11.1 4.3-2.8-17.3-11.7-16.8 11-26.5-37.7 7.2-14.8-7-19.7 14.7-8.8.1-8.4 21.5-14-10.6-7.3 2.5-2.8-21.5-14.2 4.2-3.6-17.5-10.8-16.9 10.9 5.1 4.1-20.7 13.7 5.1 4.2-11.9 8 23.1 15.1 4.6-2.2s7.4 18 11.7 26.6c2.5 5 .6 7.5-3.4 9.9l-5.4-7.4-20.1 12.4-38.5-51.9 10.5-7.2-14.4-9.7 9.6-6.7-18-11.7-4.6 3.7-1.7.1v-27.7l-9.3-7.1v11.1h-8.8V87.2l-12.2-23.6-5.3 3.2-4.3 5.5-6.1 3.5-5.7 12.1-.1 26.5h-8.1l-.1-9.4-4.6-9-4.7 9.2-.1 37-5.8 5.1 4.8 9.7-14.8 17-12.6-1.4-38.4 40.1-11.1-5.9-6.5 7.4-1.5-.7 9.7-39.3 4.9 3.9 33.3-21.3-8.7-5.9 13.4-9-16.8-11 7.5-5.6-24.8-16.4 5.9-4.6-24.9-15.7-24 15.7 5.8 4.6-23.3 15.3 4.7 4-19.2 12.8 11.1 7.5-10.3 7.1 31.9 20.5 3.3-1.7v3.8l11.6 11.9-10.9 23.4 6.5 18.2-42.3 51.7h-35.2l-68.7 65.9-37.2-53.3 8.9-18.8 5.4.7 22.1-14.3-11.8-8.1 5-4.1-20.7-13.8 5.2-4-17.8-11-16.5 10.8 4 3.8-21.2 14 2.2 2.9-4.5 3.1v7.7l14.5 9.6v8.1l15.1 10.2v3.3l-9.2 13.6-61.2-82.5-17.1 13.2-20.7-26.5-41.9 47-13.8-.1-47.6 59.7-11.2-5.8-18.7 22.2-36-34.9H51.9L0 242.6v155h995l-19.9-27.9-17.2 13.3-20-26.5-17.5 19.3-23.6-36.4-4.4-6.7c-3.7-5.6-3.7-5.9-1.4-13 8.6-.9 8.6-.9 7.4 12.4l8.6 1.4 2.2-11.9 8.8 1.1-.9 12.3 8.7.6 1.7-11.8 8.4.8v11.8l8.8 1 1-11.5h8.8v11.9l9.3.7v-11.7h9.4v11.5l8.9.4v-12h9.3l1.1 11.3 8.5-.5v-11.8l8.7-.4.6 4.3c.6 7.9.6 7.9 9.2 6.5v-11.7l8.5-.9 1.8 12 8.7-1.1-1.2-11.8 8.8-1.5c.7 7.7.4 14.3-4.4 20.7l-41.5 55.7H1920V247.1l-30.1 36.8zm-1542.1-2.3l-3.4-5.1 9.4-7.7 7.7 4 4.4-2.8 5.1 3.5-8 14.7-15.2-6.6zm198.6-109.3l11.3-8.2 8.4 7.3-6 12.5-13.7-11.6zm136.9-71.8l.2-6.2-5.5-.9 6-5.4 5.9 6.6-6.6 5.9zm121.3 91.1l-8.6-13.8 3.4-4 5.2 2.5 7-4 10.5 6.8-.4 4.7-17.1 7.8zm247.7 116.7l-10.8-8.8c8.6-7.3 8.6-7.3 15.7-1.5l-4.9 10.3zm8.8 6.5l-1.4-.5 3.3-12.8 5.3 3.5-7.2 9.8zm181.2-180.5l.1-12.9 4.7-8.3 4.3 8 .1 13.3h-9.2z" fill="#271638"/></svg>