<svg xmlns="http://www.w3.org/2000/svg" viewBox="0 0 1919.9 675.4"><linearGradient id="a" gradientUnits="userSpaceOnUse" x1="1106.7" y1="462" x2="898.7" y2="101.7" gradientTransform="translate(0 276)"><stop offset=".6" stop-color="#473567"/><stop offset=".7" stop-color="#56406f"/><stop offset=".8" stop-color="#613566"/><stop offset=".9" stop-color="#8d3c62"/><stop offset="1" stop-color="#973e61"/></linearGradient><path d="M1227.2 625.6l-71.2-12-12.8-36-39.3-12.8-26.1 10.7-37.7-38.5h-25.6l-11.2-9.1-12.8 6.2H969l-10.8 11.2-25.2-28.1h-18.2l-5 7.4H885L784 638l52.6 28.6 398.8-2.9-8.2-38.1zm-124.7-328.8a55 55 0 018-11.2c-5.3 1-8.9 4-8.9 4s-2.9-2-10.9-3.6c7.5 6.6 9.9 8.4 11.8 10.8zm-25.3 11.7c3.8 3.4 9.8 12.1 9.8 12.1s4.8-6.5 9.2-9.7c-5.5.1-8.6 1.9-8.6 1.9s-14.2-7.7-10.4-4.3zm3.9-6.7c-3.3-3.2-7.8-5.6-7.8-5.6s-8.7 5.8-8.9 7.4c2.2-.7 7.2-3.3 10-3.1.7 0 5.2 1.1 6.7 1.3zm-32.7 9.9l5.5-8.1c.8-1.2-6.2 3.1-6.2 3.1s-9.7-4.5-8.1-3.1l8.8 8.1zm-5.9 9.7s-4.7-4.3-6.2-4.3-6.8 5.5-6.8 5.5 3.9-2.1 6.9-2.5c3 0 6.1 1.3 6.1 1.3zm-20.3-11.8c2.8-.3 4.3.2 4.3.2l-5-3-4.8 6c.2 0 2.7-3 5.5-3.2z" fill="url(#a)"/></svg>