<svg xmlns="http://www.w3.org/2000/svg" viewBox="0 0 1920 674"><radialGradient id="a" cx="956.9" cy="475.52" r="205.94" fx="960.25" fy="269.6" gradientUnits="userSpaceOnUse"><stop offset="0" stop-color="#9e4d73"/><stop offset=".12" stop-color="#994c72"/><stop offset=".27" stop-color="#8a4770"/><stop offset=".44" stop-color="#71416d"/><stop offset=".61" stop-color="#4f3768"/><stop offset=".65" stop-color="#473567"/></radialGradient><path d="M1042.1 394.7c2.3 0 4.7-.1 11.4.7-3.3-.9-7.9-2.1-10.2-2.3-2.3-.3-16 .1-18.1.3-2.1.1-2.6-2.3-2.6-2.3l-1.9-4.7-3 5.1v35.3l-12.4-19.6V362l-1.7-1.7-3 3v10.2h-9.1l-5.2-5.2v-32.4l-2.3-4-2.3 4.4v12.3h-8.4l-.1-20.6c0-8-6.8-19.3-10.5-22.5l.1-13.1c7.2.2 17.3-2 21.3-2 5.4 0 5.6.9 10.7 1.7-3.2-1.5-8.2-2.9-10.7-3-2.2-.1-18.2.1-20.1.1s-1-4.7-1-4.7 2.3.3 8.7.4c6.3.1 9.9-1 18.1-.3 8.1.7 5.8 1.6 12 1.4 3.2-.1 4.6-.3 8.5-1.7-3.9.5-4.8.5-7.4.4-5.5 0-5.8-.9-10.1-1.7-3.8-.7-6.9-1.6-12.2-1.8-1.4 0-2.5.5-3.5.6s-1.3-.4-2.2-.5c-.9-.1-1.1.6-2.4.6-1.3.1-1.3-.5-2.5-.6-1.2 0-2.2.6-4.1.2-.9-.2-3-.2-3-.2l-2.3-4.4-2.4 4.6v23.9c-3.8 2.8-10.3 15.3-10.3 22.8v20.7H939V337l-2.5-5.2-2.3 5.2v31.4l-5.7 5.7h-7.9l-.1-11.8-2.8-5-2.4 5.4.1 40.3-11.8 21.2v-11.6l-5 4v11.8l-13.8 8.8 3 1.9-.6 2.6-6.9 4.6 4.6 3.9-1.4 6.3-14 14.5-5.1-2.8-11.6 10.4-9.6-6-14 10.9-2.4-1.2-2.8 1.7h-1.7l-4.3 4.8v5.5l-9.1 6.7-12.3-.1-8.1 7.7-18.8 10.1h-7.4l-23 11.3-50.8 102.6L794.2 674h287.9l143.2-89.9-16.6-20.4-7.4-2.2-17.2-5.7-2.5-4.6-10.5-6.3-5.5.6-13.6-8.5-1.8-4.4-9.5-5.7h-11l-8-3.9-6.2 4.3-14.6-16v-17.7l-7.4-7.4v20l-8.3 6.1v-73.8l3-3.7 2.9 1.8 3.2-6.1-3.3-4.4h-68.3v-29.4c4.3.5 14.7-1.9 19.4-2zm-91.5-21.4h-6.3v-13.2l3.2-5.2 3.1 5.2v13.2zm13.1 0h-6.3v-13.2l3.2-5.2 3.1 5.2v13.2zm-3.3-46.4l-3.9-3.9 3.9-3.9 3.9 3.9-3.9 3.9zm16.2 46.4h-6.3v-13.2l3.2-5.2 3.1 5.2v13.2zm57.6 79.3l-4.9-7v-10.9l4.9 4.9v13zm14.7 24.3l-7.8-11.4v-26.8l4-4 3.8 4.3v37.9zm14.9 18.6l-1.8-2-2.1-15.2-3.9-2.5v-37.1l4-4 3.8 4.3v56.5zm14.3 12.4l-7.8-7.8v-61.3l4-4 3.8 4.3v68.8z" fill="url(#a)"/><linearGradient id="b" gradientUnits="userSpaceOnUse" x1="959.45" y1="539.38" x2="959.45" y2="277.03"><stop offset="0" stop-color="#473567"/><stop offset=".63" stop-color="#984a71"/><stop offset="1" stop-color="#9e4d73"/></linearGradient><path d="M1014.1 421l-8.8-13.9v-45.2l-1.7-1.7-3 3v10.2h-9.1l-5.2-5.2v-32.4l-2.3-4-2.3 4.4v12.3h-8.4l-.1-20.6c0-8-6.8-19.3-10.5-22.5l.1-13.1c7.2.2 17.3-2 21.3-2 5.4 0 5.6.9 10.7 1.7-3.2-1.5-8.2-2.9-10.7-3-2.2-.1-18.2.1-20.1.1s-1-4.7-1-4.7 2.3.3 8.7.4c6.3.1 9.9-1 18.1-.3 8.1.7 5.8 1.6 12 1.4 3.2-.1 4.6-.3 8.5-1.7-3.9.5-4.8.5-7.4.4-5.5 0-5.8-.9-10.1-1.7-3.8-.7-6.9-1.6-12.2-1.8-1.4 0-2.5.5-3.5.6s-1.3-.4-2.2-.5c-.9-.1-1.1.6-2.4.6-1.3.1-1.3-.5-2.5-.6-1.2 0-2.2.6-4.1.2-.9-.2-3-.2-3-.2l-2.3-4.4-2.4 4.6v23.9c-3.8 2.8-10.3 15.3-10.3 22.8v20.7H939V337l-2.5-5.2-2.3 5.2v31.4l-5.7 5.7h-7.9l-.1-11.8-2.8-5-2.4 5.4.1 40.3-10.7 19.1v117.2h109.2V421zm-63.5-47.7h-6.3v-13.2l3.2-5.2 3.1 5.2v13.2zm13.1 0h-6.3v-13.2l3.2-5.2 3.1 5.2v13.2zm-3.3-46.4l-3.9-3.9 3.9-3.9 3.9 3.9-3.9 3.9zm16.2 46.4h-6.3v-13.2l3.2-5.2 3.1 5.2v13.2z" fill="url(#b)"/><linearGradient id="c" gradientUnits="userSpaceOnUse" x1="960.47" y1="549.31" x2="960.47" y2="373.31"><stop offset="0" stop-color="#473567"/><stop offset="1" stop-color="#9e4d73"/></linearGradient><path fill="url(#c)" d="M944.3 373.3h32.3v176h-32.3z"/><linearGradient id="d" gradientUnits="userSpaceOnUse" x1="973.47" y1="395.59" x2="973.47" y2="373.93"><stop offset="0" stop-color="#934a71"/><stop offset=".3" stop-color="#994c72"/><stop offset=".8" stop-color="#aa5074"/></linearGradient><path fill="url(#d)" d="M970.8 373.9h5.3v21.7h-5.3z"/><linearGradient id="e" gradientUnits="userSpaceOnUse" x1="960.52" y1="395.59" x2="960.52" y2="373.93"><stop offset="0" stop-color="#934a71"/><stop offset=".3" stop-color="#994c72"/><stop offset=".8" stop-color="#aa5074"/></linearGradient><path fill="url(#e)" d="M957.9 373.9h5.3v21.7h-5.3z"/><g><linearGradient id="f" gradientUnits="userSpaceOnUse" x1="947.45" y1="395.59" x2="947.45" y2="373.93"><stop offset="0" stop-color="#934a71"/><stop offset=".3" stop-color="#994c72"/><stop offset=".8" stop-color="#aa5074"/></linearGradient><path fill="url(#f)" d="M944.8 373.9h5.3v21.7h-5.3z"/></g></svg>