<svg xmlns="http://www.w3.org/2000/svg" viewBox="0 0 1920 674"><linearGradient id="a" gradientUnits="userSpaceOnUse" x1="1129.3" y1="592.6" x2="1129.3" y2="444.4"><stop offset=".3" stop-color="#745c90"/><stop offset=".5" stop-color="#655083"/><stop offset=".8" stop-color="#4e3d6e"/><stop offset="1" stop-color="#463667"/></linearGradient><path fill="url(#a)" d="M1231.3 523.4l-33.9-38.6-18.4-11.6-13.5 9.1-16.7-16.6 5.5-3.7-8-5.4-3.3 2.7-3.3-3.9 5.1-3.1-11.1-7.9-11.8 7.7 3.3 2.2-7.9 4.8 5 3.7-12.4 12-3.8-3.5 7.7-5.4-12.8-8.2-12.7 8.2 10.2 7.7-78.4 54.6 35.8 24.4 75.1 40 46.1-40.2 61.5-2.9z"/><linearGradient id="b" gradientUnits="userSpaceOnUse" x1="814.9" y1="547.7" x2="814.9" y2="453.7"><stop offset=".3" stop-color="#745c90"/><stop offset=".5" stop-color="#655083"/><stop offset=".8" stop-color="#4e3d6e"/><stop offset="1" stop-color="#463667"/></linearGradient><path fill="url(#b)" d="M781.1 453.7l-51.9 40.8-2.7 40.3 138 12.9 38.9-27.6-67.5-26.9z"/><g><linearGradient id="c" gradientUnits="userSpaceOnUse" x1="789.8" y1="269.6" x2="819.4" y2="269.6"><stop offset="0" stop-color="#6f497d"/><stop offset="1" stop-color="#814e7d"/></linearGradient><path d="M819.4 264.5c0-8.5-6.9-13.8-14.8-13.8s-14.8 5.7-14.8 13.8c0 7.1 9.2 20 12.9 24.1h3.9s12.8-15.6 12.8-24.1z" fill="url(#c)"/><linearGradient id="d" gradientUnits="userSpaceOnUse" x1="801.7" y1="292.5" x2="807.5" y2="292.5"><stop offset="0" stop-color="#6f497d"/><stop offset="1" stop-color="#814e7d"/></linearGradient><path d="M804.6 290.7c-1.8 0-2.9.3-2.9 1.8s1 1.9 2.9 1.9c1.8 0 2.9-.4 2.9-1.9s-1.1-1.8-2.9-1.8z" fill="url(#d)"/></g></svg>