<svg xmlns="http://www.w3.org/2000/svg" viewBox="0 0 1920 674"><linearGradient id="a" gradientUnits="userSpaceOnUse" x1="470.9" y1="512.7" x2="470.9" y2="364.8"><stop offset="0" stop-color="#745c90"/><stop offset="1" stop-color="#564478"/></linearGradient><path d="M563.1 437.8l-20.1-9.3-1-5.4-20.3-17H519v-27l-1.6-3.1-1.6 3.4v5.7h-5.7l.1-7.5v-9.3l-1.6-3.1-1.6 3.4v5.5h-8.2v-6.2l-1.6-3.1-1.6 3.4v17h-5.4v-5.9l-1.6-3.1-1.6 3.4v5.7h-.1v19.2L474.7 419V407.4l-1.6-3.1-1.6 3.4v5.6h-8.3v-5.8l-1.6-3.1-1.6 3.4v21.6l-35.5 44.5-7.6-8.9-6.1 1.8-10.8-14v-34.9l-2.2-3.8-2.2 4.1v11H393v-22.7l-5-6.5v-10.6l-2.2-3.8-2.2 4.1v10.8l-4.9 6.4v22.2h-2.1v-11.2l-2.2-3.8-2.2 4.1v38.7l-12.8 11.9-2 .6-27.6 29.5h74.5l-8.3 10.3 1.4 3.5 214.8-4.6V470l-41-33.3-8.1 1.1zM388 426.9h-4.5v-9l2.2-3.3 2.2 3.1v9.2z" fill="url(#a)"/><linearGradient id="b" gradientUnits="userSpaceOnUse" x1="787.7" y1="489.3" x2="787.7" y2="322.1"><stop offset="0" stop-color="#745c90"/><stop offset="1" stop-color="#564478"/></linearGradient><path d="M865.1 425.8v-26.6l-1.6-3.1-1.6 3.4v5.3h-5.2v-16.4l-1.6-3.1-1.6 3.4v5.4h-8.8v-5.6l-1.6-3.1-1.6 3.4v16.1h-5.3v-5.3l-1.6-3.1-1.6 3.4v24L812.2 439l-27.3-32.7-5 2.7-12.4-14.3V362.1l-2.2-3.8-2.2 4.1v7.6h-2.7v-17.8l-5.2-6.3v-15.3c2.8.5 13.7-1.8 20.4-2.2-1.6-1-16.4-1.9-20.4-1.8l-2.2-3.8-2.2 4.1v19l-4.8 6.8v17.4h-3v-7.9l-2.2-3.8-2.2 4.1v35.8l-10.4 12.2-3.9 1.2-10.1 11.4-28.3 21.9v2.3l72 36.6 89.8 6.2 42-32.7v-3.5l-20.9-27.3h-3.7zm-118.3-32.9l-4.5 3.4V382l2.2-4.1 2.2 3.8v11.2zm8.2-2.1h-4.5v-13.3l2.2-4.1 2.2 3.8v13.6zm8.9-2.7l-4.5 2.2V382l2.2-4.1 2.2 3.8v6.4z" fill="url(#b)"/><linearGradient id="c" gradientUnits="userSpaceOnUse" x1="1129.7" y1="490.1" x2="1129.7" y2="341.6"><stop offset="0" stop-color="#745c90"/><stop offset="1" stop-color="#564478"/></linearGradient><path d="M1192.5 420.8v-4.3l-8.7-9.9h.2v-34.9l-2.2-3.8-2.2 4.1v11h-2.6v-23.8l-4.9-6.2v-7.7l-2.4-3.8-2 3.8v7.6l-4.9 6.2v23.8h-2.1v-11.2l-2.2-3.8-2.2 4.1v38.6l-48.2 42.4-10.6-12.2v-14.2l-1.6-3.1-1.6 3.4v2.7h-3.3l.1-14.4h-8.1v-9.3l-1.6-3.1-1.6 3.4v9.1h-7.9l.1 14.4h-3.5v-3l-1.6-3.1-1.6 3.4v9.1h.1v7.5l-30.6 28.8-2.3 15.3 156.8 2.7 38.3-11.4-31.7-55.9-3.4-2.3zm-113.6 8.1h-3.2v-6.6l1.6-2.5 1.6 2.3v6.8zm7.9 0h-3.2v-6.6l1.6-2.5 1.6 2.3v6.8zm85.1-48.1h-4.5v-9l2.2-3.3 2.2 3.1v9.2z" fill="url(#c)"/><linearGradient id="d" gradientUnits="userSpaceOnUse" x1="1364" y1="472.9" x2="1364" y2="369.9"><stop offset="0" stop-color="#745c90"/><stop offset="1" stop-color="#564478"/></linearGradient><path d="M1395.1 426.3l-5.3-6.2-10.6-12.2v-14.2l-1.6-3.1-1.6 3.4v2.7h-3.3l.1-14.4h-8.1V373l-1.6-3.1-1.6 3.4v9.1h-7.9l.1 14.4h-3.5v-3l-1.6-3.1-1.6 3.4v9.1h.1v7.5l-16.6 19.6-3-2.5-35.8 39.6 110 5.7 35-2.8-36.1-47.4-5.5 3.4zm-34.3-30.2h-3.2v-6.6l1.6-2.5 1.6 2.3v6.8zm7.9 0h-3.2v-6.6l1.6-2.5 1.6 2.3v6.8z" fill="url(#d)"/><linearGradient id="e" gradientUnits="userSpaceOnUse" x1="829" y1="298.8" x2="851.1" y2="298.8"><stop offset="0" stop-color="#ab6a95"/><stop offset="1" stop-color="#b96e99"/></linearGradient><path d="M841.6 313s9.5-11.6 9.5-18-5.1-10.3-11-10.3-11 4.2-11 10.3c0 5.3 6.8 14.9 9.6 18h2.9z" fill="url(#e)"/><linearGradient id="f" gradientUnits="userSpaceOnUse" x1="837.9" y1="315.9" x2="842.3" y2="315.9"><stop offset="0" stop-color="#ab6a95"/><stop offset="1" stop-color="#b96e99"/></linearGradient><path d="M837.9 315.9c0 1.1.8 1.4 2.1 1.4 1.4 0 2.2-.3 2.2-1.4 0-1.1-.8-1.4-2.2-1.4s-2.1.2-2.1 1.4z" fill="url(#f)"/><linearGradient id="g" gradientUnits="userSpaceOnUse" x1="1488.9" y1="510.8" x2="1488.9" y2="394.6"><stop offset="0" stop-color="#745c90"/><stop offset="1" stop-color="#564478"/></linearGradient><path d="M1510.7 478.2l-5 2.7-12.4-14.3V434l-2.2-3.8-2.2 4.1v7.6h-2.7V424l-5.1-6.2v-19.1l-2.4-4.1-2.2 4.1v19l-4.8 6.8v17.4h-2.7V434l-2.2-3.8-2.2 4.1v35.8l-10.4 12.2-3.9 1.2-10.1 11.4 98.1 16.1-27.6-32.8zm-38.1-12.8l-4.5 3.4v-14.3l2.2-4.1 2.2 3.8v11.2zm8.2-2.1h-4.5V450l2.2-4.1 2.2 3.8v13.6zm8.9-2.7l-4.5 2.2v-8.3l2.2-4.1 2.2 3.8v6.4z" fill="url(#g)"/></svg>