<svg xmlns="http://www.w3.org/2000/svg" viewBox="0 0 1920 674"><radialGradient id="a" cx="960" cy="502.828" r="689.529" fx="958.825" fy="342.206" gradientUnits="userSpaceOnUse"><stop offset=".056" stop-color="#d2a5b8"/><stop offset=".093" stop-color="#b68fac"/><stop offset=".139" stop-color="#9979a0"/><stop offset=".185" stop-color="#846997"/><stop offset=".231" stop-color="#785f92"/><stop offset=".275" stop-color="#745c90"/></radialGradient><path fill="url(#a)" d="M79.9 376.8l-13.6-13.3h-56L0 351.5V674h1920V360.1h-14.3l-12.1-12.1h-42.2l-2.3 5h-6.3l-35.5 36.7-21-24.8h-40.1l-9.9 9.9h-29.8l-15.3-15.3H1649l-17 18.6h-29.1l-24.1-24.1h-24.6l-9.5 10.9H1497l-12 11.9h-22.7l-13.4-13.4h-55.7l-15.8-18.6h-36.3l-3.7 6-7.3-2-10.6 10.5h-24.1l-7 5.9-8.4-6.1h-14.3l-9.1 8.3h-17.3l-7.3 7.3h-18.8l-14.6 14.6h-15.4l-8-5.6h-5.7l-9.8-10.5-1.8-4.7-2 1.2-9.7-12.4-6.9 3.5-3.9-4.5-31.7 34.3H1083l-25.6-25.6-7.3 2.8-5-8.6h-15.6l-13.2 13.3h-8l-10.4 12.4h-22.3l-6.1 6.1h-27.3l-3.9-4h-14.7l-4.7-4.7H915l-21-21h-8.9l-9.3 9.2h-37.5l-4.9 8.3-9.7-3.3-7 7.5h-22.2l-13.2-13.2-17.3-.1-3.3-.5-5 .9-12-.5-17.9.7-5.3 5.3-8.6-5.3h-11.1v-6.2l-12-24.4-7.1 4.4.4 2.2-8.2 5.5h-8.8L651 365.9l-27.4-33-6.9 5.7-8-6.9-13.4 13.3H560l-14.8 14.8h-21.9l-11.6-11.7h-43.4l-2.1 4.9h-6.5l-36.3 36.4-9.6-9.6-10.2-15.3H364l-10.4 10.4h-30.3L308 359.6h-41.9L249 378.1h-29.4L195.4 354h-24l-9.3 11h-48.3L102 376.8z"/></svg>