<svg xmlns="http://www.w3.org/2000/svg" viewBox="0 0 1920 674"><style>.st4{fill:#fff}.st6{opacity:.1;fill:#fff1ec}</style><g id="Layer_6"><linearGradient id="SVGID_1_" gradientUnits="userSpaceOnUse" x1="960.05" y1="674" x2="960.05" y2="0"><stop offset=".5" stop-color="#bc83a6"/><stop offset=".75" stop-color="#cfa7c1"/><stop offset=".811" stop-color="#bd99ba"/><stop offset=".933" stop-color="#8d76a7"/><stop offset="1" stop-color="#70619c"/></linearGradient><path fill="url(#SVGID_1_)" d="M.1 0h1920v674H.1z"/></g><path d="M1253.1 82.1c-5.3 37.1 26.3 48.5 26.3 48.5s-21.5 8.8-34-11.4c-12.6-20.1 4.4-36.3 7.7-37.1z" opacity=".4" fill="#fff" id="Moon"/><g opacity=".7" id="S1"><circle class="st4" cx="10.2" cy="3" r="1.9"/><path class="st4" d="M82.7 53c-1 0-1.8.8-1.8 1.8s.8 1.8 1.8 1.8 1.8-.8 1.8-1.8-.8-1.8-1.8-1.8z"/><circle class="st4" cx="280" cy="53" r="2.2"/><circle class="st4" cx="339" cy="30.1" r="1.6"/><path class="st4" d="M367.3 5.3c-1.3 0-2.3 1-2.3 2.3 0 1.3 1 2.3 2.3 2.3 1.3 0 2.3-1 2.3-2.3 0-1.3-1.1-2.3-2.3-2.3zM362.4 77c-1 0-1.8.8-1.8 1.8s.8 1.8 1.8 1.8 1.8-.8 1.8-1.8-.8-1.8-1.8-1.8zM412.6 64.3c-1.1 0-2.1.9-2.1 2.1 0 1.1.9 2.1 2.1 2.1 1.1 0 2.1-.9 2.1-2.1 0-1.1-1-2.1-2.1-2.1zM468.8 28.5c-1.3 0-2.3 1-2.3 2.3 0 1.3 1 2.3 2.3 2.3 1.3 0 2.3-1 2.3-2.3 0-1.3-1-2.3-2.3-2.3z"/><circle class="st4" cx="348.9" cy="59" r="1"/><circle class="st4" cx="581.8" cy="3.1" r="1.9"/><path class="st4" d="M508.9 78.7c-1 0-1.9.8-1.9 1.9 0 1 .8 1.9 1.9 1.9s1.9-.8 1.9-1.9c0-1.1-.8-1.9-1.9-1.9z"/><circle class="st4" cx="640.3" cy="49.2" r="2.2"/><circle class="st4" cx="801.8" cy="30.2" r="1.2"/><path class="st4" d="M811.7 58.3c-.6 0-1.2.5-1.2 1.2 0 .6.5 1.2 1.2 1.2.6 0 1.2-.5 1.2-1.2s-.5-1.2-1.2-1.2zM759.6 108.5c-.6 0-1.2.5-1.2 1.2 0 .6.5 1.2 1.2 1.2.6 0 1.2-.5 1.2-1.2-.1-.7-.6-1.2-1.2-1.2z"/><circle class="st4" cx="829.9" cy="7" r="2.3"/><path class="st4" d="M875 64.3c-1.3 0-2.4 1.1-2.4 2.4 0 1.3 1.1 2.4 2.4 2.4 1.3 0 2.4-1.1 2.4-2.4 0-1.3-1.1-2.4-2.4-2.4zM931.6 29c-1.2 0-2.2 1-2.2 2.2 0 1.2 1 2.2 2.2 2.2 1.2 0 2.2-1 2.2-2.2 0-1.2-.9-2.2-2.2-2.2zM1024.9 11.7c-1.1 0-1.9.9-1.9 1.9 0 1.1.9 1.9 1.9 1.9 1.1 0 1.9-.9 1.9-1.9 0-1.1-.9-1.9-1.9-1.9zM1005.8 64.3c-1.3 0-2.4 1.1-2.4 2.4 0 1.3 1.1 2.4 2.4 2.4 1.3 0 2.4-1.1 2.4-2.4 0-1.3-1.1-2.4-2.4-2.4zM954.7 77.3c-.7 0-1.3.6-1.3 1.3 0 .7.6 1.3 1.3 1.3s1.3-.6 1.3-1.3c0-.7-.5-1.3-1.3-1.3zM917.8 84.5c-.6 0-1.1.5-1.1 1.1 0 .6.5 1.1 1.1 1.1.6 0 1.1-.5 1.1-1.1 0-.6-.4-1.1-1.1-1.1zM1085.2 1.4c-.7 0-1.3.6-1.3 1.3s.6 1.3 1.3 1.3c.7 0 1.3-.6 1.3-1.3s-.6-1.3-1.3-1.3zM1043.8 37.3c-.8 0-1.5.7-1.5 1.5s.7 1.5 1.5 1.5 1.5-.7 1.5-1.5-.7-1.5-1.5-1.5zM1102.7 37.3c-.6 0-1.1.5-1.1 1.1 0 .6.5 1.1 1.1 1.1.6 0 1.1-.5 1.1-1.1 0-.6-.5-1.1-1.1-1.1zM1232.2 4.1c-1.3 0-2.4 1.1-2.4 2.4 0 1.3 1.1 2.4 2.4 2.4 1.3 0 2.4-1.1 2.4-2.4 0-1.4-1.1-2.4-2.4-2.4z"/><circle class="st4" cx="1226.7" cy="78.9" r="1.9"/><path class="st4" d="M1335.6 28.2c-1.4 0-2.6 1.2-2.6 2.6 0 1.4 1.2 2.6 2.6 2.6 1.4 0 2.6-1.2 2.6-2.6.1-1.4-1.1-2.6-2.6-2.6zM1376.3 78.9c-1.2 0-2.2 1-2.2 2.2 0 1.2 1 2.2 2.2 2.2 1.2 0 2.2-1 2.2-2.2-.1-1.2-1-2.2-2.2-2.2z"/><circle class="st4" cx="1464.7" cy="55.3" r="2"/><circle class="st4" cx="1721.9" cy="30.1" r="1.6"/><circle class="st4" cx="1661.8" cy="53" r="2.1"/><path class="st4" d="M1731.6 58.6c-.6 0-1 .5-1 1 0 .6.5 1 1 1 .6 0 1-.5 1-1 0-.6-.5-1-1-1zM1851.8 28.5c-1.3 0-2.3 1-2.3 2.3 0 1.3 1 2.3 2.3 2.3 1.3 0 2.3-1 2.3-2.3 0-1.3-1-2.3-2.3-2.3z"/><circle class="st4" cx="1795" cy="67" r="2.1"/><circle class="st4" cx="1892.1" cy="79.9" r="2.3"/></g><g opacity=".4" id="S2"><path class="st4" d="M1909.5 0c-1.5 0-2.7 1.2-2.7 2.7 0 1.5 1.2 2.7 2.7 2.7 1.5 0 2.7-1.2 2.7-2.7-.1-1.5-1.3-2.7-2.7-2.7z"/><circle class="st4" cx="1842.8" cy="70.2" r="1.1"/><path class="st4" d="M1893.9 95c-1 0-1.8.8-1.8 1.8s.8 1.8 1.8 1.8 1.8-.8 1.8-1.8-.8-1.8-1.8-1.8zM1834.4 95c-1 0-1.8.8-1.8 1.8s.8 1.8 1.8 1.8 1.8-.8 1.8-1.8-.8-1.8-1.8-1.8z"/><circle class="st4" cx="1837.8" cy="85.2" r="1.5"/><path class="st4" d="M1792.2 53c-.4 0-.7.3-.7.7 0 .4.3.7.7.7s.7-.3.7-.7c0-.4-.3-.7-.7-.7zM1783 10.6c-1 0-1.7.8-1.7 1.7s.8 1.7 1.7 1.7c1 0 1.7-.8 1.7-1.7s-.7-1.7-1.7-1.7z"/><circle class="st4" cx="1750.4" cy="7.2" r="1.9"/><circle class="st4" cx="1745.8" cy="78.8" r="2"/><path class="st4" d="M1751.4 114.6c-.5 0-1 .4-1 1 0 .5.4 1 1 1s1-.4 1-1c-.1-.6-.5-1-1-1zM1679.4 107.9c-.6 0-1 .5-1 1s.5 1 1 1c.6 0 1-.5 1-1s-.4-1-1-1zM1700.7 33.2c-.7 0-1.3.6-1.3 1.3 0 .7.6 1.3 1.3 1.3.7 0 1.3-.6 1.3-1.3 0-.7-.6-1.3-1.3-1.3zM1426.9 121.4c-.8 0-1.5.7-1.5 1.5s.7 1.5 1.5 1.5 1.5-.7 1.5-1.5-.6-1.5-1.5-1.5zM1378.4 95c-1.2 0-2.2 1-2.2 2.2 0 1.2 1 2.2 2.2 2.2s2.2-1 2.2-2.2c0-1.3-1-2.2-2.2-2.2zM1400.8 43.1c-.7 0-1.3.6-1.3 1.3 0 .7.6 1.3 1.3 1.3.7 0 1.3-.6 1.3-1.3 0-.7-.6-1.3-1.3-1.3zM1393.5 0c-1.2 0-2.2 1-2.2 2.2 0 1.2 1 2.2 2.2 2.2 1.2 0 2.2-1 2.2-2.2 0-1.2-1-2.2-2.2-2.2zM1327.5 70.7c-.5 0-.8.4-.8.8 0 .5.4.8.8.8s.8-.4.8-.8-.3-.8-.8-.8zM1322.9 83.2c-.6 0-1.1.5-1.1 1.1s.5 1.1 1.1 1.1c.6 0 1.1-.5 1.1-1.1s-.5-1.1-1.1-1.1zM1319.5 95c-1.2 0-2.2 1-2.2 2.2 0 1.2 1 2.2 2.2 2.2 1.2 0 2.2-1 2.2-2.2 0-1.2-1-2.2-2.2-2.2zM1279 65.4c-.6 0-1.2.5-1.2 1.2 0 .6.5 1.2 1.2 1.2.6 0 1.2-.5 1.2-1.2 0-.6-.5-1.2-1.2-1.2z"/><circle class="st4" cx="1213.9" cy="59" r="1"/><circle class="st4" cx="1212.3" cy="20.1" r="1.7"/><circle class="st4" cx="1203.3" cy="30.6" r="1"/><circle class="st4" cx="1183.3" cy="34.8" r="1.9"/><circle class="st4" cx="1154.4" cy="9.1" r="1"/><circle class="st4" cx="1233.6" cy="115.1" r="1"/><circle class="st4" cx="1160.9" cy="108.9" r=".9"/><circle class="st4" cx="1114.5" cy="109.2" r="1.1"/><circle class="st4" cx="1082.9" cy="47.8" r="1.9"/><circle class="st4" cx="1068.1" cy="59.2" r=".8"/><path class="st4" d="M1047.5 84.5c-.5 0-.9.4-.9.9s.4.9.9.9.9-.4.9-.9-.4-.9-.9-.9zM1044.1 95.1c-1 0-1.8.8-1.8 1.8s.8 1.8 1.8 1.8 1.8-.8 1.8-1.8-.8-1.8-1.8-1.8zM971.7 114.6c-.5 0-.9.4-.9.9s.4.9.9.9.9-.4.9-.9c-.1-.6-.5-.9-.9-.9z"/><circle class="st4" cx="914.7" cy="96.7" r="2"/><circle class="st4" cx="923" cy="71.1" r=".9"/><path class="st4" d="M936-.3c-.3 0-.6.3-.6.6s.3.6.6.6.6-.3.6-.6c0-.4-.3-.6-.6-.6zM895.3-.3c-.3 0-.6.3-.6.6s.3.6.6.6.6-.3.6-.6c0-.4-.3-.6-.6-.6z"/><circle class="st4" cx="862.8" cy="13.3" r="2.1"/><path class="st4" d="M825.4 76.5c-1.3 0-2.3 1-2.3 2.3 0 1.3 1 2.3 2.3 2.3 1.3 0 2.3-1 2.3-2.3-.1-1.3-1.1-2.3-2.3-2.3zM872.4 53.3c-.3 0-.6.3-.6.6s.3.6.6.6.6-.3.6-.6-.3-.6-.6-.6z"/><circle class="st4" cx="831.5" cy="114.9" r=".9"/><path class="st4" d="M780.7 33.2c-.8 0-1.4.6-1.4 1.4 0 .8.6 1.4 1.4 1.4s1.4-.6 1.4-1.4c0-.8-.6-1.4-1.4-1.4zM742.2 50.4c-1.3 0-2.3 1-2.3 2.3 0 1.3 1 2.3 2.3 2.3 1.3 0 2.3-1 2.3-2.3 0-1.3-1-2.3-2.3-2.3z"/><circle class="st4" cx="664.8" cy="98.2" r="2"/><path class="st4" d="M651 117.2c-.6 0-1.2.5-1.2 1.2 0 .6.5 1.2 1.2 1.2s1.2-.5 1.2-1.2-.5-1.2-1.2-1.2zM559.2 122.3c-.7 0-1.2.6-1.2 1.2 0 .7.6 1.2 1.2 1.2s1.2-.6 1.2-1.2c.1-.7-.5-1.2-1.2-1.2zM511.2 95.8c-.9 0-1.6.7-1.6 1.6s.7 1.6 1.6 1.6 1.6-.7 1.6-1.6-.8-1.6-1.6-1.6z"/><circle class="st4" cx="460.1" cy="71" r=".6"/><circle class="st4" cx="455" cy="85.2" r=".7"/><path class="st4" d="M452 94.8c-.9 0-1.6.7-1.6 1.6s.7 1.6 1.6 1.6 1.6-.7 1.6-1.6-.7-1.6-1.6-1.6z"/><circle class="st4" cx="410" cy="54.1" r=".9"/><circle class="st4" cx="368.7" cy="115" r=".8"/><path class="st4" d="M400.6 11.5c-.8 0-1.4.6-1.4 1.4s.6 1.4 1.4 1.4c.8 0 1.4-.6 1.4-1.4s-.6-1.4-1.4-1.4zM318.3 33.3c-.9 0-1.7.7-1.7 1.7s.7 1.7 1.7 1.7S320 36 320 35s-.8-1.7-1.7-1.7zM296.5 108.6c-.6 0-1.2.5-1.2 1.2s.5 1.2 1.2 1.2c.6 0 1.2-.5 1.2-1.2s-.5-1.2-1.2-1.2z"/><circle class="st4" cx="191.2" cy="11.7" r="1"/><path class="st4" d="M44 121.9c-1 0-1.8.8-1.8 1.8s.8 1.8 1.8 1.8 1.8-.8 1.8-1.8-.8-1.8-1.8-1.8zM18.2 42.8c-.9 0-1.6.7-1.6 1.6s.7 1.6 1.6 1.6 1.6-.7 1.6-1.6-.8-1.6-1.6-1.6z"/></g><g id="Layer_8"><path class="st6" d="M-18.8 196.4h182.1l28.1 8.3h322.8l18.2 9.9H219.6l-24.9 11.6H-18.8zM93.8 260.8l11.1-11.6h341.5l9.9 11.6zM-6 300.5h124.1l10.5 7.7 187 2.8 11.1 5.5h-186l-33.1 4.9H-6zM-8.8 329.7h189.3l11 7.3H-8.8zM498.8 303.8l5.5-9.4h158.9l6.1 6.1zM377.4 318.1l12.2-9.9 389.5 2.8 13.8 10.4zM459.6 354l11.1-10.5h96.5l11.6 8.3zM294.1 334.7l12.2-7.2H602l6 7.2zM576 363.4l9.2-9.4h238.6l15.4 9.4zM640 256.9l11.1-8.8 556.1-.6 12.2 9.4z"/><path class="st6" d="M387.4 200.1l17.6-9.4h43.6l7.7-8.3h128.9l8.5 5.5 75.6 5 12.7 7.2h165.5l14.3-8.9 289.7 8.9 9.9-8.9h44.7l13.3-8.8h61.2l17.1 8.8H1573l16.6 8.9h181.5l9.9-8.9h62.9l14.4-6.6h73.9v30.9l-22.6-7.2-23.8 10.5h-286.9l-301.2 4.4-38.1-8.2-723.3-3.7-22.1-6.6zM1478.1 259.7c1.7-1.1 5-9.4 10.5-9.4h341.5l12.1 9.4h-364.1zM1920 309.3h-151.7l-11 9.4h162.8zM1681.2 334.1l8.2-8.8H1920l.1 8.8zM1846.1 346.3l4.4-4.4h69.5v11.5h-55.1l-10.5-5.7zM1140.5 319.2l9.3-11h146.3l7.1-7.7h192.6l16 9.4 189.2-.6 12.7 9.9zM1543.8 327l9.9 10H765.8l8.9-9.5zM1478.1 349l11.6 11.6h-501l3.9-5.8z"/></g><g id="Layer_7"><radialGradient id="SVGID_2_" cx="961.222" cy="317.276" r="213.845" gradientUnits="userSpaceOnUse"><stop offset=".1" stop-color="#ffbcd4"/><stop offset=".107" stop-color="#ffbdd5" stop-opacity=".989"/><stop offset=".343" stop-color="#ffd1e2" stop-opacity=".653"/><stop offset=".576" stop-color="#ffdeea" stop-opacity=".321"/><stop offset=".8" stop-color="#ffe2ed" stop-opacity="0"/></radialGradient><circle cx="961.2" cy="317.3" r="213.8" fill="url(#SVGID_2_)"/></g><g id="SUN"><linearGradient id="SVGID_3_" gradientUnits="userSpaceOnUse" x1="961.222" y1="389.897" x2="961.222" y2="244.655"><stop offset="0" stop-color="#ffc6ca"/><stop offset="1" stop-color="#fff"/></linearGradient><circle cx="961.2" cy="317.3" r="72.6" fill="url(#SVGID_3_)"/></g></svg>