<svg version="1.1" id="Capa_1" xmlns="http://www.w3.org/2000/svg" x="0" y="0" viewBox="0 0 368 368" xml:space="preserve"><style>.w{fill:#fff}</style><path class="w" d="M334 83v-1L254 2l-6-2H56C43 0 32 11 32 24v320c0 13 11 24 24 24h256c13 0 24-11 24-24V88l-2-5zm-14 261c0 4-4 8-8 8H56c-4 0-8-4-8-8V24c0-4 4-8 8-8h168v32H88c-4 0-8 4-8 8v48a8 8 0 0016 0V64h128v40c0 4 4 8 8 8h88v232zm0-248h-80V16h5l75 75v5z"/><path class="w" d="M226 242l-34 35V136a8 8 0 00-16 0v141l-34-35a8 8 0 10-12 12l48 48 5 2h2a8 8 0 005-2l48-48a8 8 0 10-12-12z"/></svg>