<svg version="1.1" id="Capa_1" xmlns="http://www.w3.org/2000/svg" x="0" y="0" viewBox="0 0 512 512" xml:space="preserve"><style>.w{fill:#fff}</style><path class="w" d="M117 64h107v21H117zM117 107h22v21h-22zM160 107h21v21h-21z"/><path class="w" d="M456 88L370 3c-2-2-5-3-7-3H85C68 0 53 14 53 32v448c0 18 15 32 32 32h342c17 0 32-14 32-32V96c0-3-1-6-3-8zm-19 392c0 6-4 11-10 11H85c-6 0-10-5-10-11V32c0-6 4-11 10-11h273l79 79v380z"/><path class="w" d="M384 85c-6 0-11-4-11-10V11h-21v64c0 17 14 32 32 32h21V85h-21zM171 192c-18 0-32 14-32 32v53h-22v22h32c6 0 11-5 11-11v-64c0-6 5-11 11-11h21v-21h-21zM171 405c-6 0-11-4-11-10v-64c0-6-5-11-11-11h-32v21h22v54c0 17 14 32 32 32h21v-22h-21zM363 320c-6 0-11 5-11 11v64c0 6-5 10-11 10h-21v22h21c18 0 32-15 32-32v-54h22v-21h-32zM373 277v-53c0-18-14-32-32-32h-21v21h21c6 0 11 5 11 11v64c0 6 5 11 11 11h32v-22h-22z"/></svg>