<svg version="1.1" id="Capa_1" xmlns="http://www.w3.org/2000/svg" x="0" y="0" viewBox="0 0 490.7 490.7" xml:space="preserve"><style>.st0{fill:#fff}</style><path class="st0" d="M138.7 192H96c-5.9 0-10.7 4.8-10.7 10.7V288a10.7 10.7 0 0021.4 0v-74.7h32a10.7 10.7 0 000-21.3z"/><path class="st0" d="M117.3 234.7H96a10.7 10.7 0 000 21.3h21.3a10.7 10.7 0 000-21.3z"/><path class="st0" d="M245.3 0C110.1 0 0 110 0 245.3s110 245.4 245.3 245.4 245.4-110 245.4-245.4S380.7 0 245.3 0zm0 469.3c-123.5 0-224-100.4-224-224s100.5-224 224-224 224 100.5 224 224-100.4 224-224 224z"/><path class="st0" d="M386.8 132C352 88.8 300.5 64 245.3 64S138.6 88.8 104 132a10.7 10.7 0 1016.6 13.3c30.6-38.1 76.1-60 124.8-60s94.2 21.9 124.8 60a10.7 10.7 0 1016.7-13.3zM376.4 355c-4.2-4.1-11-4-15 .3-30.7 32.3-71.9 50-116 50s-85.5-17.7-116-50c-4-4.3-10.9-4.4-15.1-.4-4.3 4-4.5 10.8-.4 15.1 34.6 36.6 81.3 56.7 131.4 56.7s96.8-20.1 131.5-56.7c4-4.3 3.9-11-.4-15zM206.8 255.7a32 32 0 00-4.1-63.7h-21.4c-5.9 0-10.6 4.8-10.6 10.7V288a10.7 10.7 0 0021.3 0v-17l24.4 24.6a10.7 10.7 0 0015.1 0c4.2-4.2 4.2-11 0-15.2l-24.7-24.7zm-14.8-21v-21.4h10.7a10.7 10.7 0 010 21.4H192zM309.3 277.3h-32v-64h32a10.7 10.7 0 000-21.3h-42.6c-6 0-10.7 4.8-10.7 10.7V288c0 5.9 4.8 10.7 10.7 10.7h42.6a10.7 10.7 0 000-21.4z"/><path class="st0" d="M288 234.7h-21.3a10.7 10.7 0 000 21.3H288a10.7 10.7 0 000-21.3zM394.7 277.3h-32v-64h32a10.7 10.7 0 000-21.3H352c-5.9 0-10.7 4.8-10.7 10.7V288c0 5.9 4.8 10.7 10.7 10.7h42.7a10.7 10.7 0 000-21.4z"/><path class="st0" d="M373.3 234.7H352a10.7 10.7 0 000 21.3h21.3a10.7 10.7 0 000-21.3z"/></svg>