<svg version="1.1" id="Capa_1" xmlns="http://www.w3.org/2000/svg" x="0" y="0" viewBox="0 0 512 512" xml:space="preserve"><style>.st0{fill:#fff}</style><path class="st0" d="M464 0H48C21 0 0 21 0 48v416c0 27 21 48 48 48h416c27 0 48-21 48-48V48c0-27-21-48-48-48zm16 464c0 9-7 16-16 16H48c-9 0-16-7-16-16V48c0-9 7-16 16-16h416c9 0 16 7 16 16v416z"/><path class="st0" d="M64 64h32v32H64zM416 64h32v32h-32zM416 416h32v32h-32zM64 416h32v32H64zM208 240h-64v-64h-32v160h32v-64h64v64h32V176h-32zM384 272v-32a64 64 0 00-128 0v32a64 64 0 0092 57c6 5 13 7 20 7h32v-32h-25c6-10 9-21 9-32zm-32 0a32 32 0 01-64 0v-32a32 32 0 0164 0v32z"/></svg>