<?xml version="1.0" standalone="no"?>
<!DOCTYPE svg PUBLIC "-//W3C//DTD SVG 1.1//EN" "http://www.w3.org/Graphics/SVG/1.1/DTD/svg11.dtd" >
<svg xmlns="http://www.w3.org/2000/svg" xmlns:xlink="http://www.w3.org/1999/xlink" version="1.1">
<metadata></metadata>
<defs>
<font id="matrixbookmedium" horiz-adv-x="668" >
<font-face units-per-em="1000" ascent="800" descent="-200" />
<missing-glyph horiz-adv-x="202" />
<glyph horiz-adv-x="0" />
<glyph unicode="&#xd;" horiz-adv-x="500" />
<glyph unicode=" "  horiz-adv-x="202" />
<glyph unicode="&#x09;" horiz-adv-x="202" />
<glyph unicode="&#xa0;" horiz-adv-x="202" />
<glyph unicode="!" horiz-adv-x="308" d="M203 748h-98l25 -598h48zM199 35q0 18 -13.5 31.5t-31.5 13.5t-31.5 -13.5t-13.5 -31.5t13.5 -31.5t31.5 -13.5t31.5 13.5t13.5 31.5z" />
<glyph unicode="&#x22;" horiz-adv-x="360" d="M295 700q4 20 -10 36.5t-35 16.5t-35 -16.5t-10 -36.5l45 -202zM155 700q4 20 -10 36.5t-35 16.5t-35 -16.5t-10 -36.5l45 -202z" />
<glyph unicode="#" horiz-adv-x="471" d="M161 213h103l-28 -220h53l28 220h83l7 53h-83l22 175h83l7 53h-83l28 220h-53l-28 -220h-103l28 220h-53l-28 -220h-73l-7 -53h73l-22 -175h-73l-7 -53h73l-28 -220h53zM190 441h103l-22 -175h-103z" />
<glyph unicode="$" horiz-adv-x="430" d="M248 518v165h-53v-162q-24 -3 -48 -13t-43.5 -28t-31.5 -43.5t-12 -59.5q0 -30 17.5 -58.5t59.5 -53.5l140 -83q19 -11 28.5 -30t9.5 -37q0 -19 -8.5 -35t-21.5 -27.5t-28.5 -17.5t-30.5 -6q-17 0 -29.5 4.5t-26.5 18.5l-55 55l-79 -79l137 -34q8 -2 22 -4v-165h53v165 q33 4 59 19t43.5 36.5t27 48t9.5 53.5q0 32 -16.5 58.5t-54.5 49.5l-135 83q-23 15 -32 36t-9 38q0 14 6.5 26t17.5 21t25.5 14.5t30.5 5.5q26 0 46 -20l53 -53l73 73l-122 33q-5 2 -10.5 3t-11.5 3z" />
<glyph unicode="%" horiz-adv-x="548" d="M463 609v99h-300q-30 0 -52.5 -12t-38.5 -31.5t-24 -44.5t-8 -51q0 -27 8.5 -52t24 -44.5t37.5 -31t49 -11.5t49 11.5t37.5 31t24 44.5t8.5 52q0 26 -8.5 52t-29.5 49h193l-348 -566v-104h38v54zM508 139q0 27 -8.5 52t-24 44.5t-37.5 31t-49 11.5t-49 -11.5t-37.5 -31 t-24 -44.5t-8.5 -52t8.5 -52t24 -44.5t37.5 -31t49 -11.5t49 11.5t37.5 31t24 44.5t8.5 52zM217 569q0 -18 -3 -36t-10 -33t-18 -24t-27 -9t-27 9t-18 24t-10 33t-3 36t3 36t10 33t18 24t27 9t27 -9t18 -24t10 -33t3 -36zM447 139q0 -18 -3 -36t-10 -33t-18 -24t-27 -9 t-27 9t-18 24t-10 33t-3 36t3 36t10 33t18 24t27 9t27 -9t18 -24t10 -33t3 -36z" />
<glyph unicode="&#x26;" horiz-adv-x="603" d="M554 387h-129v-308q-26 -23 -54.5 -33t-66.5 -10q-33 0 -62.5 11t-51.5 31.5t-34.5 49t-12.5 64.5q0 35 12 66t32.5 54.5t49 37.5t61.5 15v22q-28 5 -50 22t-36 40t-21.5 48t-7.5 46q0 58 30.5 96t85.5 38q23 0 42.5 -9t34.5 -24l92 -92v122q-44 25 -81.5 35.5 t-82.5 10.5q-37 0 -73.5 -10.5t-66 -32t-48 -54.5t-18.5 -78q0 -57 26.5 -100t61.5 -66q-27 -10 -51 -28.5t-42 -44t-28.5 -56t-10.5 -64.5q0 -45 19 -81.5t52.5 -62.5t79 -40t99.5 -14q45 0 76 4.5t53 12.5t38 17l32 18v296z" />
<glyph unicode="'" horiz-adv-x="220" d="M155 700q4 20 -10 36.5t-35 16.5t-35 -16.5t-10 -36.5l45 -202z" />
<glyph unicode="(" horiz-adv-x="310" d="M299 -86q-24 27 -52 65t-52.5 89.5t-40.5 119.5t-16 156t16 156t40.5 119.5t52.5 89.5t52 65l-13 27q-54 -45 -97 -92t-73 -101t-45.5 -118.5t-15.5 -145.5t15.5 -145.5t45.5 -118.5t73 -101t97 -92z" />
<glyph unicode=")" horiz-adv-x="310" d="M254 344q0 81 -15.5 145.5t-45.5 118.5t-73 101t-97 92l-13 -27q24 -27 52 -65t52.5 -89.5t40.5 -119.5t16 -156t-16 -156t-40.5 -119.5t-52.5 -89.5t-52 -65l13 -27q54 45 97 92t73 101t45.5 118.5t15.5 145.5z" />
<glyph unicode="*" horiz-adv-x="372" d="M326 624l-33 53l-88 -68l12 112h-62l13 -112l-89 68l-32 -53l105 -45l-105 -44l33 -54l90 69l-15 -113h62l-13 113l88 -69l33 54l-104 44z" />
<glyph unicode="+" horiz-adv-x="398" d="M348 275v53h-123v122h-53v-122h-122v-53h122v-123h53v123h123z" />
<glyph unicode="," horiz-adv-x="230" d="M158 17q4 10 3 21t-7 20.5t-16 15.5t-23 6q-17 0 -30.5 -13.5t-13.5 -31.5v-211z" />
<glyph unicode="-" horiz-adv-x="358" d="M303 270v63h-248v-63h248z" />
<glyph unicode="." horiz-adv-x="230" d="M165 40q0 20 -15 35t-35 15t-35 -15t-15 -35t15 -35t35 -15t35 15t15 35z" />
<glyph unicode="/" horiz-adv-x="407" d="M377 708h-44l-303 -708h44z" />
<glyph unicode="0" horiz-adv-x="568" d="M518 254q0 52 -17 100.5t-47.5 85.5t-73.5 59t-96 22q-52 0 -95.5 -22t-74 -59t-47.5 -85.5t-17 -100.5t17 -100.5t47.5 -85.5t74 -59t95.5 -22q53 0 96 22t73.5 59t47.5 85.5t17 100.5zM425 254q0 -40 -7.5 -81t-24 -73t-43.5 -52.5t-66 -20.5t-66 20.5t-43.5 52.5 t-24 73t-7.5 81q0 41 7.5 81.5t24 72.5t43.5 52.5t66 20.5t66 -20.5t43.5 -52.5t24 -72.5t7.5 -81.5z" />
<glyph unicode="1" horiz-adv-x="318" d="M249 0l-51 51v396l51 51h-180l51 -51v-396l-51 -51h180z" />
<glyph unicode="2" horiz-adv-x="435" d="M389 0v119l-51 -51h-232l196 178q34 31 54 67t20 71t-12 60.5t-32 42.5t-46 25.5t-53 8.5q-41 0 -86.5 -22.5t-105.5 -75.5l20 -26q47 34 82.5 48.5t65.5 14.5q38 0 64 -23.5t26 -67.5q0 -29 -12.5 -57t-35.5 -50l-215 -211v-51h353z" />
<glyph unicode="3" horiz-adv-x="440" d="M252 211q20 9 41 24.5t38.5 37t29 47.5t11.5 56q0 39 -15 66.5t-39 45t-53.5 25.5t-58.5 8q-30 0 -57 -9t-50 -22.5t-42 -29.5t-32 -30l27 -29q27 23 58.5 44t71.5 21q48 0 78 -25t30 -72q0 -27 -14 -54.5t-40 -52t-63 -44t-84 -31.5v-32h61q27 0 55 -8.5t50 -24 t36 -38.5t14 -52q0 -46 -22 -81t-59 -59t-85 -36t-101 -12h-6v-44h6q90 0 157 24t111 60.5t65.5 80.5t21.5 84q0 23 -7.5 47.5t-24 46.5t-43.5 40t-66 28z" />
<glyph unicode="4" horiz-adv-x="490" d="M450 0v53h-75v468h-26l-327 -490v-31h275v-200h78v200h75zM297 53h-199l199 298v-298z" />
<glyph unicode="5" horiz-adv-x="455" d="M233 216q-25 0 -44 -2.5t-34 -6t-27 -7.5l-24 -8v232h262l36 84h-341v-386q2 1 16.5 7t44 12.5t65.5 6.5q67 0 103.5 -30.5t36.5 -85.5q0 -32 -19 -66t-53 -62t-82 -45.5t-107 -17.5h-15v-41h15q68 0 130.5 19t110 53t76 81.5t28.5 104.5q0 39 -16.5 69t-42 49.5 t-57 29.5t-62.5 10z" />
<glyph unicode="6" horiz-adv-x="550" d="M500 216q0 41 -12.5 80t-37.5 70t-62.5 50t-87.5 19q-40 0 -82 -15t-68 -46q3 17 10 45t20.5 61.5t34.5 68t50 64t68 50t88 25.5l-13 33q-87 -7 -153 -50.5t-110.5 -107.5t-67 -141t-22.5 -150q0 -74 18 -128t49.5 -89t73 -51.5t89.5 -16.5q44 0 83.5 18.5t68.5 49.5 t46 73t17 88zM412 214q0 -39 -9 -73t-25.5 -60t-40 -41t-52.5 -15q-37 0 -65 20t-46 53t-27 75.5t-9 87.5q0 2 0.5 12.5t1 19t0.5 9.5q9 21 24.5 37t33.5 27t36.5 16.5t33.5 5.5q44 0 72 -18t44 -44.5t22 -57t6 -54.5z" />
<glyph unicode="7" horiz-adv-x="445" d="M432 508h-405v-144l56 56h267l-251 -620h101v53z" />
<glyph unicode="8" horiz-adv-x="560" d="M188 375q-59 -23 -95.5 -73t-36.5 -112q0 -42 17.5 -78.5t48 -64.5t71.5 -44t87 -16q47 0 87.5 16t71 44t48 64.5t17.5 78.5q0 62 -36.5 112t-95.5 73q48 23 77.5 66t29.5 96q0 38 -15.5 71t-42.5 58.5t-63.5 40t-77.5 14.5t-77.5 -14.5t-63.5 -40t-42.5 -58.5t-15.5 -71 q0 -53 29.5 -96t77.5 -66zM281 683q24 0 44.5 -11t36.5 -30.5t25 -46t9 -58.5q0 -30 -9 -56t-25 -45.5t-36.5 -31t-44.5 -11.5t-44.5 11.5t-36.5 31t-25 45.5t-9 56q0 33 9 60t25 46t36.5 29.5t44.5 10.5zM280 355q29 0 54.5 -13t44 -35.5t29.5 -52.5t11 -64t-11 -64 t-29.5 -52.5t-44 -35.5t-54.5 -13t-54.5 13t-44 35.5t-29.5 52.5t-11 64t11 64t29.5 52.5t44 35.5t54.5 13z" />
<glyph unicode="9" horiz-adv-x="550" d="M50 292q0 -40 12.5 -79.5t37.5 -70.5t62.5 -50t87.5 -19q40 0 82 15t68 46q-2 -16 -9.5 -44t-21 -61t-34.5 -67t-50 -63t-68 -49t-88 -25l13 -33q87 7 153 49.5t110.5 106t67 139.5t22.5 149q0 74 -18 128t-49.5 89t-73 51.5t-89.5 16.5q-44 0 -83 -18.5t-68.5 -49.5 t-46.5 -72.5t-17 -88.5zM138 294q0 39 9 73t25.5 60t40 41t52.5 15q38 0 65.5 -20t45.5 -53t27 -75.5t9 -87.5q0 -2 -0.5 -12.5t-1 -19t-0.5 -9.5q-9 -21 -24.5 -37t-33.5 -27t-36.5 -16.5t-33.5 -5.5q-44 0 -72 18t-44 44.5t-22 57t-6 54.5z" />
<glyph unicode=":" horiz-adv-x="230" d="M165 440q0 20 -15 35t-35 15t-35 -15t-15 -35t15 -35t35 -15t35 15t15 35zM175 40q0 20 -15 35t-35 15t-35 -15t-15 -35t15 -35t35 -15t35 15t15 35z" />
<glyph unicode=";" horiz-adv-x="230" d="M165 440q0 20 -15 35t-35 15t-35 -15t-15 -35t15 -35t35 -15t35 15t15 35zM158 17q4 10 3 21t-7 20.5t-16 15.5t-23 6q-17 0 -30.5 -13.5t-13.5 -31.5v-211z" />
<glyph unicode="&#x3c;" horiz-adv-x="350" d="M275 149v60l-120 145l120 145v60l-200 -205z" />
<glyph unicode="=" horiz-adv-x="358" d="M303 353v53h-248v-53h248zM303 197v53h-248v-53h248z" />
<glyph unicode="&#x3e;" horiz-adv-x="350" d="M75 149l200 205l-200 205v-60l120 -145l-120 -145v-60z" />
<glyph unicode="?" horiz-adv-x="470" d="M435 544q0 47 -18 80.5t-48.5 55t-72 31.5t-89.5 10q-18 0 -32 -1.5t-31 -4.5l-140 -26l66 -99l62 67q14 7 30.5 11.5t34.5 4.5q36 0 64 -11.5t47.5 -30t29.5 -42.5t10 -49q0 -43 -16.5 -76t-49.5 -67l-106 -107v-140h38v82l159 160q29 29 45.5 66.5t16.5 85.5zM245 35 q0 18 -13.5 31.5t-31.5 13.5t-31.5 -13.5t-13.5 -31.5t13.5 -31.5t31.5 -13.5t31.5 13.5t13.5 31.5z" />
<glyph unicode="@" horiz-adv-x="833" d="M497 187q-4 -22 -14 -41t-24 -33t-30 -21.5t-31 -7.5q-24 0 -39.5 12.5t-23 34t-8 50.5t5.5 62t17.5 63.5t28.5 54t38.5 37t45.5 13.5q27 0 43.5 -9t24.5 -18zM588 84q-25 0 -34 15t-2 52l52 296l-65 -19q-18 10 -33 14t-38 4q-35 0 -68.5 -16t-61.5 -43.5t-48 -64.5 t-27 -79t-3 -79t18.5 -65t39.5 -44t60 -16q13 0 28.5 5t30.5 13t28.5 19.5t22.5 23.5q4 -20 23 -38.5t51 -18.5q35 0 71.5 22.5t66.5 60t49 87.5t19 104q0 66 -24 120t-66 92t-98.5 59t-121.5 21q-81 0 -152 -31t-124 -84t-84 -124t-31 -151q0 -72 28 -134.5t76.5 -108 t113.5 -71.5t140 -26q61 0 125.5 20.5t131.5 68.5l-12 20q-54 -34 -112 -52.5t-124 -18.5q-64 0 -118 21.5t-93 61t-61 96t-22 126.5q0 68 26 130t71 109.5t106 76t132 28.5q51 0 97.5 -16.5t82 -48.5t56.5 -79t21 -107q0 -47 -15 -89t-36.5 -73.5t-46.5 -50t-46 -18.5z" />
<glyph unicode="A" horiz-adv-x="605" d="M600 0l-57 57l-220 651h-36l-225 -651l-57 -57h170l-55 55l51 150h235l49 -150l-55 -55h200zM389 258h-199l102 297z" />
<glyph unicode="B" horiz-adv-x="558" d="M518 191q0 32 -12 61t-33.5 52.5t-50.5 40t-62 21.5q26 9 48.5 26.5t39 40t26 49t9.5 52.5q0 52 -18.5 85.5t-49 53t-70 27.5t-81.5 8h-220l56 -56v-596l-56 -56h245q42 0 83.5 10.5t73.5 33.5t52 59t20 88zM400 529q0 -33 -10.5 -59.5t-29 -46t-43.5 -30t-53 -10.5h-86 v272h86q28 0 53 -7.5t43.5 -23t29 -39t10.5 -56.5zM435 191q0 -29 -11 -54t-30.5 -44t-46 -29.5t-58.5 -10.5h-111v277h111q30 0 56.5 -10.5t46.5 -29t31.5 -44t11.5 -55.5z" />
<glyph unicode="C" horiz-adv-x="548" d="M498 32v122l-77 -77q-19 -19 -39.5 -26.5t-47.5 -7.5q-49 0 -85 28.5t-59.5 73.5t-35 100t-11.5 109q0 53 10.5 107.5t34 98.5t59.5 72t87 28q27 0 47.5 -7.5t39.5 -26.5l77 -77v127q-31 19 -69.5 30.5t-78.5 11.5q-75 0 -131 -31.5t-93.5 -83t-56.5 -117t-19 -132.5 t18.5 -132.5t54.5 -117t89 -83t122 -31.5q58 0 96 11.5t68 30.5z" />
<glyph unicode="D" horiz-adv-x="648" d="M598 354q0 66 -18.5 129.5t-55.5 113.5t-92 80.5t-128 30.5h-260l56 -56v-596l-56 -56h260q73 0 128 30.5t92 80.5t55.5 113.5t18.5 129.5zM505 354q0 -55 -13 -108.5t-40.5 -96.5t-70 -69.5t-102.5 -26.5h-101v602h101q60 0 102.5 -26.5t70 -69t40.5 -96.5t13 -109z" />
<glyph unicode="E" horiz-adv-x="518" d="M468 0v129l-76 -76h-214v297h159l56 -56v165l-56 -56h-159v252h214l76 -76v129h-424l56 -56v-596l-56 -56h424z" />
<glyph unicode="F" horiz-adv-x="500" d="M468 579v129h-424l56 -56v-596l-56 -56h190l-56 56v299h159l56 -56v165l-56 -56h-159v247h214z" />
<glyph unicode="G" horiz-adv-x="673" d="M629 378h-190l56 -56v-228q-6 -6 -15.5 -15t-23.5 -17t-33 -13.5t-44 -5.5q-59 0 -103 27t-73.5 71t-44.5 100t-15 113t17.5 113t49 100t75 71t94.5 27q27 0 47.5 -7.5t39.5 -26.5l77 -77v123q-16 8 -32 15.5t-35.5 13t-43 9t-53.5 3.5q-72 0 -132.5 -30t-104 -80.5 t-68 -116t-24.5 -137.5q0 -70 24.5 -135.5t68 -116.5t104 -81.5t132.5 -30.5q41 0 71 4.5t52.5 12t39.5 17t31 18.5v280z" />
<glyph unicode="H" horiz-adv-x="653" d="M609 0l-56 56v596l56 56h-190l56 -56v-244h-297v244l56 56h-190l56 -56v-596l-56 -56h190l-56 56v299h297v-299l-56 -56h190z" />
<glyph unicode="I" horiz-adv-x="318" d="M254 0l-56 56v596l56 56h-190l56 -56v-596l-56 -56h190z" />
<glyph unicode="J" horiz-adv-x="343" d="M279 708h-190l56 -56v-738q0 -29 -15.5 -48t-38.5 -28l-57 57l-73 -95h128q27 0 51.5 12t43 33t29 50t10.5 64v693z" />
<glyph unicode="K" horiz-adv-x="590" d="M578 0l-323 399l309 309h-165l47 -46l-268 -268v258l56 56h-190l56 -56v-596l-56 -56h190l-56 56v320l257 -317v-59h143z" />
<glyph unicode="L" horiz-adv-x="450" d="M423 0v134l-76 -76h-169v594l56 56h-190l56 -56v-596l-56 -56h379z" />
<glyph unicode="M" horiz-adv-x="798" d="M754 0l-56 56v596l56 56h-132l-213 -362l-213 362h-152l56 -56v-596l-56 -56h175l-56 56v539l231 -388l226 383v-534l-56 -56h190z" />
<glyph unicode="N" d="M629 708h-185l61 -61v-450l-319 511h-147l61 -61v-586l-61 -61h185l-61 61v530l405 -645v701z" />
<glyph unicode="O" d="M618 354q0 68 -19 134t-55 118t-89 84.5t-121 32.5t-121 -32.5t-89 -84.5t-55 -118t-19 -134q0 -67 19 -133.5t55 -118.5t89 -84.5t121 -32.5t121 32.5t89 84.5t55 118.5t19 133.5zM525 354q0 -55 -10 -111t-32.5 -101.5t-59 -74.5t-89.5 -29t-89.5 29t-59 74.5 t-32.5 101.5t-10 111t10 111t32.5 101.5t59 74.5t89.5 29t89.5 -29t59 -74.5t32.5 -101.5t10 -111z" />
<glyph unicode="P" horiz-adv-x="570" d="M543 506q0 48 -21 85.5t-56.5 63.5t-81 39.5t-95.5 13.5h-245l56 -56v-596l-56 -56h190l-56 56v248h111q50 0 95.5 13.5t81 39.5t56.5 63.5t21 85.5zM450 506q0 -32 -12.5 -59t-34 -47t-51 -31.5t-63.5 -11.5h-111v298h111q34 0 63.5 -11.5t51 -31.5t34 -47t12.5 -59z " />
<glyph unicode="Q" d="M525 354q0 -55 -10 -111t-32.5 -101.5t-59 -74.5t-89.5 -29t-89.5 29t-59 74.5t-32.5 101.5t-10 111t10 111t32.5 101.5t59 74.5t89.5 29t89.5 -29t59 -74.5t32.5 -101.5t10 -111zM464 23q38 24 66.5 60.5t48 80t29.5 92.5t10 98q0 68 -19 134t-55 118t-89 84.5 t-121 32.5t-121 -32.5t-89 -84.5t-55 -118t-19 -134q0 -67 19 -133.5t55 -118.5t89 -84.5t121 -32.5l217 -41l79 79h-166z" />
<glyph unicode="R" horiz-adv-x="580" d="M574 0l-56 56l-158 291q29 11 53 29t42 41t28 49t10 51q0 45 -19.5 80.5t-51.5 60t-73 37.5t-85 13h-220l56 -56v-596l-56 -56h190l-56 56v274h106l172 -330h118zM400 519q0 -29 -11 -54t-29.5 -43t-43 -28.5t-52.5 -10.5h-86v272h86q29 0 53.5 -10.5t43 -29t29 -43 t10.5 -53.5z" />
<glyph unicode="S" horiz-adv-x="469" d="M418 197q0 52 -20.5 85t-45.5 50l-145 105q-38 28 -58 61t-20 60q0 28 10.5 47t26.5 31t33.5 17.5t32.5 5.5q14 0 25 -2.5t20 -6.5l63 -67l66 99l-116 22q-8 2 -26.5 4.5t-32.5 2.5q-46 0 -80 -17.5t-56 -43.5t-33 -56.5t-11 -56.5q0 -40 22 -83t70 -78l145 -105 q29 -21 39.5 -49t10.5 -54q0 -22 -7 -44.5t-21.5 -40.5t-36.5 -29t-52 -11q-15 0 -27 2.5t-22 7.5l-68 79l-61 -111l136 -26q27 -4 42 -4q32 0 66.5 13t63.5 39t48 64.5t19 89.5z" />
<glyph unicode="T" horiz-adv-x="518" d="M508 579v129h-498v-129l76 76h134v-599l-56 -56h190l-56 56v599h134z" />
<glyph unicode="U" horiz-adv-x="638" d="M604 708h-185l61 -61v-448q0 -36 -11.5 -65t-31 -49t-46.5 -31t-57 -11q-31 0 -59.5 11t-50 31t-34 49t-12.5 65v448l61 61h-205l61 -61v-448q0 -49 17 -89t47 -67.5t70 -42.5t85 -15q43 0 84 14t73.5 41t52 67t19.5 92v448z" />
<glyph unicode="V" horiz-adv-x="565" d="M560 708h-170l55 -55l-150 -490l-145 490l55 55h-200l57 -57l200 -651h36l205 651z" />
<glyph unicode="W" horiz-adv-x="920" d="M915 708h-170l55 -55l-150 -490l-145 490l55 55h-200l56 -56l15 -47l-136 -442l-145 490l55 55h-200l57 -57l200 -651h36l161 512l158 -512h36l205 651z" />
<glyph unicode="X" horiz-adv-x="595" d="M580 0l-57 57l-184 313l178 280l58 58h-180l55 -55l-144 -226l-132 227v54h-154l58 -58l178 -304l-183 -288l-58 -58h180l-55 55l148 235l138 -236v-54h154z" />
<glyph unicode="Y" horiz-adv-x="565" d="M560 708h-175l55 -55l-149 -265l-141 265l55 55h-200l57 -57l179 -322v-273l-56 -56h190l-56 56v273l183 321z" />
<glyph unicode="Z" horiz-adv-x="498" d="M456 708h-406v-129l76 76h221l-305 -655h406v129l-76 -76h-221z" />
<glyph unicode="[" horiz-adv-x="245" d="M213 -95v28h-75v822h75v28h-153v-878h153z" />
<glyph unicode="\" horiz-adv-x="407" d="M29 708l303 -708h44l-303 708h-44z" />
<glyph unicode="]" horiz-adv-x="245" d="M185 -95v878h-153v-28h75v-822h-75v-28h153z" />
<glyph unicode="^" horiz-adv-x="458" d="M408 547l-179 178l-179 -178h24l155 88l155 -88h24z" />
<glyph unicode="_" horiz-adv-x="475" d="M475 -53v53h-476v-53h476z" />
<glyph unicode="`" horiz-adv-x="475" d="M214 665l-112 112q-14 14 -24.5 21.5t-24.5 7.5q-15 0 -22 -10.5t-7 -21.5q0 -14 9 -22.5t16 -11.5z" />
<glyph unicode="a" horiz-adv-x="498" d="M469 0l-51 51v331q0 33 -13.5 59t-36.5 44t-53.5 27t-65.5 9q-19 0 -39.5 -2.5t-40.5 -7.5t-37.5 -12t-31.5 -17v-120l87 87q14 14 28 21.5t34 7.5q36 0 63.5 -22.5t27.5 -68.5v-80h-111q-38 0 -72 -14t-60 -38t-41.5 -56.5t-15.5 -70.5q0 -62 28.5 -101t79.5 -39 q11 0 24 3.5t24.5 9t21 10.5t14.5 8l108 68v-87h129zM340 130l-118 -71q-11 -6 -24 -9.5t-22 -3.5q-18 0 -35.5 19t-17.5 63q0 31 10 57t27.5 44.5t41.5 29t52 10.5h86v-139z" />
<glyph unicode="b" horiz-adv-x="538" d="M498 254q0 47 -12.5 94.5t-38 86t-64 62.5t-91.5 24q-35 0 -72.5 -19t-66.5 -61v319l-126 -50l48 -48v-675l74 86q29 -45 67.5 -65.5t75.5 -20.5q53 0 91.5 24t64 62.5t38 86t12.5 94.5zM405 254q0 -36 -5.5 -73.5t-20 -68t-38.5 -50t-62 -19.5q-39 0 -71 22.5t-55 60.5 v256q23 38 55 60.5t71 22.5q38 0 62 -19.5t38.5 -50t20 -68t5.5 -73.5z" />
<glyph unicode="c" horiz-adv-x="453" d="M415 56l-26 26q-9 -9 -22 -17.5t-27.5 -15t-29 -10t-26.5 -3.5q-71 0 -111 59.5t-40 168.5q0 35 5 72.5t18 69t37 52t61 20.5q22 0 41 -8.5t31 -20.5l87 -87v117q-38 20 -75.5 31t-88.5 11q-50 0 -89 -23.5t-65.5 -61.5t-40.5 -85.5t-14 -96.5q0 -51 14.5 -99t42 -85.5 t67.5 -60t92 -22.5q51 0 88 15.5t71 53.5z" />
<glyph unicode="d" horiz-adv-x="543" d="M385 441q-29 42 -66.5 61t-72.5 19q-53 0 -91.5 -24t-64 -62.5t-38 -86t-12.5 -94.5t12.5 -94.5t38 -86t64 -62.5t91.5 -24q35 0 72.5 19t66.5 61v-67h129l-51 51v709l-126 -50l48 -48v-221zM133 254q0 36 5.5 73.5t20 68t39 50t61.5 19.5q39 0 71 -22.5t55 -60.5v-256 q-23 -38 -55 -60.5t-71 -22.5q-37 0 -61.5 19.5t-39 50t-20 68t-5.5 73.5z" />
<glyph unicode="e" horiz-adv-x="494" d="M440 263q13 53 5.5 100t-31.5 82t-63.5 55.5t-90.5 20.5q-55 0 -96 -23.5t-68.5 -61.5t-41.5 -86t-14 -98q0 -49 12.5 -96.5t39.5 -85t69.5 -60.5t102.5 -23q37 0 66 10t51.5 25t38 31.5t24.5 28.5l-25 25q-23 -29 -58.5 -49.5t-77.5 -20.5q-37 0 -62.5 14.5t-42.5 37 t-26.5 50t-14 52.5t-5.5 44.5t-1 27.5h309zM369 361q0 -19 -3 -33t-6 -22h-228q2 29 9 59.5t21.5 55.5t38 41t59.5 16q25 0 45 -9.5t34.5 -25.5t22 -37.5t7.5 -44.5z" />
<glyph unicode="f" horiz-adv-x="318" d="M358 750h-126q-26 0 -50 -11.5t-42 -32.5t-29 -50t-11 -65v-85l-61 -61h61v-394l-51 -51h180l-51 51v414h80v43h-80v130q0 27 15.5 46t38.5 28l52 -52z" />
<glyph unicode="g" horiz-adv-x="478" d="M449 508h-225q-35 0 -69 -10.5t-61 -30.5t-44 -48.5t-17 -64.5q0 -26 8.5 -47t21.5 -37t29 -27.5t31 -18.5v-227q47 12 93 14.5t82 -4.5t58 -24t22 -44q0 -23 -13.5 -40t-35.5 -28t-51 -17t-61 -6q-20 0 -38 3t-32 7l-59 59l-79 -79l109 -26q27 -7 51.5 -9.5t47.5 -2.5 q43 0 84 9t73.5 28t52 48t19.5 69t-22.5 68.5t-58.5 44.5t-81.5 20t-92.5 -4v120q8 -2 14 -2.5t19 -0.5q36 0 70.5 10.5t61.5 30t43.5 48t16.5 65.5q0 28 -9 48t-24 41zM333 354q0 -24 -8 -46t-22.5 -38.5t-34.5 -26.5t-44 -10q-23 0 -43 10t-34.5 27t-22.5 38.5t-8 45.5 t8 45.5t22.5 38.5t34.5 27t43 10q24 0 44 -10t34.5 -26.5t22.5 -38.5t8 -46z" />
<glyph unicode="h" horiz-adv-x="538" d="M509 0l-51 51v350q0 20 -7 41.5t-21.5 39t-36 28.5t-51.5 11q-26 0 -61.5 -14.5t-79.5 -57.5l-43 -43v355l-127 -55l49 -49v-606l-51 -51h180l-51 51v298l49 49q33 34 60.5 45.5t49.5 11.5q16 0 28 -7t19.5 -17.5t11.5 -24t4 -25.5v-381h129z" />
<glyph unicode="i" horiz-adv-x="268" d="M178 654q0 18 -13 31t-31 13t-31 -13t-13 -31t13 -31t31 -13t31 13t13 31zM224 0l-51 51v470l-127 -55l49 -49v-366l-51 -51h180z" />
<glyph unicode="j" horiz-adv-x="278" d="M203 654q0 18 -13 31t-31 13t-31 -13t-13 -31t13 -31t31 -13t31 13t13 31zM198 -41v562l-127 -55l49 -49v-505q0 -27 -15.5 -46t-38.5 -28l-52 52l-74 -90h126q26 0 49.5 11.5t42 32.5t29.5 50t11 65z" />
<glyph unicode="k" horiz-adv-x="493" d="M504 0l-274 274l234 234h-155l44 -44l-195 -195v491l-126 -50l48 -48v-611l-51 -51h180l-51 51v198l197 -197v-52h149z" />
<glyph unicode="l" horiz-adv-x="277" d="M229 0l-51 51v709l-126 -50l48 -48v-611l-51 -51h180z" />
<glyph unicode="m" horiz-adv-x="788" d="M759 0l-51 51v333q0 23 -3.5 47t-14 44t-30 33t-51.5 13q-29 0 -61 -17t-72 -57l-44 -44q0 21 -5 42t-16 38t-30 27.5t-47 10.5q-29 0 -61 -17t-72 -57l-43 -43v117l-127 -55l49 -49v-366l-51 -51h180l-51 51v296l49 49q29 29 51 44.5t46 15.5q26 0 38.5 -20.5 t12.5 -46.5v-389h129l-51 51v296l49 49q29 29 51 44.5t46 15.5q26 0 38.5 -20.5t12.5 -46.5v-389h129z" />
<glyph unicode="n" horiz-adv-x="563" d="M534 0l-51 51v346q0 20 -7.5 42t-23.5 40t-40.5 30t-59.5 12q-11 0 -26.5 -2.5t-35 -11t-42.5 -23.5t-47 -39l-43 -43v119l-127 -55l49 -49v-366l-51 -51h180l-51 51v294l49 49q38 39 69 50t52 11t35.5 -7.5t24 -19t13.5 -25t4 -26.5v-377h129z" />
<glyph unicode="o" horiz-adv-x="548" d="M508 254q0 52 -17 100.5t-47.5 85.5t-73.5 59t-96 22q-52 0 -95.5 -22t-74 -59t-47.5 -85.5t-17 -100.5t17 -100.5t47.5 -85.5t74 -59t95.5 -22q53 0 96 22t73.5 59t47.5 85.5t17 100.5zM415 254q0 -40 -7.5 -81t-24 -73t-43.5 -52.5t-66 -20.5t-66 20.5t-43.5 52.5 t-24 73t-7.5 81q0 41 7.5 81.5t24 72.5t43.5 52.5t66 20.5t66 -20.5t43.5 -52.5t24 -72.5t7.5 -81.5z" />
<glyph unicode="p" horiz-adv-x="543" d="M410 254q0 -36 -5.5 -73.5t-20 -68t-38.5 -50t-62 -19.5q-39 0 -71 22.5t-55 60.5v256q23 38 55 60.5t71 22.5q38 0 62 -19.5t38.5 -50t20 -68t5.5 -73.5zM80 412v-561l-51 -51h180l-51 51v216q29 -42 66.5 -61t72.5 -19q53 0 91.5 24t64 62.5t38 86t12.5 94.5 t-12.5 94.5t-38 86t-64 62.5t-91.5 24q-35 0 -72.5 -19t-66.5 -61v75l-127 -55z" />
<glyph unicode="q" horiz-adv-x="538" d="M133 254q0 36 5.5 73.5t20 68t39 50t61.5 19.5q39 0 71 -22.5t55 -60.5v-256q-23 -38 -55 -60.5t-71 -22.5q-37 0 -61.5 19.5t-39 50t-20 68t-5.5 73.5zM463 -149v670l-74 -86q-29 45 -67.5 65.5t-75.5 20.5q-53 0 -91.5 -24t-64 -62.5t-38 -86t-12.5 -94.5t12.5 -94.5 t38 -86t64 -62.5t91.5 -24q35 0 72.5 19t66.5 61v-216l-51 -51h180z" />
<glyph unicode="r" horiz-adv-x="385" d="M353 361v152q-9 4 -22 6t-20 2q-41 0 -67 -19t-43 -38l-43 -47v104l-127 -55l49 -49v-366l-51 -51h180l-51 51v303l96 106z" />
<glyph unicode="s" horiz-adv-x="417" d="M377 478l-122 33q-11 3 -25 6.5t-31 3.5q-25 0 -52.5 -8.5t-50 -26.5t-37 -45.5t-14.5 -64.5q0 -30 17.5 -58.5t59.5 -53.5l140 -83q19 -11 28.5 -30t9.5 -37q0 -19 -8.5 -35t-21.5 -27.5t-28.5 -17.5t-30.5 -6q-17 0 -29.5 4.5t-26.5 18.5l-55 55l-79 -79l137 -34 q21 -6 48 -6q39 0 70 13.5t52 36t32.5 51t11.5 58.5q0 32 -16.5 58.5t-54.5 49.5l-135 83q-23 15 -32 36t-9 38q0 14 6.5 26t17.5 21t25.5 14.5t30.5 5.5q26 0 46 -20l53 -53z" />
<glyph unicode="t" horiz-adv-x="343" d="M313 465v43h-120v126l-169 -169h91v-369q0 -46 26.5 -76t68.5 -30q19 0 35.5 6.5t29.5 16t21.5 21.5t12.5 23l-21 21q-2 -3 -6 -9.5t-11.5 -13.5t-19 -12t-28.5 -5q-14 0 -22 5t-8 422h120z" />
<glyph unicode="u" horiz-adv-x="538" d="M509 0l-51 51v470l-127 -55l49 -49v-258l-49 -49q-33 -34 -61.5 -49.5t-51.5 -15.5q-14 0 -25.5 6.5t-19 17t-11.5 23.5t-4 25v404l-127 -55l49 -49v-320q0 -20 8.5 -39.5t23 -35.5t34 -25.5t42.5 -9.5q35 0 70 14.5t79 57.5l43 43v-102h129z" />
<glyph unicode="v" horiz-adv-x="495" d="M494 508h-160l50 -50l-124 -318l-124 318l50 50h-185l52 -52l179 -456h31l179 456z" />
<glyph unicode="w" horiz-adv-x="720" d="M718 508h-160l50 -50l-99 -319l-99 319l50 50h-177l50 -50l-99 -319l-99 319l50 50h-183l52 -52l153 -456h31l122 362l122 -362h31l153 456z" />
<glyph unicode="x" horiz-adv-x="505" d="M494 0l-52 52l-150 216l145 188l52 52h-165l50 -50l-112 -146l-101 146l50 50h-195l52 -52l144 -209l-149 -195l-52 -52h165l-50 50l117 153l106 -153l-50 -50h195z" />
<glyph unicode="y" horiz-adv-x="495" d="M494 508h-160l50 -50l-129 -339l-119 339l50 50h-185l52 -52l159 -447l-61 -158l-79 -51h188l-50 50l232 606z" />
<glyph unicode="z" horiz-adv-x="408" d="M376 508h-336v-119l76 76h156l-240 -465h336v119l-76 -76h-156z" />
<glyph unicode="{" horiz-adv-x="320" d="M299 -86q-24 27 -38 52t-21.5 55t-9.5 68.5t-2 91.5q0 3 0.5 18t1 26.5t0.5 13.5l-95 105l95 105q0 2 -0.5 13.5t-1 26.5t-0.5 18q0 53 2 91.5t9.5 68.5t21.5 55t38 52l-13 27q-54 -45 -82 -82.5t-39 -72t-11.5 -68.5t-0.5 -74q0 -3 0.5 -12t1.5 -19t1.5 -19t0.5 -11 l-117 -99l117 -99q0 -2 -0.5 -11t-1.5 -19t-1.5 -19t-0.5 -12q0 -40 0.5 -74t11.5 -68.5t39 -72t82 -82.5z" />
<glyph unicode="|" horiz-adv-x="324" d="M192 -95v879h-55v-879h55z" />
<glyph unicode="}" horiz-adv-x="320" d="M280 344l-117 99q0 2 0.5 11t1.5 19t1.5 19t0.5 12q0 40 -0.5 74t-11.5 68.5t-39 72t-82 82.5l-13 -27q24 -27 38 -52t21.5 -55t9.5 -68.5t2 -91.5q0 -3 -0.5 -18t-1 -26.5t-0.5 -13.5l95 -105l-95 -105q0 -2 0.5 -13.5t1 -26.5t0.5 -18q0 -53 -2 -91.5t-9.5 -68.5 t-21.5 -55t-38 -52l13 -27q54 45 82 82.5t39 72t11.5 68.5t0.5 74q0 3 -0.5 12t-1.5 19t-1.5 19t-0.5 11z" />
<glyph unicode="~" horiz-adv-x="457" d="M379 351h-31q-1 -8 -6.5 -17.5t-13 -17t-16.5 -12.5t-18 -5q-14 0 -22.5 9t-18.5 19.5t-24 19t-40 8.5q-21 0 -40 -8.5t-33.5 -23t-24 -33.5t-13.5 -39h31q2 8 7 17.5t12.5 17t16.5 12.5t18 5q14 0 24 -8.5t21 -19t25 -19.5t36 -9q21 0 39.5 8.5t33 23t24 33.5t13.5 39z " />
<glyph unicode="&#xa1;" horiz-adv-x="308" d="M199 513q0 18 -13.5 31.5t-31.5 13.5t-31.5 -13.5t-13.5 -31.5t13.5 -31.5t31.5 -13.5t31.5 13.5t13.5 31.5zM203 -200l-25 598h-48l-25 -598h98z" />
<glyph unicode="&#xa2;" horiz-adv-x="460" d="M246 518q-48 -2 -85 -26t-62.5 -61t-39 -83t-13.5 -94q0 -49 13.5 -95t39 -82t62.5 -59.5t85 -26.5v-169h48v170q38 4 68 19.5t59 47.5l-26 26q-9 -9 -22 -17.5t-27.5 -15t-29 -10t-26.5 -3.5q-71 0 -111 58t-40 167q0 35 5 72.5t18 68t37 50.5t61 20q22 0 41 -8.5 t31 -20.5l87 -87v117q-31 16 -60 26t-65 14v164h-48v-162z" />
<glyph unicode="&#xa3;" horiz-adv-x="480" d="M121 398h-64v-49h64v-298l-51 -51h379v124l-66 -66h-184v291h141v49h-141v196q0 30 15 48.5t39 27.5l52 -52l74 90h-124q-27 0 -51.5 -12t-43 -33t-29 -50t-10.5 -64v-151z" />
<glyph unicode="&#xa4;" horiz-adv-x="520" d="M184 349q7 29 19.5 55t30.5 46t42.5 31.5t54.5 11.5q46 0 75 -26l67 -67v107q-19 14 -56.5 24t-72.5 10q-51 0 -91.5 -15.5t-70.5 -41.5t-50 -61t-30 -74h-67v-46h59q-1 -9 -1.5 -18t-0.5 -18t0.5 -17.5t1.5 -17.5h-59v-45h66q10 -39 29 -74.5t48 -62t67 -42t86 -15.5 q49 0 84.5 9.5t57.5 24.5v103l-67 -67q-29 -26 -75 -26q-30 0 -53.5 12t-42 32.5t-31 48t-20.5 57.5h221v45h-228q-1 9 -1.5 18t-0.5 17q0 9 0.5 18t1.5 18h228v46h-221z" />
<glyph unicode="&#xa5;" horiz-adv-x="503" d="M329 318l104 159l57 57h-172l52 -52l-116 -181l-109 181l52 52h-191l56 -56l101 -160h-129v-46h157l16 -25v-46h-173v-45h173v-103l-53 -53h182l-53 53v103h171v45h-171v46l16 25h155v46h-125z" />
<glyph unicode="&#xa6;" horiz-adv-x="324" d="M192 424v360h-55v-360h55zM192 -95v360h-55v-360h55z" />
<glyph unicode="&#xa7;" horiz-adv-x="443" d="M203 380l85 -56q24 -16 34 -39.5t10 -45.5q0 -40 -26 -71t-67 -36l-85 56q-24 16 -34 39.5t-10 45.5q0 40 26 71t67 36zM295 96q47 21 77.5 65t30.5 103q0 39 -15.5 69t-43.5 47l-150 100q-31 21 -45 48t-14 49q0 21 8.5 37t22 27t29.5 16.5t31 5.5q14 0 24 -3.5t17 -6.5 l63 -67l69 88l-131 30q-12 2 -22.5 4t-22.5 2q-36 0 -66.5 -13.5t-53 -35.5t-35 -51t-12.5 -61q0 -30 18 -63.5t61 -61.5l12 -8q-47 -21 -77.5 -65t-30.5 -103q0 -39 15.5 -68.5t43.5 -47.5l150 -100q32 -21 45.5 -48t13.5 -49q0 -21 -8.5 -37t-22 -27t-29.5 -16.5t-31 -5.5 q-14 0 -25 4t-16 6l-63 67l-69 -88l131 -30q12 -3 22.5 -4.5t22.5 -1.5q36 0 66.5 13.5t53 35.5t35 51t12.5 61q0 30 -18 63.5t-61 61.5z" />
<glyph unicode="&#xa8;" horiz-adv-x="362" d="M286 746q0 17 -12.5 29.5t-29.5 12.5t-29.5 -12.5t-12.5 -29.5t12.5 -29.5t29.5 -12.5t29.5 12.5t12.5 29.5zM120 747q0 17 -12.5 29.5t-29.5 12.5t-29.5 -12.5t-12.5 -29.5t12.5 -29.5t29.5 -12.5t29.5 12.5t12.5 29.5z" />
<glyph unicode="&#xa9;" horiz-adv-x="799" d="M768 354q0 76 -29 143t-79.5 117t-117.5 79t-143 29t-143 -29t-117 -79t-79 -117t-29 -143t29 -143t79 -117t117 -79t143 -29t143 29t117.5 79t79.5 117t29 143zM723 354q0 -67 -25.5 -126t-69.5 -102.5t-103 -69t-126 -25.5t-126 25.5t-102.5 69t-69 102.5t-25.5 126 t25.5 126t69 103t102.5 69.5t126 25.5t126 -25.5t103 -69.5t69.5 -103t25.5 -126zM526 546q-15 11 -45 19t-58 8q-51 0 -90 -19t-64.5 -50t-38.5 -70.5t-13 -79.5t13 -79.5t37.5 -70.5t61 -50t83.5 -19q39 0 68 7.5t46 19.5v86l-54 -53q-22 -21 -60 -21q-31 0 -54.5 16.5 t-39 42t-23 58t-7.5 63.5t7 62.5t22 57t38.5 41.5t56.5 16q18 0 33.5 -5t26.5 -16l54 -54v90z" />
<glyph unicode="&#xaa;" horiz-adv-x="399" d="M262 337h103l-41 41v244q0 20 -10 37.5t-27 30.5t-39.5 20.5t-48.5 7.5q-28 0 -59 -7.5t-51 -22.5v-94l68 67q10 9 19.5 14.5t22.5 5.5q25 0 44 -15.5t19 -39.5v-62h-77q-28 0 -53.5 -10t-44.5 -28t-30 -42t-11 -52q0 -46 21.5 -75t59.5 -29q17 0 35.5 9.5t26.5 14.5 l73 45v-60zM262 531v-95l-84 -51q-6 -4 -15.5 -6.5t-15.5 -2.5q-13 0 -24 13t-11 43q0 44 26 71.5t65 27.5h59z" />
<glyph unicode="&#xab;" horiz-adv-x="410" d="M364 149v20l-75 135l75 135v20l-150 -155zM228 133v22l-83 149l83 149v22l-165 -171z" />
<glyph unicode="&#xac;" horiz-adv-x="0" />
<glyph unicode="&#xae;" horiz-adv-x="556" d="M526 460q0 51 -19.5 96t-53.5 79t-79 53.5t-96 19.5t-96.5 -19.5t-79 -53.5t-53 -79t-19.5 -96t19.5 -96.5t53 -79t79 -53t96.5 -19.5t96 19.5t79 53t53.5 79t19.5 96.5zM495 460q0 -45 -17 -85t-46.5 -69.5t-69 -46.5t-84.5 -17t-85 17t-69.5 46.5t-46.5 69.5t-17 85 t17 84.5t46.5 69t69.5 46.5t85 17t84.5 -17t69 -46.5t46.5 -69t17 -84.5zM266 322l-28 28v99h42l75 -127h57l-28 29l-65 106q25 8 40.5 26.5t15.5 38.5q0 18 -8.5 32.5t-23 24.5t-32.5 15.5t-38 5.5h-102l28 -27v-223l-28 -28h95zM238 475v100h35q24 0 40.5 -15.5 t16.5 -36.5q0 -20 -17 -34t-40 -14h-35z" />
<glyph unicode="&#xaf;" horiz-adv-x="300" d="M234 745v58h-208v-58h208z" />
<glyph unicode="&#xb0;" horiz-adv-x="284" d="M250 609q0 22 -8.5 41.5t-23.5 34.5t-34.5 23.5t-41.5 8.5t-41.5 -8.5t-34.5 -23.5t-23.5 -34.5t-8.5 -41.5t8.5 -41.5t23.5 -34.5t34.5 -23.5t41.5 -8.5t41.5 8.5t34.5 23.5t23.5 34.5t8.5 41.5zM202 609q0 -25 -18 -42.5t-42 -17.5q-25 0 -42.5 17.5t-17.5 42.5 q0 24 17.5 42t42.5 18q24 0 42 -18t18 -42z" />
<glyph unicode="&#xb1;" horiz-adv-x="0" />
<glyph unicode="&#xb2;" horiz-adv-x="336" d="M179 716q-40 0 -78.5 -27t-65.5 -71l25 -20q23 31 50.5 52t59.5 21q26 0 43 -16.5t17 -41.5q0 -23 -14.5 -44.5t-28.5 -37.5l-159 -187v-33h268v87l-40 -36h-167l147 161q19 20 34.5 46t15.5 57q0 44 -31.5 67t-75.5 23z" />
<glyph unicode="&#xb3;" horiz-adv-x="336" d="M276 441q0 26 -18 51.5t-62 39.5q12 6 23.5 15.5t21.5 21.5t16 26.5t6 30.5q0 23 -9 39.5t-24 27t-34.5 15.5t-40.5 5q-38 0 -69.5 -18t-55.5 -44l22 -22q20 17 45 31.5t49 14.5q29 0 45 -16.5t16 -37.5q0 -28 -31.5 -57.5t-91.5 -43.5v-25h42q17 0 33 -4.5t28.5 -13 t20.5 -21t8 -27.5q0 -49 -46.5 -76t-125.5 -27h-16v-32h16q64 0 108.5 14.5t72 36t39.5 47.5t12 49z" />
<glyph unicode="&#xb4;" horiz-adv-x="262" d="M198 774q0 11 -7 21.5t-22 10.5q-14 0 -24.5 -7.5t-24.5 -21.5l-112 -112l165 75q7 3 16 11.5t9 22.5z" />
<glyph unicode="&#xb5;" horiz-adv-x="538" d="M509 0l-51 51v465l-127 -55l49 -49v-261l-49 -49q-33 -34 -61.5 -49.5t-51.5 -15.5q-14 0 -25.5 7t-19 17t-11.5 20.5t-4 17.5v417l-127 -55l49 -49v-612h129l-51 51v133q22 -5 30 -5q35 0 70 14.5t79 57.5l43 43v-94h129z" />
<glyph unicode="&#xb6;" horiz-adv-x="530" d="M480 -200l-56 56v796l56 56h-250q-41 0 -77 -16t-63 -43t-43 -63t-16 -77q0 -40 15.5 -76.5t42 -63.5t62 -43t75.5 -16v-454l-56 -56h114v865h82v-865h114z" />
<glyph unicode="&#xb7;" horiz-adv-x="230" d="M165 318q0 20 -15 35t-35 15t-35 -15t-15 -35t15 -35t35 -15t35 15t15 35z" />
<glyph unicode="&#xb8;" horiz-adv-x="252" d="M219 -106q0 30 -23 48t-52 21l61 60h-47l-108 -108h46q19 0 33.5 -11.5t14.5 -29.5q0 -20 -14.5 -30.5t-34.5 -10.5h-19v-28h19q22 0 44 5.5t40 17t29 28t11 38.5z" />
<glyph unicode="&#xb9;" horiz-adv-x="256" d="M64 311h130l-38 34v372l-87 -31l32 -31v-310z" />
<glyph unicode="&#xba;" horiz-adv-x="435" d="M217 328q39 0 70.5 16t54 43t35 62.5t12.5 73.5t-12.5 73.5t-35 62.5t-54 43t-70.5 16t-70.5 -16t-54 -43t-34.5 -62.5t-12 -73.5t12 -73.5t34.5 -62.5t54 -43t70.5 -16zM217 683q27 0 46 -14.5t31 -37t17 -51t5 -57.5q0 -28 -5 -57t-17 -52t-31 -37.5t-46 -14.5 t-46 14.5t-30.5 37.5t-16.5 52t-5 57q0 29 5 57.5t16.5 51t30.5 37t46 14.5z" />
<glyph unicode="&#xbb;" horiz-adv-x="410" d="M347 304l-165 171v-22l83 -149l-83 -149v-22zM196 304l-150 155v-20l75 -135l-75 -135v-20z" />
<glyph unicode="&#xbc;" horiz-adv-x="753" d="M64 311h130l-38 34v372l-87 -31l32 -31v-310zM510 708h-44l-303 -708h44zM543 0h130l-38 34v65h45v37h-45v267h-21l-216 -283v-21h183v-65zM581 301v-165h-126z" />
<glyph unicode="&#xbd;" horiz-adv-x="733" d="M64 311h130l-38 34v372l-87 -31l32 -31v-310zM510 708h-44l-303 -708h44zM566 405q-40 0 -78.5 -27t-65.5 -71l25 -20q23 31 50.5 52t59.5 21q26 0 43 -16.5t17 -41.5q0 -23 -14.5 -44.5t-28.5 -37.5l-159 -187v-33h268v87l-40 -36h-167l147 161q19 20 34.5 46t15.5 57 q0 44 -31.5 67t-75.5 23z" />
<glyph unicode="&#xbe;" horiz-adv-x="763" d="M276 441q0 26 -18 51.5t-62 39.5q12 6 23.5 15.5t21.5 21.5t16 26.5t6 30.5q0 23 -9 39.5t-24 27t-34.5 15.5t-40.5 5q-38 0 -69.5 -18t-55.5 -44l22 -22q20 17 45 31.5t49 14.5q29 0 45 -16.5t16 -37.5q0 -28 -31.5 -57.5t-91.5 -43.5v-25h42q17 0 33 -4.5t28.5 -13 t20.5 -21t8 -27.5q0 -49 -46.5 -76t-125.5 -27h-16v-32h16q64 0 108.5 14.5t72 36t39.5 47.5t12 49zM550 708h-44l-303 -708h44zM563 0h130l-38 34v65h45v37h-45v267h-21l-216 -283v-21h183v-65zM601 301v-165h-126z" />
<glyph unicode="&#xbf;" horiz-adv-x="470" d="M225 521q0 -18 13.5 -31.5t31.5 -13.5t31.5 13.5t13.5 31.5t-13.5 31.5t-31.5 13.5t-31.5 -13.5t-13.5 -31.5zM35 12q0 -47 18 -80.5t48.5 -55t72 -31.5t89.5 -10q18 0 32 1.5t31 4.5l140 26l-66 99l-62 -67q-14 -7 -30.5 -11.5t-34.5 -4.5q-36 0 -64 11.5t-47.5 30 t-29.5 42.5t-10 49q0 43 16.5 76t49.5 67l106 107v140h-38v-82l-159 -160q-29 -29 -45.5 -66.5t-16.5 -85.5z" />
<glyph unicode="&#xc0;" horiz-adv-x="605" d="M600 0l-57 57l-220 651h-36l-225 -651l-57 -57h170l-55 55l51 150h235l49 -150l-55 -55h200zM389 258h-199l102 297zM364 765l-112 112q-14 14 -24.5 21.5t-24.5 7.5q-15 0 -22 -10.5t-7 -21.5q0 -14 9 -22.5t16 -11.5z" />
<glyph unicode="&#xc1;" horiz-adv-x="605" d="M600 0l-57 57l-220 651h-36l-225 -651l-57 -57h170l-55 55l51 150h235l49 -150l-55 -55h200zM389 258h-199l102 297zM413 874q0 11 -7 21.5t-22 10.5q-14 0 -24.5 -7.5t-24.5 -21.5l-112 -112l165 75q7 3 16 11.5t9 22.5z" />
<glyph unicode="&#xc2;" horiz-adv-x="605" d="M600 0l-57 57l-220 651h-36l-225 -651l-57 -57h170l-55 55l51 150h235l49 -150l-55 -55h200zM389 258h-199l102 297zM453 776l-149 149l-149 -149h20l129 74l129 -74h20z" />
<glyph unicode="&#xc3;" horiz-adv-x="605" d="M600 0l-57 57l-220 651h-36l-225 -651l-57 -57h170l-55 55l51 150h235l49 -150l-55 -55h200zM389 258h-199l102 297zM439 865h-27q-4 -15 -20 -31t-33 -16q-12 0 -19 8t-15 17.5t-20.5 17.5t-35.5 8q-19 0 -36.5 -8t-31.5 -21t-24.5 -30t-15.5 -35h28q5 15 20.5 31 t32.5 16q12 0 20.5 -8t17.5 -17.5t21 -17.5t31 -8t36.5 8t31.5 21t24.5 30t14.5 35z" />
<glyph unicode="&#xc4;" horiz-adv-x="605" d="M600 0l-57 57l-220 651h-36l-225 -651l-57 -57h170l-55 55l51 150h235l49 -150l-55 -55h200zM389 258h-199l102 297zM427 821q0 17 -12.5 29.5t-29.5 12.5t-29.5 -12.5t-12.5 -29.5t12.5 -29.5t29.5 -12.5t29.5 12.5t12.5 29.5zM261 822q0 17 -12.5 29.5t-29.5 12.5 t-29.5 -12.5t-12.5 -29.5t12.5 -29.5t29.5 -12.5t29.5 12.5t12.5 29.5z" />
<glyph unicode="&#xc5;" horiz-adv-x="605" d="M386 840q0 34 -24.5 58.5t-58.5 24.5t-58.5 -24.5t-24.5 -58.5t24.5 -58.5t58.5 -24.5t58.5 24.5t24.5 58.5zM349 840q0 -19 -13.5 -32.5t-32.5 -13.5t-32.5 13.5t-13.5 32.5t13.5 32.5t32.5 13.5t32.5 -13.5t13.5 -32.5zM600 0l-57 57l-220 651h-36l-225 -651l-57 -57 h170l-55 55l51 150h235l49 -150l-55 -55h200zM389 258h-199l102 297z" />
<glyph unicode="&#xc6;" horiz-adv-x="754" d="M704 0v129l-76 -76h-83l-101 297h129l56 -56v165l-56 -56h-147l-84 252h286l76 -76v129h-417l-225 -651l-57 -57h170l-55 55l51 150h235l49 -150l-55 -55h304zM389 258h-199l102 297z" />
<glyph unicode="&#xc7;" horiz-adv-x="548" d="M312 -9q5 -1 10 -1h12q58 0 96 11.5t68 30.5v122l-77 -77q-19 -19 -39.5 -26.5t-47.5 -7.5q-49 0 -85 28.5t-59.5 73.5t-35 100t-11.5 109q0 53 10.5 107.5t34 98.5t59.5 72t87 28q27 0 47.5 -7.5t39.5 -26.5l77 -77v127q-31 19 -69.5 30.5t-78.5 11.5q-75 0 -131 -31.5 t-93.5 -83t-56.5 -117t-19 -132.5q0 -59 14.5 -117t42.5 -106.5t69.5 -83.5t95.5 -49l-83 -83h56q19 0 33.5 -11.5t14.5 -29.5q0 -20 -14.5 -30.5t-34.5 -10.5h-29v-28h19q22 0 44 5.5t40 17t29 28t11 38.5q0 30 -23 48t-52 21z" />
<glyph unicode="&#xc8;" horiz-adv-x="518" d="M468 0v129l-76 -76h-214v297h159l56 -56v165l-56 -56h-159v252h214l76 -76v129h-424l56 -56v-596l-56 -56h424zM374 765l-112 112q-14 14 -24.5 21.5t-24.5 7.5q-15 0 -22 -10.5t-7 -21.5q0 -14 9 -22.5t16 -11.5z" />
<glyph unicode="&#xc9;" horiz-adv-x="518" d="M468 0v129l-76 -76h-214v297h159l56 -56v165l-56 -56h-159v252h214l76 -76v129h-424l56 -56v-596l-56 -56h424zM378 874q0 11 -7 21.5t-22 10.5q-14 0 -24.5 -7.5t-24.5 -21.5l-112 -112l165 75q7 3 16 11.5t9 22.5z" />
<glyph unicode="&#xca;" horiz-adv-x="518" d="M468 0v129l-76 -76h-214v297h159l56 -56v165l-56 -56h-159v252h214l76 -76v129h-424l56 -56v-596l-56 -56h424zM423 776l-149 149l-149 -149h20l129 74l129 -74h20z" />
<glyph unicode="&#xcb;" horiz-adv-x="518" d="M468 0v129l-76 -76h-214v297h159l56 -56v165l-56 -56h-159v252h214l76 -76v129h-424l56 -56v-596l-56 -56h424zM406 821q0 17 -12.5 29.5t-29.5 12.5t-29.5 -12.5t-12.5 -29.5t12.5 -29.5t29.5 -12.5t29.5 12.5t12.5 29.5zM240 822q0 17 -12.5 29.5t-29.5 12.5 t-29.5 -12.5t-12.5 -29.5t12.5 -29.5t29.5 -12.5t29.5 12.5t12.5 29.5z" />
<glyph unicode="&#xcc;" horiz-adv-x="318" d="M254 0l-56 56v596l56 56h-190l56 -56v-596l-56 -56h190zM244 765l-112 112q-14 14 -24.5 21.5t-24.5 7.5q-15 0 -22 -10.5t-7 -21.5q0 -14 9 -22.5t16 -11.5z" />
<glyph unicode="&#xcd;" horiz-adv-x="318" d="M254 0l-56 56v596l56 56h-190l56 -56v-596l-56 -56h190zM263 874q0 11 -7 21.5t-22 10.5q-14 0 -24.5 -7.5t-24.5 -21.5l-112 -112l165 75q7 3 16 11.5t9 22.5z" />
<glyph unicode="&#xce;" horiz-adv-x="318" d="M254 0l-56 56v596l56 56h-190l56 -56v-596l-56 -56h190zM308 776l-149 149l-149 -149h20l129 74l129 -74h20z" />
<glyph unicode="&#xcf;" horiz-adv-x="318" d="M254 0l-56 56v596l56 56h-190l56 -56v-596l-56 -56h190zM286 821q0 17 -12.5 29.5t-29.5 12.5t-29.5 -12.5t-12.5 -29.5t12.5 -29.5t29.5 -12.5t29.5 12.5t12.5 29.5zM120 822q0 17 -12.5 29.5t-29.5 12.5t-29.5 -12.5t-12.5 -29.5t12.5 -29.5t29.5 -12.5t29.5 12.5 t12.5 29.5z" />
<glyph unicode="&#xd0;" horiz-adv-x="677" d="M627 354q0 66 -19.5 129.5t-56 113.5t-89 80.5t-119.5 30.5h-270l56 -56v-243h-82v-63h82v-290l-56 -56h270q67 0 119.5 30.5t89 80.5t56 113.5t19.5 129.5zM534 354q0 -55 -13.5 -108.5t-40.5 -96.5t-67.5 -69.5t-94.5 -26.5h-111v293h88v63h-88v246h111 q54 0 94.5 -26.5t67.5 -69t40.5 -96.5t13.5 -109z" />
<glyph unicode="&#xd1;" d="M629 708h-185l61 -61v-450l-319 511h-147l61 -61v-586l-61 -61h185l-61 61v530l405 -645v701zM464 865h-27q-4 -15 -20 -31t-33 -16q-12 0 -19 8t-15 17.5t-20.5 17.5t-35.5 8q-19 0 -36.5 -8t-31.5 -21t-24.5 -30t-15.5 -35h28q5 15 20.5 31t32.5 16q12 0 20.5 -8 t17.5 -17.5t21 -17.5t31 -8t36.5 8t31.5 21t24.5 30t14.5 35z" />
<glyph unicode="&#xd2;" d="M618 354q0 68 -19 134t-55 118t-89 84.5t-121 32.5t-121 -32.5t-89 -84.5t-55 -118t-19 -134q0 -67 19 -133.5t55 -118.5t89 -84.5t121 -32.5t121 32.5t89 84.5t55 118.5t19 133.5zM525 354q0 -55 -10 -111t-32.5 -101.5t-59 -74.5t-89.5 -29t-89.5 29t-59 74.5 t-32.5 101.5t-10 111t10 111t32.5 101.5t59 74.5t89.5 29t89.5 -29t59 -74.5t32.5 -101.5t10 -111zM404 765l-112 112q-14 14 -24.5 21.5t-24.5 7.5q-15 0 -22 -10.5t-7 -21.5q0 -14 9 -22.5t16 -11.5z" />
<glyph unicode="&#xd3;" d="M618 354q0 68 -19 134t-55 118t-89 84.5t-121 32.5t-121 -32.5t-89 -84.5t-55 -118t-19 -134q0 -67 19 -133.5t55 -118.5t89 -84.5t121 -32.5t121 32.5t89 84.5t55 118.5t19 133.5zM525 354q0 -55 -10 -111t-32.5 -101.5t-59 -74.5t-89.5 -29t-89.5 29t-59 74.5 t-32.5 101.5t-10 111t10 111t32.5 101.5t59 74.5t89.5 29t89.5 -29t59 -74.5t32.5 -101.5t10 -111zM428 874q0 11 -7 21.5t-22 10.5q-14 0 -24.5 -7.5t-24.5 -21.5l-112 -112l165 75q7 3 16 11.5t9 22.5z" />
<glyph unicode="&#xd4;" d="M618 354q0 68 -19 134t-55 118t-89 84.5t-121 32.5t-121 -32.5t-89 -84.5t-55 -118t-19 -134q0 -67 19 -133.5t55 -118.5t89 -84.5t121 -32.5t121 32.5t89 84.5t55 118.5t19 133.5zM525 354q0 -55 -10 -111t-32.5 -101.5t-59 -74.5t-89.5 -29t-89.5 29t-59 74.5 t-32.5 101.5t-10 111t10 111t32.5 101.5t59 74.5t89.5 29t89.5 -29t59 -74.5t32.5 -101.5t10 -111zM483 771l-149 149l-149 -149h20l129 74l129 -74h20z" />
<glyph unicode="&#xd5;" d="M618 354q0 68 -19 134t-55 118t-89 84.5t-121 32.5t-121 -32.5t-89 -84.5t-55 -118t-19 -134q0 -67 19 -133.5t55 -118.5t89 -84.5t121 -32.5t121 32.5t89 84.5t55 118.5t19 133.5zM525 354q0 -55 -10 -111t-32.5 -101.5t-59 -74.5t-89.5 -29t-89.5 29t-59 74.5 t-32.5 101.5t-10 111t10 111t32.5 101.5t59 74.5t89.5 29t89.5 -29t59 -74.5t32.5 -101.5t10 -111zM472 865h-27q-4 -15 -20 -31t-33 -16q-12 0 -19 8t-15 17.5t-20.5 17.5t-35.5 8q-19 0 -36.5 -8t-31.5 -21t-24.5 -30t-15.5 -35h28q5 15 20.5 31t32.5 16q12 0 20.5 -8 t17.5 -17.5t21 -17.5t31 -8t36.5 8t31.5 21t24.5 30t14.5 35z" />
<glyph unicode="&#xd6;" d="M618 354q0 68 -19 134t-55 118t-89 84.5t-121 32.5t-121 -32.5t-89 -84.5t-55 -118t-19 -134q0 -67 19 -133.5t55 -118.5t89 -84.5t121 -32.5t121 32.5t89 84.5t55 118.5t19 133.5zM525 354q0 -55 -10 -111t-32.5 -101.5t-59 -74.5t-89.5 -29t-89.5 29t-59 74.5 t-32.5 101.5t-10 111t10 111t32.5 101.5t59 74.5t89.5 29t89.5 -29t59 -74.5t32.5 -101.5t10 -111zM462 821q0 17 -12.5 29.5t-29.5 12.5t-29.5 -12.5t-12.5 -29.5t12.5 -29.5t29.5 -12.5t29.5 12.5t12.5 29.5zM296 822q0 17 -12.5 29.5t-29.5 12.5t-29.5 -12.5t-12.5 -29.5 t12.5 -29.5t29.5 -12.5t29.5 12.5t12.5 29.5z" />
<glyph unicode="&#xd7;" horiz-adv-x="398" d="M296 167l37 37l-97 97l96 96l-37 38l-96 -97l-97 97l-37 -38l96 -96l-97 -97l38 -37l97 97z" />
<glyph unicode="&#xd8;" d="M618 354q0 80 -25.5 155.5t-73.5 128.5l60 110h-50l-44 -78q-65 53 -151 53q-68 0 -121 -32.5t-89 -84.5t-55 -118t-19 -134q0 -39 6.5 -78t18.5 -76t30 -69.5t41 -59.5l-60 -111h50l44 79q66 -54 154 -54q68 0 121 32.5t89 84.5t55 118.5t19 133.5zM455 614 q-35 -63 -62.5 -111t-60 -105.5t-62.5 -110.5t-53 -93.5t-31 -54.5q-22 47 -32.5 103.5t-10.5 111.5t10 111t32.5 101.5t59 74.5t89.5 29q38 0 67.5 -15t53.5 -41zM525 354q0 -55 -10 -111t-32.5 -101.5t-59 -74.5t-89.5 -29q-40 0 -69.5 15.5t-53.5 41.5l269 477 q23 -45 34 -103t11 -115z" />
<glyph unicode="&#xd9;" horiz-adv-x="638" d="M604 708h-185l61 -61v-448q0 -36 -11.5 -65t-31 -49t-46.5 -31t-57 -11q-31 0 -59.5 11t-50 31t-34 49t-12.5 65v448l61 61h-205l61 -61v-448q0 -49 17 -89t47 -67.5t70 -42.5t85 -15q43 0 84 14t73.5 41t52 67t19.5 92v448zM394 765l-112 112q-14 14 -24.5 21.5 t-24.5 7.5q-15 0 -22 -10.5t-7 -21.5q0 -14 9 -22.5t16 -11.5z" />
<glyph unicode="&#xda;" horiz-adv-x="638" d="M604 708h-185l61 -61v-448q0 -36 -11.5 -65t-31 -49t-46.5 -31t-57 -11q-31 0 -59.5 11t-50 31t-34 49t-12.5 65v448l61 61h-205l61 -61v-448q0 -49 17 -89t47 -67.5t70 -42.5t85 -15q43 0 84 14t73.5 41t52 67t19.5 92v448zM453 874q0 11 -7 21.5t-22 10.5 q-14 0 -24.5 -7.5t-24.5 -21.5l-112 -112l165 75q7 3 16 11.5t9 22.5z" />
<glyph unicode="&#xdb;" horiz-adv-x="638" d="M604 708h-185l61 -61v-448q0 -36 -11.5 -65t-31 -49t-46.5 -31t-57 -11q-31 0 -59.5 11t-50 31t-34 49t-12.5 65v448l61 61h-205l61 -61v-448q0 -49 17 -89t47 -67.5t70 -42.5t85 -15q43 0 84 14t73.5 41t52 67t19.5 92v448zM478 776l-149 149l-149 -149h20l129 74 l129 -74h20z" />
<glyph unicode="&#xdc;" horiz-adv-x="638" d="M604 708h-185l61 -61v-448q0 -36 -11.5 -65t-31 -49t-46.5 -31t-57 -11q-31 0 -59.5 11t-50 31t-34 49t-12.5 65v448l61 61h-205l61 -61v-448q0 -49 17 -89t47 -67.5t70 -42.5t85 -15q43 0 84 14t73.5 41t52 67t19.5 92v448zM461 826q0 17 -12.5 29.5t-29.5 12.5 t-29.5 -12.5t-12.5 -29.5t12.5 -29.5t29.5 -12.5t29.5 12.5t12.5 29.5zM295 827q0 17 -12.5 29.5t-29.5 12.5t-29.5 -12.5t-12.5 -29.5t12.5 -29.5t29.5 -12.5t29.5 12.5t12.5 29.5z" />
<glyph unicode="&#xdd;" horiz-adv-x="565" d="M560 708h-175l55 -55l-149 -265l-141 265l55 55h-200l57 -57l179 -322v-273l-56 -56h190l-56 56v273l183 321zM404 859q0 11 -7 21.5t-22 10.5q-14 0 -24.5 -7.5t-24.5 -21.5l-112 -112l165 75q7 3 16 11.5t9 22.5z" />
<glyph unicode="&#xde;" horiz-adv-x="593" d="M450 359q0 -32 -12.5 -59t-34 -47t-51 -31.5t-63.5 -11.5h-111v298h111q34 0 63.5 -11.5t51 -31.5t34 -47t12.5 -59zM100 652v-596l-56 -56h190l-56 56v101h111q50 0 95.5 13.5t81 39.5t56.5 63.5t21 85.5t-21 85.5t-56.5 63.5t-81 39.5t-95.5 13.5h-111v91l56 56h-190z " />
<glyph unicode="&#xdf;" horiz-adv-x="555" d="M518 191q0 32 -11.5 61.5t-32.5 53.5t-49 41t-61 23q26 9 48 28.5t37.5 44t24.5 50.5t9 47q0 42 -15 74.5t-40.5 55.5t-58 35t-68.5 12q-56 0 -94.5 -23.5t-62 -60.5t-34 -83t-10.5 -90v-409l-51 -51h139v510q0 28 4.5 56.5t17 51.5t34 37.5t55.5 14.5q28 0 48 -12.5 t33 -31.5t19 -42t6 -44q0 -27 -10 -55t-28 -51t-42.5 -38t-54.5 -18v-28q35 0 66 -12t54 -33.5t36.5 -50.5t13.5 -63q0 -29 -13 -57.5t-35.5 -51t-52.5 -36t-64 -13.5v-31q7 -2 19 -5t26 -3q38 0 73.5 14t63 39.5t44.5 62t17 81.5z" />
<glyph unicode="&#xe0;" horiz-adv-x="498" d="M469 0l-51 51v331q0 33 -13.5 59t-36.5 44t-53.5 27t-65.5 9q-19 0 -39.5 -2.5t-40.5 -7.5t-37.5 -12t-31.5 -17v-120l87 87q14 14 28 21.5t34 7.5q36 0 63.5 -22.5t27.5 -68.5v-80h-111q-38 0 -72 -14t-60 -38t-41.5 -56.5t-15.5 -70.5q0 -62 28.5 -101t79.5 -39 q11 0 24 3.5t24.5 9t21 10.5t14.5 8l108 68v-87h129zM340 130l-118 -71q-11 -6 -24 -9.5t-22 -3.5q-18 0 -35.5 19t-17.5 63q0 31 10 57t27.5 44.5t41.5 29t52 10.5h86v-139zM344 580l-112 112q-14 14 -24.5 21.5t-24.5 7.5q-15 0 -22 -10.5t-7 -21.5q0 -14 9 -22.5 t16 -11.5z" />
<glyph unicode="&#xe1;" horiz-adv-x="498" d="M469 0l-51 51v331q0 33 -13.5 59t-36.5 44t-53.5 27t-65.5 9q-19 0 -39.5 -2.5t-40.5 -7.5t-37.5 -12t-31.5 -17v-120l87 87q14 14 28 21.5t34 7.5q36 0 63.5 -22.5t27.5 -68.5v-80h-111q-38 0 -72 -14t-60 -38t-41.5 -56.5t-15.5 -70.5q0 -62 28.5 -101t79.5 -39 q11 0 24 3.5t24.5 9t21 10.5t14.5 8l108 68v-87h129zM340 130l-118 -71q-11 -6 -24 -9.5t-22 -3.5q-18 0 -35.5 19t-17.5 63q0 31 10 57t27.5 44.5t41.5 29t52 10.5h86v-139zM363 689q0 11 -7 21.5t-22 10.5q-14 0 -24.5 -7.5t-24.5 -21.5l-112 -112l165 75q7 3 16 11.5 t9 22.5z" />
<glyph unicode="&#xe2;" horiz-adv-x="498" d="M469 0l-51 51v331q0 33 -13.5 59t-36.5 44t-53.5 27t-65.5 9q-19 0 -39.5 -2.5t-40.5 -7.5t-37.5 -12t-31.5 -17v-120l87 87q14 14 28 21.5t34 7.5q36 0 63.5 -22.5t27.5 -68.5v-80h-111q-38 0 -72 -14t-60 -38t-41.5 -56.5t-15.5 -70.5q0 -62 28.5 -101t79.5 -39 q11 0 24 3.5t24.5 9t21 10.5t14.5 8l108 68v-87h129zM340 130l-118 -71q-11 -6 -24 -9.5t-22 -3.5q-18 0 -35.5 19t-17.5 63q0 31 10 57t27.5 44.5t41.5 29t52 10.5h86v-139zM403 586l-149 149l-149 -149h20l129 74l129 -74h20z" />
<glyph unicode="&#xe3;" horiz-adv-x="498" d="M469 0l-51 51v331q0 33 -13.5 59t-36.5 44t-53.5 27t-65.5 9q-19 0 -39.5 -2.5t-40.5 -7.5t-37.5 -12t-31.5 -17v-120l87 87q14 14 28 21.5t34 7.5q36 0 63.5 -22.5t27.5 -68.5v-80h-111q-38 0 -72 -14t-60 -38t-41.5 -56.5t-15.5 -70.5q0 -62 28.5 -101t79.5 -39 q11 0 24 3.5t24.5 9t21 10.5t14.5 8l108 68v-87h129zM340 130l-118 -71q-11 -6 -24 -9.5t-22 -3.5q-18 0 -35.5 19t-17.5 63q0 31 10 57t27.5 44.5t41.5 29t52 10.5h86v-139zM399 680h-27q-4 -15 -20 -31t-33 -16q-12 0 -19 8t-15 17.5t-20.5 17.5t-35.5 8q-19 0 -36.5 -8 t-31.5 -21t-24.5 -30t-15.5 -35h28q5 15 20.5 31t32.5 16q12 0 20.5 -8t17.5 -17.5t21 -17.5t31 -8t36.5 8t31.5 21t24.5 30t14.5 35z" />
<glyph unicode="&#xe4;" horiz-adv-x="498" d="M469 0l-51 51v331q0 33 -13.5 59t-36.5 44t-53.5 27t-65.5 9q-19 0 -39.5 -2.5t-40.5 -7.5t-37.5 -12t-31.5 -17v-120l87 87q14 14 28 21.5t34 7.5q36 0 63.5 -22.5t27.5 -68.5v-80h-111q-38 0 -72 -14t-60 -38t-41.5 -56.5t-15.5 -70.5q0 -62 28.5 -101t79.5 -39 q11 0 24 3.5t24.5 9t21 10.5t14.5 8l108 68v-87h129zM340 130l-118 -71q-11 -6 -24 -9.5t-22 -3.5q-18 0 -35.5 19t-17.5 63q0 31 10 57t27.5 44.5t41.5 29t52 10.5h86v-139zM386 636q0 17 -12.5 29.5t-29.5 12.5t-29.5 -12.5t-12.5 -29.5t12.5 -29.5t29.5 -12.5t29.5 12.5 t12.5 29.5zM220 637q0 17 -12.5 29.5t-29.5 12.5t-29.5 -12.5t-12.5 -29.5t12.5 -29.5t29.5 -12.5t29.5 12.5t12.5 29.5z" />
<glyph unicode="&#xe5;" horiz-adv-x="498" d="M469 0l-51 51v331q0 33 -13.5 59t-36.5 44t-53.5 27t-65.5 9q-19 0 -39.5 -2.5t-40.5 -7.5t-37.5 -12t-31.5 -17v-120l87 87q14 14 28 21.5t34 7.5q36 0 63.5 -22.5t27.5 -68.5v-80h-111q-38 0 -72 -14t-60 -38t-41.5 -56.5t-15.5 -70.5q0 -62 28.5 -101t79.5 -39 q11 0 24 3.5t24.5 9t21 10.5t14.5 8l108 68v-87h129zM340 130l-118 -71q-11 -6 -24 -9.5t-22 -3.5q-18 0 -35.5 19t-17.5 63q0 31 10 57t27.5 44.5t41.5 29t52 10.5h86v-139zM357 670q0 34 -24.5 58.5t-58.5 24.5t-58.5 -24.5t-24.5 -58.5t24.5 -58.5t58.5 -24.5t58.5 24.5 t24.5 58.5zM320 670q0 -19 -13.5 -32.5t-32.5 -13.5t-32.5 13.5t-13.5 32.5t13.5 32.5t32.5 13.5t32.5 -13.5t13.5 -32.5z" />
<glyph unicode="&#xe6;" horiz-adv-x="787" d="M662 361q0 -19 -3 -33t-6 -22h-228q2 29 9 59.5t21.5 55.5t38 41t59.5 16q25 0 45 -9.5t34.5 -25.5t22 -37.5t7.5 -44.5zM351 137l-129 -78q-10 -6 -23.5 -9.5t-22.5 -3.5q-18 0 -35.5 19t-17.5 63q0 63 37 99.5t94 36.5h79v-12q0 -61 18 -115zM400 451q-21 32 -61 51 t-90 19q-19 0 -39.5 -2.5t-40.5 -7.5t-37.5 -12t-31.5 -17v-120l87 87q14 14 28 21.5t34 7.5q18 0 34.5 -6t29 -17t20 -25.5t7.5 -32.5v-91h-111q-38 0 -72 -13.5t-60 -37.5t-41.5 -56.5t-15.5 -70.5q0 -62 28.5 -101t79.5 -39q11 0 24 3.5t24.5 9t21 10.5t14.5 8q1 1 14 9 t33 21t39 25t33 20.5t27 -17t60 -58t119 -32.5q37 0 66 10t51.5 25t38 31.5t24.5 28.5l-25 25q-23 -29 -58.5 -49.5t-77.5 -20.5q-37 0 -62.5 14.5t-42.5 37.5t-26.5 50t-14 52.5t-5.5 45t-1 27.5h309q13 53 5.5 99.5t-31.5 81.5t-63.5 55.5t-90.5 20.5q-49 0 -87 -19 t-66 -51z" />
<glyph unicode="&#xe7;" horiz-adv-x="453" d="M252 -10h4q51 0 88 15.5t71 53.5l-26 26q-9 -9 -22 -17.5t-27.5 -15t-29 -10t-26.5 -3.5q-71 0 -111 58t-40 167q0 35 5 72.5t18 68t37 50.5t61 20q22 0 41 -8.5t31 -20.5l87 -87v117q-38 20 -75.5 31t-88.5 11q-50 0 -89 -23t-65.5 -60.5t-40.5 -84.5t-14 -96 q0 -45 11 -87.5t33 -77.5t53.5 -60t72.5 -34l-80 -80h56q19 0 33.5 -11.5t14.5 -29.5q0 -20 -14.5 -30.5t-34.5 -10.5h-29v-28h19q22 0 44 5.5t40 17t29 28t11 38.5q0 30 -23 48t-52 21z" />
<glyph unicode="&#xe8;" horiz-adv-x="494" d="M440 263q13 53 5.5 100t-31.5 82t-63.5 55.5t-90.5 20.5q-55 0 -96 -23.5t-68.5 -61.5t-41.5 -86t-14 -98q0 -49 12.5 -96.5t39.5 -85t69.5 -60.5t102.5 -23q37 0 66 10t51.5 25t38 31.5t24.5 28.5l-25 25q-23 -29 -58.5 -49.5t-77.5 -20.5q-37 0 -62.5 14.5t-42.5 37 t-26.5 50t-14 52.5t-5.5 44.5t-1 27.5h309zM369 361q0 -19 -3 -33t-6 -22h-228q2 29 9 59.5t21.5 55.5t38 41t59.5 16q25 0 45 -9.5t34.5 -25.5t22 -37.5t7.5 -44.5zM329 580l-112 112q-14 14 -24.5 21.5t-24.5 7.5q-15 0 -22 -10.5t-7 -21.5q0 -14 9 -22.5t16 -11.5z" />
<glyph unicode="&#xe9;" horiz-adv-x="494" d="M440 263q13 53 5.5 100t-31.5 82t-63.5 55.5t-90.5 20.5q-55 0 -96 -23.5t-68.5 -61.5t-41.5 -86t-14 -98q0 -49 12.5 -96.5t39.5 -85t69.5 -60.5t102.5 -23q37 0 66 10t51.5 25t38 31.5t24.5 28.5l-25 25q-23 -29 -58.5 -49.5t-77.5 -20.5q-37 0 -62.5 14.5t-42.5 37 t-26.5 50t-14 52.5t-5.5 44.5t-1 27.5h309zM369 361q0 -19 -3 -33t-6 -22h-228q2 29 9 59.5t21.5 55.5t38 41t59.5 16q25 0 45 -9.5t34.5 -25.5t22 -37.5t7.5 -44.5zM363 689q0 11 -7 21.5t-22 10.5q-14 0 -24.5 -7.5t-24.5 -21.5l-112 -112l165 75q7 3 16 11.5t9 22.5z" />
<glyph unicode="&#xea;" horiz-adv-x="494" d="M440 263q13 53 5.5 100t-31.5 82t-63.5 55.5t-90.5 20.5q-55 0 -96 -23.5t-68.5 -61.5t-41.5 -86t-14 -98q0 -49 12.5 -96.5t39.5 -85t69.5 -60.5t102.5 -23q37 0 66 10t51.5 25t38 31.5t24.5 28.5l-25 25q-23 -29 -58.5 -49.5t-77.5 -20.5q-37 0 -62.5 14.5t-42.5 37 t-26.5 50t-14 52.5t-5.5 44.5t-1 27.5h309zM369 361q0 -19 -3 -33t-6 -22h-228q2 29 9 59.5t21.5 55.5t38 41t59.5 16q25 0 45 -9.5t34.5 -25.5t22 -37.5t7.5 -44.5zM398 586l-149 149l-149 -149h20l129 74l129 -74h20z" />
<glyph unicode="&#xeb;" horiz-adv-x="494" d="M440 263q13 53 5.5 100t-31.5 82t-63.5 55.5t-90.5 20.5q-55 0 -96 -23.5t-68.5 -61.5t-41.5 -86t-14 -98q0 -49 12.5 -96.5t39.5 -85t69.5 -60.5t102.5 -23q37 0 66 10t51.5 25t38 31.5t24.5 28.5l-25 25q-23 -29 -58.5 -49.5t-77.5 -20.5q-37 0 -62.5 14.5t-42.5 37 t-26.5 50t-14 52.5t-5.5 44.5t-1 27.5h309zM369 361q0 -19 -3 -33t-6 -22h-228q2 29 9 59.5t21.5 55.5t38 41t59.5 16q25 0 45 -9.5t34.5 -25.5t22 -37.5t7.5 -44.5zM376 636q0 17 -12.5 29.5t-29.5 12.5t-29.5 -12.5t-12.5 -29.5t12.5 -29.5t29.5 -12.5t29.5 12.5 t12.5 29.5zM210 637q0 17 -12.5 29.5t-29.5 12.5t-29.5 -12.5t-12.5 -29.5t12.5 -29.5t29.5 -12.5t29.5 12.5t12.5 29.5z" />
<glyph unicode="&#xec;" horiz-adv-x="268" d="M224 0l-51 51v470l-127 -55l49 -49v-366l-51 -51h180zM204 580l-112 112q-14 14 -24.5 21.5t-24.5 7.5q-15 0 -22 -10.5t-7 -21.5q0 -14 9 -22.5t16 -11.5z" />
<glyph unicode="&#xed;" horiz-adv-x="268" d="M224 0l-51 51v470l-127 -55l49 -49v-366l-51 -51h180zM243 689q0 11 -7 21.5t-22 10.5q-14 0 -24.5 -7.5t-24.5 -21.5l-112 -112l165 75q7 3 16 11.5t9 22.5z" />
<glyph unicode="&#xee;" horiz-adv-x="268" d="M224 0l-51 51v470l-127 -55l49 -49v-366l-51 -51h180zM283 586l-149 149l-149 -149h20l129 74l129 -74h20z" />
<glyph unicode="&#xef;" horiz-adv-x="268" d="M224 0l-51 51v470l-127 -55l49 -49v-366l-51 -51h180zM261 636q0 17 -12.5 29.5t-29.5 12.5t-29.5 -12.5t-12.5 -29.5t12.5 -29.5t29.5 -12.5t29.5 12.5t12.5 29.5zM95 637q0 17 -12.5 29.5t-29.5 12.5t-29.5 -12.5t-12.5 -29.5t12.5 -29.5t29.5 -12.5t29.5 12.5 t12.5 29.5z" />
<glyph unicode="&#xf0;" horiz-adv-x="573" d="M518 229q0 63 -9.5 123.5t-28.5 115t-48.5 101t-70.5 79.5l80 100h-54l-60 -75q-62 40 -142 46l-13 -33q39 -4 69.5 -17.5t55.5 -33.5l-77 -97h54l54 67q34 -39 53 -86t29 -89q-30 22 -59 32.5t-67 10.5q-52 0 -95.5 -18.5t-74 -51.5t-47.5 -77.5t-17 -96.5t17 -96.5 t47.5 -77.5t74 -51.5t95.5 -18.5q53 0 96 18.5t73.5 51.5t47.5 77.5t17 96.5zM425 229q0 -40 -7.5 -77.5t-24 -66t-43.5 -45.5t-66 -17t-66 17t-43.5 45.5t-24 66t-7.5 77.5q0 41 7.5 78t24 65.5t43.5 45.5t66 17t66 -17t43.5 -45.5t24 -65.5t7.5 -78z" />
<glyph unicode="&#xf1;" horiz-adv-x="563" d="M534 0l-51 51v346q0 20 -7.5 42t-23.5 40t-40.5 30t-59.5 12q-11 0 -26.5 -2.5t-35 -11t-42.5 -23.5t-47 -39l-43 -43v119l-127 -55l49 -49v-366l-51 -51h180l-51 51v294l49 49q38 39 69 50t52 11t35.5 -7.5t24 -19t13.5 -25t4 -26.5v-377h129zM434 680h-27 q-4 -15 -20 -31t-33 -16q-12 0 -19 8t-15 17.5t-20.5 17.5t-35.5 8q-19 0 -36.5 -8t-31.5 -21t-24.5 -30t-15.5 -35h28q5 15 20.5 31t32.5 16q12 0 20.5 -8t17.5 -17.5t21 -17.5t31 -8t36.5 8t31.5 21t24.5 30t14.5 35z" />
<glyph unicode="&#xf2;" horiz-adv-x="548" d="M508 254q0 52 -17 100.5t-47.5 85.5t-73.5 59t-96 22q-52 0 -95.5 -22t-74 -59t-47.5 -85.5t-17 -100.5t17 -100.5t47.5 -85.5t74 -59t95.5 -22q53 0 96 22t73.5 59t47.5 85.5t17 100.5zM415 254q0 -40 -7.5 -81t-24 -73t-43.5 -52.5t-66 -20.5t-66 20.5t-43.5 52.5 t-24 73t-7.5 81q0 41 7.5 81.5t24 72.5t43.5 52.5t66 20.5t66 -20.5t43.5 -52.5t24 -72.5t7.5 -81.5zM359 580l-112 112q-14 14 -24.5 21.5t-24.5 7.5q-15 0 -22 -10.5t-7 -21.5q0 -14 9 -22.5t16 -11.5z" />
<glyph unicode="&#xf3;" horiz-adv-x="548" d="M508 254q0 52 -17 100.5t-47.5 85.5t-73.5 59t-96 22q-52 0 -95.5 -22t-74 -59t-47.5 -85.5t-17 -100.5t17 -100.5t47.5 -85.5t74 -59t95.5 -22q53 0 96 22t73.5 59t47.5 85.5t17 100.5zM415 254q0 -40 -7.5 -81t-24 -73t-43.5 -52.5t-66 -20.5t-66 20.5t-43.5 52.5 t-24 73t-7.5 81q0 41 7.5 81.5t24 72.5t43.5 52.5t66 20.5t66 -20.5t43.5 -52.5t24 -72.5t7.5 -81.5zM383 689q0 11 -7 21.5t-22 10.5q-14 0 -24.5 -7.5t-24.5 -21.5l-112 -112l165 75q7 3 16 11.5t9 22.5z" />
<glyph unicode="&#xf4;" horiz-adv-x="548" d="M508 254q0 52 -17 100.5t-47.5 85.5t-73.5 59t-96 22q-52 0 -95.5 -22t-74 -59t-47.5 -85.5t-17 -100.5t17 -100.5t47.5 -85.5t74 -59t95.5 -22q53 0 96 22t73.5 59t47.5 85.5t17 100.5zM415 254q0 -40 -7.5 -81t-24 -73t-43.5 -52.5t-66 -20.5t-66 20.5t-43.5 52.5 t-24 73t-7.5 81q0 41 7.5 81.5t24 72.5t43.5 52.5t66 20.5t66 -20.5t43.5 -52.5t24 -72.5t7.5 -81.5zM423 586l-149 149l-149 -149h20l129 74l129 -74h20z" />
<glyph unicode="&#xf5;" horiz-adv-x="548" d="M508 254q0 52 -17 100.5t-47.5 85.5t-73.5 59t-96 22q-52 0 -95.5 -22t-74 -59t-47.5 -85.5t-17 -100.5t17 -100.5t47.5 -85.5t74 -59t95.5 -22q53 0 96 22t73.5 59t47.5 85.5t17 100.5zM415 254q0 -40 -7.5 -81t-24 -73t-43.5 -52.5t-66 -20.5t-66 20.5t-43.5 52.5 t-24 73t-7.5 81q0 41 7.5 81.5t24 72.5t43.5 52.5t66 20.5t66 -20.5t43.5 -52.5t24 -72.5t7.5 -81.5zM409 680h-27q-4 -15 -20 -31t-33 -16q-12 0 -19 8t-15 17.5t-20.5 17.5t-35.5 8q-19 0 -36.5 -8t-31.5 -21t-24.5 -30t-15.5 -35h28q5 15 20.5 31t32.5 16q12 0 20.5 -8 t17.5 -17.5t21 -17.5t31 -8t36.5 8t31.5 21t24.5 30t14.5 35z" />
<glyph unicode="&#xf6;" horiz-adv-x="548" d="M508 254q0 52 -17 100.5t-47.5 85.5t-73.5 59t-96 22q-52 0 -95.5 -22t-74 -59t-47.5 -85.5t-17 -100.5t17 -100.5t47.5 -85.5t74 -59t95.5 -22q53 0 96 22t73.5 59t47.5 85.5t17 100.5zM415 254q0 -40 -7.5 -81t-24 -73t-43.5 -52.5t-66 -20.5t-66 20.5t-43.5 52.5 t-24 73t-7.5 81q0 41 7.5 81.5t24 72.5t43.5 52.5t66 20.5t66 -20.5t43.5 -52.5t24 -72.5t7.5 -81.5zM401 636q0 17 -12.5 29.5t-29.5 12.5t-29.5 -12.5t-12.5 -29.5t12.5 -29.5t29.5 -12.5t29.5 12.5t12.5 29.5zM235 637q0 17 -12.5 29.5t-29.5 12.5t-29.5 -12.5 t-12.5 -29.5t12.5 -29.5t29.5 -12.5t29.5 12.5t12.5 29.5z" />
<glyph unicode="&#xf7;" horiz-adv-x="0" />
<glyph unicode="&#xf8;" horiz-adv-x="548" d="M508 254q0 62 -23 116.5t-65 92.5l51 92h-50l-37 -65q-23 14 -50.5 22.5t-59.5 8.5q-52 0 -95.5 -22t-74 -59t-47.5 -85.5t-17 -100.5q0 -63 24 -118.5t66 -93.5l-50 -92h50l37 66q23 -14 50 -21.5t57 -7.5q53 0 96 22t73.5 59t47.5 85.5t17 100.5zM357 446 q-25 -45 -44.5 -79t-42.5 -76t-44.5 -80t-38.5 -68.5t-24 -42.5q-15 33 -22.5 73.5t-7.5 80.5q0 41 7.5 81.5t24 73.5t43.5 53.5t66 20.5q27 0 47.5 -10t35.5 -27zM415 254q0 -40 -7.5 -81t-24 -74t-43.5 -53.5t-66 -20.5q-26 0 -46.5 9.5t-34.5 24.5q25 45 44 79t42 76 t44.5 80t38.5 68.5t24 42.5q14 -33 21.5 -72.5t7.5 -78.5z" />
<glyph unicode="&#xf9;" horiz-adv-x="538" d="M509 0l-51 51v470l-127 -55l49 -49v-258l-49 -49q-33 -34 -61.5 -49.5t-51.5 -15.5q-14 0 -25.5 6.5t-19 17t-11.5 23.5t-4 25v404l-127 -55l49 -49v-320q0 -20 8.5 -39.5t23 -35.5t34 -25.5t42.5 -9.5q35 0 70 14.5t79 57.5l43 43v-102h129zM359 575l-112 112 q-14 14 -24.5 21.5t-24.5 7.5q-15 0 -22 -10.5t-7 -21.5q0 -14 9 -22.5t16 -11.5z" />
<glyph unicode="&#xfa;" horiz-adv-x="538" d="M509 0l-51 51v470l-127 -55l49 -49v-258l-49 -49q-33 -34 -61.5 -49.5t-51.5 -15.5q-14 0 -25.5 6.5t-19 17t-11.5 23.5t-4 25v404l-127 -55l49 -49v-320q0 -20 8.5 -39.5t23 -35.5t34 -25.5t42.5 -9.5q35 0 70 14.5t79 57.5l43 43v-102h129zM413 684q0 11 -7 21.5 t-22 10.5q-14 0 -24.5 -7.5t-24.5 -21.5l-112 -112l165 75q7 3 16 11.5t9 22.5z" />
<glyph unicode="&#xfb;" horiz-adv-x="538" d="M509 0l-51 51v470l-127 -55l49 -49v-258l-49 -49q-33 -34 -61.5 -49.5t-51.5 -15.5q-14 0 -25.5 6.5t-19 17t-11.5 23.5t-4 25v404l-127 -55l49 -49v-320q0 -20 8.5 -39.5t23 -35.5t34 -25.5t42.5 -9.5q35 0 70 14.5t79 57.5l43 43v-102h129zM417 586l-149 149l-149 -149 h20l129 74l129 -74h20z" />
<glyph unicode="&#xfc;" horiz-adv-x="538" d="M509 0l-51 51v470l-127 -55l49 -49v-258l-49 -49q-33 -34 -61.5 -49.5t-51.5 -15.5q-14 0 -25.5 6.5t-19 17t-11.5 23.5t-4 25v404l-127 -55l49 -49v-320q0 -20 8.5 -39.5t23 -35.5t34 -25.5t42.5 -9.5q35 0 70 14.5t79 57.5l43 43v-102h129zM397 636q0 17 -12.5 29.5 t-29.5 12.5t-29.5 -12.5t-12.5 -29.5t12.5 -29.5t29.5 -12.5t29.5 12.5t12.5 29.5zM231 637q0 17 -12.5 29.5t-29.5 12.5t-29.5 -12.5t-12.5 -29.5t12.5 -29.5t29.5 -12.5t29.5 12.5t12.5 29.5z" />
<glyph unicode="&#xfd;" horiz-adv-x="495" d="M494 508h-160l50 -50l-129 -339l-119 339l50 50h-185l52 -52l159 -447l-61 -158l-79 -51h188l-50 50l232 606zM371 717q0 11 -7 21.5t-22 10.5q-14 0 -24.5 -7.5t-24.5 -21.5l-112 -112l165 75q7 3 16 11.5t9 22.5z" />
<glyph unicode="&#xfe;" horiz-adv-x="543" d="M410 254q0 -36 -5.5 -73.5t-20 -68t-38.5 -50t-62 -19.5q-39 0 -71 22.5t-55 60.5v256q23 38 55 60.5t71 22.5q38 0 62 -19.5t38.5 -50t20 -68t5.5 -73.5zM80 657v-806l-51 -51h180l-51 51v216q29 -42 66.5 -61t72.5 -19q53 0 91.5 24t64 62.5t38 86t12.5 94.5 t-12.5 94.5t-38 86t-64 62.5t-91.5 24q-35 0 -72.5 -19t-66.5 -61v320l-127 -55z" />
<glyph unicode="&#xff;" horiz-adv-x="495" d="M494 508h-160l50 -50l-129 -339l-119 339l50 50h-185l52 -52l159 -447l-61 -158l-79 -51h188l-50 50l232 606zM381 636q0 17 -12.5 29.5t-29.5 12.5t-29.5 -12.5t-12.5 -29.5t12.5 -29.5t29.5 -12.5t29.5 12.5t12.5 29.5zM215 637q0 17 -12.5 29.5t-29.5 12.5 t-29.5 -12.5t-12.5 -29.5t12.5 -29.5t29.5 -12.5t29.5 12.5t12.5 29.5z" />
<glyph unicode="&#x152;" horiz-adv-x="938" d="M888 0v129l-76 -76h-214v297h159l56 -56v165l-56 -56h-159v252h214l76 -76v129h-373v-84q-38 48 -83 73.5t-108 25.5q-67 0 -118.5 -32.5t-86 -85t-52 -118.5t-17.5 -133t17.5 -133t52 -118.5t86 -85t118.5 -32.5q63 0 108 25.5t83 75.5v-86h373zM515 354q0 -55 -10 -111 t-32.5 -101.5t-59 -74.5t-89.5 -29q-52 0 -87 29t-56 75t-29.5 102t-8.5 110t8.5 110t29.5 102t56 75t87 29q53 0 89.5 -29t59 -74.5t32.5 -101.5t10 -111z" />
<glyph unicode="&#x153;" horiz-adv-x="867" d="M742 361q0 -19 -3 -33t-6 -22h-228q2 29 9 59.5t21.5 55.5t38 41t59.5 16q25 0 45 -9.5t34.5 -25.5t22 -37.5t7.5 -44.5zM456 84q27 -43 71 -70t110 -27q37 0 66 10t51.5 25t38 31.5t24.5 28.5l-25 25q-23 -29 -58.5 -49.5t-77.5 -20.5q-37 0 -62.5 14.5t-42.5 37 t-26.5 50t-14 52.5t-5.5 44.5t-1 27.5h309q13 53 5.5 100t-31.5 82t-63.5 55.5t-90.5 20.5q-60 0 -104 -28t-71 -73q-31 46 -77.5 73.5t-106.5 27.5q-52 0 -95.5 -22t-74 -59t-47.5 -85.5t-17 -100.5t17 -100.5t47.5 -85.5t74 -59t95.5 -22q59 0 105 27t77 70zM415 254 q0 -40 -7.5 -81t-24 -74t-43.5 -53.5t-66 -20.5t-66 20.5t-43.5 53.5t-24 74t-7.5 81q0 41 7.5 81.5t24 73.5t43.5 53.5t66 20.5t66 -20.5t43.5 -53.5t24 -73.5t7.5 -81.5z" />
<glyph unicode="&#x178;" horiz-adv-x="565" d="M560 708h-175l55 -55l-149 -265l-141 265l55 55h-200l57 -57l179 -322v-273l-56 -56h190l-56 56v273l183 321zM421 821q0 17 -12.5 29.5t-29.5 12.5t-29.5 -12.5t-12.5 -29.5t12.5 -29.5t29.5 -12.5t29.5 12.5t12.5 29.5zM255 822q0 17 -12.5 29.5t-29.5 12.5 t-29.5 -12.5t-12.5 -29.5t12.5 -29.5t29.5 -12.5t29.5 12.5t12.5 29.5z" />
<glyph unicode="&#x2c6;" horiz-adv-x="400" d="M328 646l-149 149l-149 -149h20l129 74l129 -74h20z" />
<glyph unicode="&#x2dc;" horiz-adv-x="350" d="M284 810h-27q-4 -15 -20 -31t-33 -16q-12 0 -19 8t-15 17.5t-20.5 17.5t-35.5 8q-19 0 -36.5 -8t-31.5 -21t-24.5 -30t-15.5 -35h28q5 15 20.5 31t32.5 16q12 0 20.5 -8t17.5 -17.5t21 -17.5t31 -8t36.5 8t31.5 21t24.5 30t14.5 35z" />
<glyph unicode="&#x2013;" horiz-adv-x="659" d="M620 275v53h-581v-53h581z" />
<glyph unicode="&#x2014;" horiz-adv-x="790" d="M790 275v53h-791v-53h791z" />
<glyph unicode="&#x2018;" horiz-adv-x="230" d="M150 756l-87 -193q-4 -10 -3 -21t7 -20.5t16 -15.5t23 -6q17 0 30.5 13.5t13.5 31.5v211z" />
<glyph unicode="&#x2019;" horiz-adv-x="230" d="M167 690q4 10 3 21t-7 20.5t-16 15.5t-23 6q-17 0 -30.5 -13.5t-13.5 -31.5v-211z" />
<glyph unicode="&#x201a;" horiz-adv-x="230" d="M167 17q4 10 3 21t-7 20.5t-16 15.5t-23 6q-17 0 -30.5 -13.5t-13.5 -31.5v-211z" />
<glyph unicode="&#x201c;" horiz-adv-x="350" d="M280 756l-87 -193q-4 -10 -3 -21t7 -20.5t16 -15.5t23 -6q17 0 30.5 13.5t13.5 31.5v211zM140 756l-87 -193q-4 -10 -3 -21t7 -20.5t16 -15.5t23 -6q17 0 30.5 13.5t13.5 31.5v211z" />
<glyph unicode="&#x201d;" horiz-adv-x="350" d="M297 690q4 10 3 21t-7 20.5t-16 15.5t-23 6q-17 0 -30.5 -13.5t-13.5 -31.5v-211zM157 690q4 10 3 21t-7 20.5t-16 15.5t-23 6q-17 0 -30.5 -13.5t-13.5 -31.5v-211z" />
<glyph unicode="&#x201e;" horiz-adv-x="350" d="M297 17q4 10 3 21t-7 20.5t-16 15.5t-23 6q-17 0 -30.5 -13.5t-13.5 -31.5v-211zM157 17q4 10 3 21t-7 20.5t-16 15.5t-23 6q-17 0 -30.5 -13.5t-13.5 -31.5v-211z" />
<glyph unicode="&#x2022;" horiz-adv-x="320" d="M249 359q0 37 -26 63t-63 26t-63 -26t-26 -63t26 -63t63 -26t63 26t26 63z" />
<glyph unicode="&#x2026;" horiz-adv-x="690" d="M165 40q0 20 -15 35t-35 15t-35 -15t-15 -35t15 -35t35 -15t35 15t15 35zM395 40q0 20 -15 35t-35 15t-35 -15t-15 -35t15 -35t35 -15t35 15t15 35zM625 40q0 20 -15 35t-35 15t-35 -15t-15 -35t15 -35t35 -15t35 15t15 35z" />
<glyph unicode="&#x2039;" horiz-adv-x="286" d="M70 304l165 -170v22l-82 148l82 149v22z" />
<glyph unicode="&#x203a;" horiz-adv-x="286" d="M216 304l-165 171v-22l82 -149l-82 -148v-22z" />
<glyph unicode="&#x20ac;" horiz-adv-x="520" d="M185 349q7 28 19.5 53.5t30.5 44.5t42 30t54 11q46 0 75 -26l67 -67v112q-19 14 -56.5 24t-72.5 10q-51 0 -92 -15.5t-71.5 -41.5t-51 -61t-31.5 -74h-63v-46h54q-1 -9 -1.5 -18t-0.5 -18t0.5 -17.5t1.5 -17.5h-54v-45h62q10 -39 30 -74.5t49.5 -62t68 -42t86.5 -15.5 q49 0 84.5 9.5t57.5 24.5v108l-67 -67q-29 -26 -75 -26q-29 0 -53 11.5t-42 31.5t-31 46.5t-20 55.5h220v45h-228q-1 9 -1.5 17.5t-0.5 17.5t0.5 18t1.5 18h228v46h-220z" />
<glyph unicode="&#x2122;" horiz-adv-x="847" d="M674 313h133l-39 40v315l39 40h-90l-111 -190l-112 190h-101l40 -40v-315l-40 -40h125l-39 40v267l120 -199l115 196v-264zM267 667l51 -50v91h-281v-91l50 50h63v-314l-39 -40h133l-40 40v314h63z" />
<glyph unicode="&#x25fc;" horiz-adv-x="510" d="M0 510h510v-510h-510v510z" />
<glyph unicode="&#xfb01;" horiz-adv-x="553" d="M509 0l-51 51v457h-280v130q0 27 15.5 46t38.5 28l52 -52l74 90h-126q-26 0 -50 -11.5t-42 -32.5t-29 -50t-11 -65v-85l-61 -61h61v-394l-51 -51h180l-51 51v414h159l43 -43v-371l-51 -51h180z" />
<glyph unicode="&#xfb02;" horiz-adv-x="552" d="M504 0l-51 51v699h-221q-26 0 -50 -11.5t-42 -32.5t-29 -50t-11 -65v-85l-61 -61h61v-394l-51 -51h180l-51 51v414h80v43h-80v130q0 28 15.5 47t41.5 27h92l48 -48v-613l-51 -51h180z" />
<glyph unicode="&#xfb03;" horiz-adv-x="833" d="M380 465v-414l-51 -51h180l-51 51v414h159l43 -43v-371l-51 -51h180l-51 51v457h-280v130q0 27 15.5 46t38.5 28l52 -52l74 90h-126q-26 0 -50 -11.5t-42 -32.5t-29 -50t-11 -65v-83h-202v130q0 27 15.5 46t38.5 28l52 -52l74 90h-126q-26 0 -50 -11.5t-42 -32.5t-29 -50 t-11 -65v-85l-61 -61h61v-394l-51 -51h180l-51 51v414h202z" />
<glyph unicode="&#xfb04;" horiz-adv-x="832" d="M380 465v-414l-51 -51h180l-51 51v414h80v43h-80v130q0 28 15.5 47t41.5 27h92l48 -48v-613l-51 -51h180l-51 51v699h-221q-26 0 -50 -11.5t-42 -32.5t-29 -50t-11 -65v-83h-202v130q0 27 15.5 46t38.5 28l52 -52l74 90h-126q-26 0 -50 -11.5t-42 -32.5t-29 -50t-11 -65 v-85l-61 -61h61v-394l-51 -51h180l-51 51v414h202z" />
</font>
</defs>
</svg>
