<?xml version="1.0" standalone="no"?>
<!DOCTYPE svg PUBLIC "-//W3C//DTD SVG 1.1//EN" "http://www.w3.org/Graphics/SVG/1.1/DTD/svg11.dtd" >
<svg xmlns="http://www.w3.org/2000/svg" xmlns:xlink="http://www.w3.org/1999/xlink" version="1.1">
<metadata></metadata>
<defs>
<font id="matrixboldsmallcapsregular" horiz-adv-x="399" >
<font-face units-per-em="1000" ascent="800" descent="-200" />
<missing-glyph horiz-adv-x="250" />
<glyph horiz-adv-x="0" />
<glyph unicode="&#xd;" horiz-adv-x="250" />
<glyph unicode=" "  horiz-adv-x="250" />
<glyph unicode="&#x09;" horiz-adv-x="250" />
<glyph unicode="&#xa0;" horiz-adv-x="250" />
<glyph unicode="!" horiz-adv-x="254" d="M63 450h132l-23 -302h-86zM129 113q25 0 42 -17t17 -43q0 -24 -17.5 -41.5t-41.5 -17.5t-41.5 17.5t-17.5 41.5t17 42t42 18z" />
<glyph unicode="&#x22;" horiz-adv-x="401" d="M111 370l-61 183q-2 10 -2 15q0 23 19.5 41.5t43.5 18.5q25 0 44 -19t19 -44q0 -4 -2 -12zM290 370l-61 183q-2 10 -2 15q0 23 19.5 41.5t43.5 18.5q25 0 44 -19t19 -44q0 -4 -2 -12z" />
<glyph unicode="#" horiz-adv-x="391" d="M258 -31h-61v102q-67 8 -114.5 58t-47.5 114t47 113.5t115 57.5v98h61v-99q29 0 53 -7.5t48 -22.5v-117l-69 70q-14 14 -29 20.5t-39 6.5q-32 0 -42 -28t-10 -92q0 -68 17 -94t61 -26q21 0 38 6t34 24l4 4l39 -35l-5 -5q-22 -18 -46 -29t-54 -15v-104z" />
<glyph unicode="$" horiz-adv-x="332" d="M205 -31h-61v96l-11 3l-115 31l69 81l56 -62q5 -4 11.5 -7t18.5 -3q19 0 34.5 9t15.5 27q0 19 -8 24l-128 58q-26 11 -38 33t-12 44q0 48 30.5 77.5t76.5 36.5v95h61v-98l7 -1l108 -29l-65 -80l-52 60q-8 8 -23 8q-47 0 -47 -28q0 -10 6 -16t19 -13l108 -54 q23 -11 36.5 -31t13.5 -52q0 -46 -30.5 -76.5t-80.5 -37.5v-95z" />
<glyph unicode="%" horiz-adv-x="298" d="M184 162h-54v86l-10 2l-103 28l61 73l50 -56q4 -3 11 -6t16 -3q19 0 32.5 8t13.5 25t-8 21l-115 53q-24 10 -34.5 29.5t-10.5 40.5q0 42 28 68.5t69 32.5v86h54v-88l7 -1l97 -26l-59 -72l-46 54q-6 6 -21 6q-43 0 -43 -24q0 -16 23 -26l97 -49q19 -10 32 -28.5t13 -46.5 q0 -41 -28 -69t-72 -33v-85z" />
<glyph unicode="&#x26;" horiz-adv-x="464" d="M251 222q-41 0 -69.5 -25t-28.5 -62q0 -38 21 -62.5t63 -24.5q19 0 28.5 4t22.5 18v183h177l-61 -61v-157q-29 -18 -68.5 -30.5t-98.5 -12.5q-72 0 -140.5 33.5t-68.5 98.5q0 41 23.5 72t64.5 47q-30 18 -43 44t-13 53q0 66 52 92t122 26q42 0 79.5 -8t66.5 -23v-119 l-69 69q-14 14 -29 22t-35 8q-26 0 -46.5 -19.5t-20.5 -49.5q0 -22 17 -44t54 -35v-37z" />
<glyph unicode="'" horiz-adv-x="228" d="M114 370l-61 183q-2 8 -2 13q0 24 19 43t44 19t44 -18t19 -42q0 -5 -2 -15z" />
<glyph unicode="(" horiz-adv-x="290" d="M282 645q-68 -88 -94.5 -162.5t-26.5 -187.5q0 -112 26 -186.5t95 -163.5l-19 -29q-110 68 -165.5 161t-55.5 218t55.5 218t165.5 161z" />
<glyph unicode=")" horiz-adv-x="290" d="M28 -84l-20 29q68 88 94.5 162.5t26.5 187.5q0 112 -26 186.5t-95 163.5l20 29q110 -68 165 -161t55 -218q0 -124 -55 -217.5t-165 -161.5z" />
<glyph unicode="*" horiz-adv-x="542" d="M54 58q0 28 19.5 47.5t47.5 19.5t47.5 -19.5t19.5 -47.5q0 -27 -19.5 -46.5t-47.5 -19.5t-47.5 19.5t-19.5 46.5zM325 58q0 28 19.5 47.5t47.5 19.5q27 0 46.5 -19.5t19.5 -47.5q0 -27 -19.5 -46.5t-46.5 -19.5q-28 0 -47.5 19.5t-19.5 46.5z" />
<glyph unicode="+" horiz-adv-x="542" d="M189 58q0 28 19.5 47.5t47.5 19.5t47.5 -19.5t19.5 -47.5q0 -27 -19.5 -46.5t-47.5 -19.5t-47.5 19.5t-19.5 46.5z" />
<glyph unicode="," horiz-adv-x="271" d="M59 -140v194q0 26 18.5 44.5t43.5 18.5q28 0 45.5 -19.5t17.5 -43.5q0 -14 -8 -27z" />
<glyph unicode="-" horiz-adv-x="332" d="M46 269h240v-69h-240v69z" />
<glyph unicode="." horiz-adv-x="271" d="M54 58q0 28 19.5 47.5t47.5 19.5t47.5 -19.5t19.5 -47.5q0 -27 -19.5 -46.5t-47.5 -19.5t-47.5 19.5t-19.5 46.5z" />
<glyph unicode="/" horiz-adv-x="358" d="M268 632h95l-252 -632h-95z" />
<glyph unicode="0" horiz-adv-x="496" d="M248 607q107 0 159 -91.5t52 -220.5q0 -130 -51.5 -221t-159.5 -91t-160 91t-52 221t51.5 221t160.5 91zM331 295q0 146 -19 200.5t-64 54.5t-64.5 -55t-19.5 -200q0 -147 18.5 -201t65.5 -54q45 0 64 54.5t19 200.5z" />
<glyph unicode="1" horiz-adv-x="496" d="M129 0l47 47v463l-45 45l168 44v-552l47 -47h-217z" />
<glyph unicode="2" horiz-adv-x="496" d="M119 540q19 19 64.5 43t85.5 24q73 0 120.5 -38.5t47.5 -107.5q0 -47 -24 -78t-80 -90l-200 -207h261l47 47v-133h-403v59l194 238q35 44 59.5 80t24.5 70q0 43 -22 67t-66 24q-31 0 -60.5 -16.5t-44.5 -32.5l-40 -40l-25 29z" />
<glyph unicode="3" horiz-adv-x="496" d="M126 310q72 15 114.5 58t42.5 84t-24 67t-72 26q-34 0 -64 -16.5t-53 -33.5l-29 29q54 42 95.5 61t99.5 19q77 0 125 -36.5t48 -99.5q0 -47 -41 -90t-96 -59q67 -11 111.5 -47t44.5 -98q0 -94 -103 -142.5t-246 -48.5h-41v49h41q105 0 161.5 37t56.5 105q0 49 -50 73.5 t-121 24.5v38z" />
<glyph unicode="4" horiz-adv-x="496" d="M204 0l59 59v108h-237v32l302 399h59v-370h62v-61h-62v-108l59 -59h-242zM263 413l-140 -185h140v185z" />
<glyph unicode="5" horiz-adv-x="496" d="M444 181q0 -94 -108.5 -146t-247.5 -52h-25v49h25q97 0 159.5 31.5t62.5 103.5q0 45 -32.5 68t-83.5 23q-36 0 -67 -6t-55 -12v350h355l-45 -107h-258v-165q21 6 48 12t61 6q86 0 148.5 -37t62.5 -118z" />
<glyph unicode="6" horiz-adv-x="496" d="M467 180q0 -81 -67.5 -137t-141.5 -56q-100 0 -160 66t-60 170q0 145 83.5 263t214.5 118l25 -1l10 -30q-32 -10 -64 -19q-106 -52 -136 -245q18 27 44.5 43.5t63.5 16.5q72 0 130 -52.5t58 -136.5zM257 312q-28 0 -57 -18.5t-33 -34t-5 -25.5t-1 -23q0 -175 97 -175 q36 0 56.5 38t20.5 93q0 63 -13 104t-65 41z" />
<glyph unicode="7" horiz-adv-x="496" d="M51 590h408l-226 -533v-57h-122l242 483h-243l-59 -59v166z" />
<glyph unicode="8" horiz-adv-x="496" d="M464 158q0 -77 -65 -124t-151 -47q-84 0 -149.5 47t-65.5 124q0 114 102 157q-38 21 -60.5 56t-22.5 77q0 65 60 110t136 45q78 0 137.5 -44.5t59.5 -110.5q0 -41 -22.5 -76.5t-61.5 -54.5q51 -23 77 -63t26 -96zM248 36q41 0 65 36.5t24 85.5q0 51 -23.5 90.5 t-65.5 39.5t-65 -39t-23 -91q0 -49 23.5 -85.5t64.5 -36.5zM248 554q-35 0 -51 -34t-16 -83q0 -38 17.5 -69.5t49.5 -31.5t50 31.5t18 69.5q0 51 -16 84t-52 33z" />
<glyph unicode="9" horiz-adv-x="496" d="M27 410q0 81 67.5 137t140.5 56q101 0 161 -66t60 -170q0 -144 -84 -262.5t-214 -118.5l-25 1l-10 31q96 31 138 82.5t62 180.5q-18 -27 -44.5 -43.5t-64.5 -16.5q-72 0 -129.5 52.5t-57.5 136.5zM237 278q28 0 56.5 18.5t32.5 33t5.5 22t1.5 27.5q0 175 -98 175 q-36 0 -56.5 -38t-20.5 -93q0 -64 13.5 -104.5t65.5 -40.5z" />
<glyph unicode=":" horiz-adv-x="271" d="M54 58q0 28 19.5 47.5t47.5 19.5t47.5 -19.5t19.5 -47.5q0 -27 -19.5 -46.5t-47.5 -19.5t-47.5 19.5t-19.5 46.5zM54 304q0 28 19.5 47.5t47.5 19.5t47.5 -19.5t19.5 -47.5q0 -27 -19.5 -46.5t-47.5 -19.5t-47.5 19.5t-19.5 46.5z" />
<glyph unicode=";" horiz-adv-x="271" d="M59 -140v194q0 26 18.5 44.5t43.5 18.5q28 0 45.5 -19.5t17.5 -43.5q0 -14 -8 -27zM54 304q0 28 19.5 47.5t47.5 19.5t47.5 -19.5t19.5 -47.5q0 -27 -19.5 -46.5t-47.5 -19.5t-47.5 19.5t-19.5 46.5z" />
<glyph unicode="&#x3c;" horiz-adv-x="350" d="M108 212l158 145v-18l-62 -127l62 -128v-17z" />
<glyph unicode="=" horiz-adv-x="650" d="M0 265h650v-61h-650v61z" />
<glyph unicode="&#x3e;" horiz-adv-x="350" d="M109 84l62 128l-62 127v18l159 -145l-159 -145v17z" />
<glyph unicode="?" horiz-adv-x="405" d="M4 438l120 18q34 5 46.5 6t32.5 1q86 0 127 -43.5t41 -89.5q0 -21 -8 -36t-18 -23l-134 -123h-88v34l100 101q9 9 16.5 24t7.5 29q0 32 -27.5 51t-55.5 19q-17 0 -33 -8l-63 -63zM171 113q24 0 41.5 -17.5t17.5 -42.5q0 -24 -17.5 -41.5t-41.5 -17.5q-25 0 -42 17t-17 42 q0 24 17 42t42 18z" />
<glyph unicode="@" horiz-adv-x="633" d="M63 411q21 14 54 21t67 7q56 0 95.5 -22.5t39.5 -63.5v-165l52 -51h-158v41l-68 -45q-17 -10 -35 -10q-32 0 -58.5 27.5t-26.5 63.5q0 49 44.5 79t102.5 30h41v30q0 18 -7 28.5t-27 10.5q-21 0 -36 -14l-80 -68v101zM152 191q4 0 17 8l44 28v51h-25q-30 0 -45.5 -15.5 t-15.5 -48.5q0 -9 7 -16t18 -7zM613 181l-2 -5q-13 -26 -41.5 -38.5t-51.5 -12.5q-42 0 -69 22t-27 56v159h-68l173 151v-85h88v-46h-88v-206q34 3 53 27l3 4zM30 55h585v-55h-585v55z" />
<glyph unicode="A" horiz-adv-x="533" d="M-25 0l64 64l188 526h76l183 -526l64 -64h-254l62 63l-33 100h-177l-35 -100l62 -63h-200zM303 223l-65 195l-69 -195h134z" />
<glyph unicode="B" horiz-adv-x="512" d="M80 63v464l-63 63h229q87 0 149.5 -39.5t62.5 -122.5q0 -35 -33 -72.5t-78 -50.5q56 -9 98 -54.5t42 -97.5q0 -79 -65.5 -116t-154.5 -37h-250zM203 328h43q38 0 61 27.5t23 72.5q0 47 -22 74t-62 27h-43v-201zM359 153q0 46 -25.5 80t-66.5 34h-64v-206h64 q41 0 66.5 22.5t25.5 69.5z" />
<glyph unicode="C" horiz-adv-x="486" d="M461 568v-144l-93 94q-29 28 -73 28q-75 0 -100.5 -71.5t-25.5 -179.5q0 -105 26.5 -176t99.5 -71q44 0 73 29l93 93v-148q-41 -22 -77 -28.5t-89 -6.5q-112 0 -191 93t-79 215t79 215t191 93q61 0 91 -6t75 -29z" />
<glyph unicode="D" horiz-adv-x="583" d="M80 63v464l-63 63h271q114 0 192 -88t78 -207q0 -120 -77.5 -207.5t-192.5 -87.5h-271zM267 61q73 0 109.5 69.5t36.5 164.5q0 94 -36 164t-110 70h-64v-468h64z" />
<glyph unicode="E" horiz-adv-x="458" d="M17 0l63 63v464l-63 63h416v-141l-80 80h-150v-185h104l63 64v-188l-63 63h-104v-222h150l80 80v-141h-416z" />
<glyph unicode="F" horiz-adv-x="438" d="M80 63v464l-63 63h416v-141l-80 80h-150v-185h104l63 64v-188l-63 63h-104v-220l64 -63h-250z" />
<glyph unicode="G" horiz-adv-x="583" d="M25 295q0 122 94 215t214 93q53 0 87.5 -6.5t77.5 -28.5v-144l-93 94q-29 28 -72 28q-80 0 -122 -75.5t-42 -175.5q0 -107 37.5 -181t126.5 -74q32 0 46 13.5t21 21.5v185l-59 59h242l-60 -59v-230q-46 -26 -88.5 -34.5t-101.5 -8.5q-121 0 -214.5 92.5t-93.5 215.5z" />
<glyph unicode="H" horiz-adv-x="596" d="M203 288v-225l64 -63h-250l63 63v464l-63 63h250l-64 -63v-179h190v179l-64 63h250l-63 -63v-464l63 -63h-250l64 63v225h-190z" />
<glyph unicode="I" horiz-adv-x="300" d="M275 590l-63 -63v-464l63 -63h-250l63 63v464l-63 63h250z" />
<glyph unicode="J" horiz-adv-x="313" d="M292 590l-64 -63v-515q0 -73 -46.5 -126t-116.5 -53h-167l89 121l73 -72q45 15 45 60v585l-63 63h250z" />
<glyph unicode="K" horiz-adv-x="558" d="M267 0h-250l63 63v464l-63 63h250l-64 -63v-203l209 209l-58 57h196l-233 -233l260 -357h-197v61l-177 246v-244z" />
<glyph unicode="L" horiz-adv-x="429" d="M424 141v-141h-407l63 63v464l-63 63h250l-64 -63v-466h141z" />
<glyph unicode="M" horiz-adv-x="704" d="M17 0l63 63v464l-63 63h197l144 -256l145 256h185l-64 -63v-464l64 -63h-250l63 63v395l-176 -315l-176 315v-395l64 -63h-196z" />
<glyph unicode="N" horiz-adv-x="563" d="M213 0h-196l63 63v464l-63 63h164l245 -352v289l-63 63h195l-63 -63v-596l-346 500v-368z" />
<glyph unicode="O" horiz-adv-x="590" d="M295 607q118 0 194 -92.5t76 -219.5q0 -125 -76 -218.5t-194 -93.5t-194 92.5t-76 219.5q0 125 76 218.5t194 93.5zM421 295q0 107 -26.5 179t-99.5 72q-72 0 -99 -73t-27 -178q0 -107 26.5 -179t99.5 -72q72 0 99 73t27 178z" />
<glyph unicode="P" horiz-adv-x="521" d="M80 63v464l-63 63h250q95 0 168 -45.5t73 -128.5t-72.5 -128.5t-168.5 -45.5h-64v-179l64 -63h-250zM372 416q0 46 -30.5 79.5t-74.5 33.5h-64v-226h64q44 0 74.5 33.5t30.5 79.5z" />
<glyph unicode="Q" horiz-adv-x="590" d="M467 -63l-173 46q-116 0 -192.5 93.5t-76.5 218.5t76 218.5t194 93.5t194 -93.5t76 -218.5q0 -69 -28 -137t-87 -118h120zM421 295q0 107 -26.5 179t-99.5 72q-72 0 -99 -73t-27 -178q0 -107 26.5 -179t99.5 -72q72 0 99 73t27 178z" />
<glyph unicode="R" horiz-adv-x="521" d="M550 0h-173l-132 267h-42v-204l64 -63h-250l63 63v464l-63 63h229q89 0 158.5 -40.5t69.5 -116.5q0 -54 -34 -91.5t-77 -52.5l124 -226zM203 328h43q39 0 65.5 31t26.5 74q0 39 -26.5 67.5t-65.5 28.5h-43v-201z" />
<glyph unicode="S" horiz-adv-x="421" d="M205 -9q-15 0 -31 1t-32 4l-134 22l63 121l74 -83q24 -18 54 -18q33 0 61 24t28 68q0 25 -10 41t-25 26l-141 87q-51 31 -71.5 73t-20.5 77q0 66 45.5 113.5t135.5 47.5q25 0 55 -5l129 -22l-63 -112l-69 74q-22 14 -45 14q-33 0 -55 -22t-22 -46q0 -23 13 -43.5 t42 -39.5l142 -87q31 -19 53 -52.5t22 -83.5q0 -74 -49 -126.5t-149 -52.5z" />
<glyph unicode="T" horiz-adv-x="473" d="M362 0h-250l63 63v466h-82l-80 -80v141h448v-141l-80 80h-83v-466z" />
<glyph unicode="U" horiz-adv-x="558" d="M72 527l-64 63h250l-63 -63v-369q0 -44 32 -77t77 -33t77 32t32 78v369l-63 63h200l-63 -63v-369q0 -75 -62 -125t-146 -50q-81 0 -144 48.5t-63 126.5v369z" />
<glyph unicode="V" horiz-adv-x="500" d="M175 528l104 -355l109 355l-63 62h200l-64 -64l-171 -526h-76l-166 526l-65 64h255z" />
<glyph unicode="W" horiz-adv-x="796" d="M214 0l-166 526l-65 64h255l-63 -62l104 -355l87 282l-23 72l-64 63h254l-62 -62l104 -355l108 355l-62 62h200l-64 -64l-171 -526h-76l-108 343l-112 -343h-76z" />
<glyph unicode="X" horiz-adv-x="542" d="M0 590h208v-62l85 -146l107 146l-62 62h204l-64 -64l-150 -203l154 -259l64 -64h-208v62l-90 152l-110 -151l62 -63h-204l64 64l154 209l-150 253z" />
<glyph unicode="Y" horiz-adv-x="504" d="M-17 590h267l-62 -62l104 -192l104 192l-63 62h196l-64 -64l-145 -260v-203l63 -63h-250l64 63v203l-149 260z" />
<glyph unicode="Z" horiz-adv-x="436" d="M21 449v141h401l-250 -529h163l80 80v-141h-401l250 529h-163z" />
<glyph unicode="[" horiz-adv-x="270" d="M258 484l-3 -4q-56 -65 -78 -119.5t-22 -135.5q0 -83 21.5 -135.5t78.5 -119.5l3 -4l-22 -30l-5 2q-94 51 -141.5 121.5t-47.5 165.5q0 94 47.5 164.5t141.5 122.5l5 2z" />
<glyph unicode="\" horiz-adv-x="248" d="M15 445h-37l253 -445h37z" />
<glyph unicode="]" horiz-adv-x="270" d="M35 -64l-23 30l3 4q56 65 78 119.5t22 135.5q0 83 -21.5 135.5t-78.5 119.5l-3 4l23 30l5 -2q94 -52 141 -122t47 -165q0 -94 -47 -165t-141 -122z" />
<glyph unicode="^" horiz-adv-x="333" d="M330 522l-143 61l-144 -61h-18l162 161l161 -161h-18z" />
<glyph unicode="_" horiz-adv-x="467" d="M-2 0h469v-61h-469v61z" />
<glyph unicode="`" horiz-adv-x="438" d="M75 675l128 -127l-172 70q-10 4 -17 15t-7 22q0 14 11 23t26 9q17 0 31 -12z" />
<glyph unicode="a" horiz-adv-x="475" d="M-20 0l63 63l156 387h73l153 -387l63 -63h-242l58 58l-22 62h-140l-25 -62l58 -58h-195zM213 298l-48 -120h94z" />
<glyph unicode="b" horiz-adv-x="457" d="M74 60v330l-60 60h206q77 0 130.5 -30t53.5 -97q0 -24 -21.5 -49.5t-54.5 -39.5q44 -13 72.5 -44.5t28.5 -69.5q0 -64 -56.5 -92t-134.5 -28h-224zM220 256q31 0 47.5 17.5t16.5 49.5q0 69 -64 69h-29v-136h29zM238 198h-47v-140h47q70 0 70 62q0 31 -19.5 54.5 t-50.5 23.5z" />
<glyph unicode="c" horiz-adv-x="435" d="M408 299l-78 78q-15 12 -32.5 19.5t-36.5 7.5q-58 0 -78 -50.5t-20 -128.5q0 -77 20.5 -126.5t77.5 -49.5q18 0 35.5 7.5t33.5 20.5l78 77v-136q-38 -17 -68 -22t-79 -5q-97 0 -165 70t-68 164q0 92 68 163t165 71q49 0 78.5 -4.5t68.5 -22.5v-133z" />
<glyph unicode="d" horiz-adv-x="516" d="M74 60v330l-60 60h241q99 0 166 -67t67 -158t-67 -158t-166 -67h-241zM354 225q0 67 -29.5 117t-86.5 50h-47v-334h47q57 0 86.5 49t29.5 118z" />
<glyph unicode="e" horiz-adv-x="411" d="M14 0l60 60v330l-60 60h369v-129l-70 71h-122v-124h82l58 59v-175l-58 58h-82v-152h120l72 73v-131h-369z" />
<glyph unicode="f" horiz-adv-x="394" d="M74 60v330l-60 60h369v-130l-71 72h-121v-124h82l58 59v-175l-58 58h-82v-150l60 -60h-237z" />
<glyph unicode="g" horiz-adv-x="517" d="M293 459q46 0 78 -5.5t67 -21.5v-132l-72 73q-15 12 -35.5 21.5t-37.5 9.5q-63 0 -96.5 -53.5t-33.5 -125.5q0 -78 29.5 -130t100.5 -52q20 0 33 8q13 11 17 15v123l-60 60h237l-60 -60v-164q-39 -19 -79 -26.5t-88 -7.5q-105 0 -185 70t-80 164q0 95 79.5 164.5 t185.5 69.5z" />
<glyph unicode="h" horiz-adv-x="528" d="M191 60l60 -60h-237l60 60v330l-60 60h237l-60 -60v-119h146v119l-60 60h236l-60 -60v-330l60 -60h-236l60 60v153h-146v-153z" />
<glyph unicode="i" horiz-adv-x="278" d="M258 450l-60 -60v-330l60 -60h-237l60 60v330l-60 60h237z" />
<glyph unicode="j" horiz-adv-x="289" d="M272 450l-60 -60v-375q0 -55 -41.5 -96.5t-102.5 -41.5h-154l90 110l60 -60q31 8 31 37v426l-60 60h237z" />
<glyph unicode="k" horiz-adv-x="496" d="M14 0l60 60v330l-60 60h237l-60 -60v-129l155 137l-53 52h200l-205 -180l224 -270h-186v50l-135 165v-155l60 -60h-237z" />
<glyph unicode="l" horiz-adv-x="388" d="M377 0h-363l60 60v330l-60 60h237l-60 -60v-332h113l73 73v-131z" />
<glyph unicode="m" horiz-adv-x="618" d="M14 0l60 60v330l-60 60h183l117 -183l119 183h171l-60 -60v-330l60 -60h-236l60 60v263l-141 -223l-142 223v-263l60 -60h-191z" />
<glyph unicode="n" horiz-adv-x="499" d="M14 0l60 60v330l-60 60h154l196 -247v187l-60 60h192l-60 -60v-453l-291 370v-247l60 -60h-191z" />
<glyph unicode="o" horiz-adv-x="523" d="M495 225q0 -96 -66 -167t-168 -71t-167.5 71t-65.5 167q0 95 65.5 166.5t167.5 71.5q101 0 167.5 -71.5t66.5 -166.5zM261 404q-55 0 -76.5 -51.5t-21.5 -127.5q0 -75 22 -127t76 -52t76.5 52.5t22.5 126.5q0 75 -22 127t-77 52z" />
<glyph unicode="p" horiz-adv-x="464" d="M74 60v330l-60 60h224q83 0 146 -35t63 -101q0 -64 -64 -99.5t-145 -35.5h-47v-119l60 -60h-237zM238 392h-47v-154h47q33 0 57 23t24 53q0 31 -23.5 54.5t-57.5 23.5z" />
<glyph unicode="q" horiz-adv-x="523" d="M411 -52l-150 39q-102 0 -167.5 71t-65.5 167q0 95 65.5 166.5t167.5 71.5q101 0 167.5 -71.5t66.5 -166.5q0 -48 -20.5 -96t-64.5 -86h96zM261 404q-55 0 -76.5 -51.5t-21.5 -127.5q0 -75 22 -127t76 -52t76.5 52.5t22.5 126.5q0 75 -22 127t-77 52z" />
<glyph unicode="r" horiz-adv-x="464" d="M326 0l-111 198h-24v-138l60 -60h-237l60 60v330l-60 60h206q79 0 138.5 -31t59.5 -92q0 -40 -27.5 -68.5t-62.5 -40.5l95 -153l65 -65h-162zM220 256q31 0 51 21t20 50q0 27 -20 46t-51 19h-29v-136h29z" />
<glyph unicode="s" horiz-adv-x="380" d="M132 -3l-123 18l62 106l68 -67q18 -12 42 -12q26 0 47 15.5t21 45.5q0 16 -7.5 26t-18.5 18l-119 64q-45 25 -63 57t-18 60q0 50 41 87.5t118 37.5h22.5t24.5 -3l119 -17l-64 -100l-62 61q-20 9 -34 9q-25 0 -41.5 -15t-16.5 -29t10 -28.5t33 -27.5l119 -64 q27 -14 47 -41t20 -65q0 -58 -43 -99t-130 -41h-33q-15 3 -21 4z" />
<glyph unicode="t" horiz-adv-x="424" d="M93 0l60 60v332h-64l-71 -72v130h389v-130l-72 72h-65v-332l60 -60h-237z" />
<glyph unicode="u" horiz-adv-x="496" d="M7 450h236l-59 -60v-267q0 -30 25 -52t60 -22t60 22t25 52v267l-60 60h194l-59 -60v-267q0 -60 -53.5 -98t-127.5 -38q-71 0 -126 37t-55 99v267z" />
<glyph unicode="v" horiz-adv-x="447" d="M170 391l78 -234l81 234l-59 59h198l-62 -62l-144 -388h-74l-140 388l-62 62h243z" />
<glyph unicode="w" horiz-adv-x="695" d="M188 0l-140 388l-61 62h242l-59 -59l78 -234l65 187l-15 44l-62 62h242l-59 -59l78 -234l81 234l-60 59h198l-62 -62l-143 -388h-74l-87 241l-89 -241h-73z" />
<glyph unicode="x" horiz-adv-x="482" d="M194 450v-51l67 -99l76 92l-59 58h201l-63 -63l-119 -141l124 -183l62 -63h-192v51l-70 103l-79 -96l57 -58h-201l64 63l123 145l-120 180l-62 62h191z" />
<glyph unicode="y" horiz-adv-x="450" d="M240 450l-58 -58l76 -124l77 124l-58 58h193l-62 -62l-119 -186v-142l60 -60h-236l60 60v141l-122 187l-63 62h252z" />
<glyph unicode="z" horiz-adv-x="393" d="M24 450h354l-210 -392h129l71 72v-130h-354l210 392h-129l-71 -71v129z" />
<glyph unicode="{" horiz-adv-x="503" d="M348 609h37l-5 -10q23 -3 47 -12l10 22h36l-15 -35l11 -6v-144l-53 54l-178 -407q28 -23 65 -23q44 0 73 29l93 93v-148q-41 -22 -77 -28.5t-89 -6.5q-49 0 -92 20l-7 -15h-36l13 30q-20 11 -39 29l-26 -59h-37l37 84q-40 45 -61.5 100.5t-21.5 118.5q0 122 79 215 t191 93l42 -1zM320 545l-17 1q-74 0 -99.5 -71.5t-25.5 -179.5v-34t3 -37zM190 163q5 -20 10.5 -34.5t13.5 -29.5l176 404l-14 15q-6 5 -10.5 9t-12.5 8z" />
<glyph unicode="|" horiz-adv-x="496" d="M129 0l47 47v463l-45 45l168 44v-552l47 -47h-217z" />
<glyph unicode="}" horiz-adv-x="1010" d="M693 -108l60 -59h-242l59 59v420l-57 57l180 62v-58q21 30 52 49.5t68 19.5q76 0 124 -72t48 -157q0 -86 -47.5 -158t-124.5 -72q-35 0 -67 20t-53 49v-160zM693 118q8 -32 30.5 -50.5t54.5 -18.5q39 0 51 39t12 125q0 88 -12 125.5t-51 37.5q-33 0 -55 -18t-30 -50v-190 zM550 0h-173l-132 267h-42v-204l64 -63h-250l63 63v464l-63 63h229q89 0 158.5 -40.5t69.5 -116.5q0 -54 -34 -91.5t-77 -52.5l124 -226zM203 328h43q39 0 65.5 31t26.5 74q0 39 -26.5 67.5t-65.5 28.5h-43v-201z" />
<glyph unicode="~" horiz-adv-x="292" d="M50 592q6 40 39 67t65 27q27 0 45 -14.5t29 -14.5q13 0 20.5 8.5t14.5 20.5h20q-6 -40 -39 -67t-65 -27q-22 0 -42.5 14.5t-30.5 14.5q-11 0 -19.5 -7.5t-16.5 -21.5h-20z" />
<glyph unicode="&#xa1;" d="M96 0l42 43v296l-40 40l146 34v-370l43 -43h-191z" />
<glyph unicode="&#xa2;" d="M153 0l52 52v59h-179v30l232 269h53v-247h47v-52h-47v-59l52 -52h-210zM117 163h88v103z" />
<glyph unicode="&#xa3;" d="M101 218h5q53 10 84 38t31 51q0 25 -16.5 40.5t-51.5 15.5q-25 0 -51 -12q-26 -15 -32 -18l-8 -5l-26 29l7 5q32 24 67 38t81 14q59 0 97.5 -25.5t38.5 -70.5q0 -30 -24.5 -56.5t-60.5 -41.5q45 -10 72.5 -34t27.5 -63q0 -67 -80.5 -100.5t-189.5 -33.5h-37v44h37 q158 0 158 90q0 27 -35.5 42.5t-86.5 15.5h-7v37z" />
<glyph unicode="&#xa4;" d="M98 556q24 21 58 33t59 12q57 0 95 -27t38 -76q0 -35 -23 -61t-58 -55l-139 -128h181l42 42v-111h-316v48l148 159q27 27 44 53.5t17 42.5q0 28 -13.5 41.5t-47.5 13.5q-20 0 -40.5 -10t-34.5 -21l-35 -30l-26 28z" />
<glyph unicode="&#xa5;" horiz-adv-x="485" d="M450 290v-59h-128l-19 -29v-6h147v-58h-147v-78l60 -60h-236l60 60v78h-148v58h148v5l-20 30h-128v59h89l-63 98l-62 62h251l-58 -58l77 -124l76 124l-58 58h193l-62 -62l-63 -98h91z" />
<glyph unicode="&#xa6;" horiz-adv-x="270" d="M168 292v-292h-62v292h62zM168 667v-292h-62v292h62z" />
<glyph unicode="&#xa7;" d="M207 -8q-78 0 -125.5 45.5t-47.5 116.5q0 99 65 179.5t167 80.5h23l12 -31l-7 -2q-65 -17 -95 -46.5t-47 -102.5q14 13 30.5 19.5t40.5 6.5q56 0 102 -36.5t46 -95.5q0 -58 -53 -96t-111 -38zM142 169q-1 -4 -2 -11t-1 -12q0 -110 68 -110q23 0 37.5 23.5t14.5 57.5 q0 40 -9.5 65.5t-43.5 25.5q-18 0 -39 -12.5t-25 -26.5z" />
<glyph unicode="&#xa8;" horiz-adv-x="302" d="M224 570q-24 0 -40 16t-16 40t16 40t40 16t40 -16t16 -40t-16 -40t-40 -16zM69 571q-24 0 -40 16t-16 40t16 40t40 16t40 -16t16 -40t-16 -40t-40 -16z" />
<glyph unicode="&#xa9;" horiz-adv-x="352" d="M232 -28h-55v91q-59 7 -102 53t-43 102q0 57 42.5 102t102.5 53v88h55v-89q48 0 91 -27v-106l-62 64q-12 12 -26 17.5t-36 5.5q-28 0 -37 -24.5t-9 -83.5q0 -60 15.5 -83.5t54.5 -23.5q23 0 37.5 7t27.5 20l4 3l35 -32l-5 -4q-37 -31 -90 -40v-93z" />
<glyph unicode="&#xaa;" d="M190 413q78 0 125.5 -45.5t47.5 -116.5q0 -99 -65 -179.5t-167 -80.5h-23l-12 32l7 1q65 17 95 46.5t47 102.5q-15 -13 -30.5 -19.5t-40.5 -6.5q-56 0 -102 36.5t-46 95.5q0 58 53 96t111 38zM255 236q1 4 2 11t1 12q0 110 -68 110q-24 0 -38 -23t-14 -58 q0 -41 8.5 -65.5t44.5 -24.5q19 0 39.5 11.5t24.5 26.5z" />
<glyph unicode="&#xab;" horiz-adv-x="350" d="M20 212l158 145v-18l-61 -127l61 -128v-17zM170 212l158 145v-18l-61 -127l61 -128v-17z" />
<glyph unicode="&#xac;" horiz-adv-x="398" d="M21 450h237l-60 -60v-62l53 42v-77l-53 -41v-194h113l72 73v-131h-362l60 60v98l-56 -43v78l56 44v153z" />
<glyph unicode="&#xae;" horiz-adv-x="640" d="M320 0q-122 0 -208.5 86.5t-86.5 208.5q0 123 86 209t209 86t209 -86t86 -209q0 -122 -86.5 -208.5t-208.5 -86.5zM563 295q0 101 -71 172t-172 71q-100 0 -171 -71t-71 -172t70.5 -171.5t171.5 -70.5t172 70t71 172zM327 133h-145l36 37v253l-36 38h130q50 0 88 -22.5 t38 -65.5q0 -29 -18 -50t-42 -30l67 -123l38 -37h-100l-73 147h-21v-110zM289 317h23q21 0 35 16t14 40q0 21 -14 36t-35 15h-23v-107z" />
<glyph unicode="&#xb0;" d="M199 177q-66 0 -117 32t-51 87q0 75 70 106q-25 14 -40.5 37.5t-15.5 49.5q0 48 47 78.5t107 30.5q62 0 109 -30.5t47 -78.5q0 -27 -14.5 -49.5t-42.5 -37.5q71 -32 71 -106q0 -55 -51 -87t-119 -32zM260 296q0 32 -16 56t-45 24q-27 0 -44 -24t-17 -56q0 -31 16.5 -53 t44.5 -22t44.5 22t16.5 53zM154 482q0 -24 12 -42.5t33 -18.5t33 18.5t12 42.5q0 34 -10 53t-35 19q-24 0 -34.5 -19.5t-10.5 -52.5z" />
<glyph unicode="&#xb1;" horiz-adv-x="0" />
<glyph unicode="&#xb2;" horiz-adv-x="0" />
<glyph unicode="&#xb3;" horiz-adv-x="0" />
<glyph unicode="&#xb4;" horiz-adv-x="438" d="M206 618l-172 -70l128 127q12 12 30 12q20 0 29 -11t9 -22q0 -26 -24 -36z" />
<glyph unicode="&#xb5;" horiz-adv-x="494" d="M181 431v-328q0 -13 8.5 -25t26.5 -12q24 0 55 32l41 40v174l-58 57l181 62v-372l59 -59h-182v74l-36 -36q-54 -51 -95 -51v-95l59 -59h-182v479l-58 57z" />
<glyph unicode="&#xb6;" d="M44 405h324l-175 -362v-43h-107l182 322h-174l-50 -50v133z" />
<glyph unicode="&#xb8;" horiz-adv-x="210" d="M204 19l-51 -50q25 -2 44 -17.5t19 -39.5q0 -35 -41.5 -55t-91.5 -20h-15v24h15q18 0 29.5 8.5t11.5 25.5q0 14 -12 24t-28 10h-38l90 90h68z" />
<glyph unicode="&#xb9;" horiz-adv-x="0" />
<glyph unicode="&#xba;" d="M365 203q0 -88 -40.5 -151t-126.5 -63q-84 0 -124.5 63t-40.5 151q0 87 40.5 150t124.5 63q86 0 126.5 -62.5t40.5 -150.5zM198 366q-30 0 -43 -34t-13 -129q0 -96 13 -130t43 -34t44 34t14 130q0 95 -13.5 129t-44.5 34z" />
<glyph unicode="&#xbb;" horiz-adv-x="350" d="M172 84l61 128l-61 127v18l158 -145l-158 -145v17zM22 84l61 128l-61 127v18l158 -145l-158 -145v17z" />
<glyph unicode="&#xbc;" horiz-adv-x="0" />
<glyph unicode="&#xbd;" horiz-adv-x="0" />
<glyph unicode="&#xbe;" horiz-adv-x="0" />
<glyph unicode="&#xbf;" horiz-adv-x="405" d="M388 15l-120 -18q-44 -6 -80 -6q-85 0 -126 43t-41 89q0 18 5.5 32.5t20.5 27.5l134 123h87v-34l-100 -102q-8 -9 -15.5 -24t-7.5 -28q0 -32 27.5 -51t55.5 -19q19 0 33 7l63 63zM221 341q-25 0 -42 17t-17 42t17 42t42 17q24 0 41.5 -17.5t17.5 -41.5t-17.5 -41.5 t-41.5 -17.5z" />
<glyph unicode="&#xc0;" d="M96 185l42 43v296l-40 40l146 34v-370l43 -43h-191z" />
<glyph unicode="&#xc1;" d="M78 174h-24v44h24q70 0 116 20.5t46 63.5q0 26 -22.5 40.5t-58.5 14.5q-35 0 -61 -5t-38 -9v247h283l-39 -83h-192v-96q21 3 42.5 6.5t33.5 3.5q68 0 117 -25t49 -84q0 -67 -84.5 -102.5t-191.5 -35.5z" />
<glyph unicode="&#xc2;" horiz-adv-x="331" d="M318 517v-145l-89 81l-58 -60v-148l54 -57h-218l53 57v172l-52 55l163 51v-52l17 17q13 13 38.5 24t51.5 11q7 0 18 -2z" />
<glyph unicode="&#xc3;" d="M98 556q24 21 58 33t59 12q57 0 95 -27t38 -76q0 -35 -23 -61t-58 -55l-139 -128h181l42 42v-111h-316v48l148 159q27 27 44 53.5t17 42.5q0 28 -13.5 41.5t-47.5 13.5q-20 0 -40.5 -10t-34.5 -21l-35 -30l-26 28z" />
<glyph unicode="&#xc4;" horiz-adv-x="397" d="M154 348q0 -67 14.5 -91t62.5 -24q35 0 56 11t37 31l4 5l37 -33l-5 -5q-26 -28 -63 -45.5t-99 -17.5q-71 0 -121.5 51.5t-50.5 121.5t50 123t122 53q74 0 123.5 -47.5t49.5 -125.5v-7h-217zM251 419q0 18 -16 37t-37 19t-32.5 -21.5t-11.5 -52.5h92q5 8 5 18z" />
<glyph unicode="&#xc5;" horiz-adv-x="390" d="M67 493q25 16 57 23.5t71 7.5q58 0 100.5 -25.5t42.5 -70.5v-183l53 -57h-165v45l-73 -50q-17 -10 -36 -10q-34 0 -62.5 31t-28.5 70q0 54 47 87.5t109 33.5h44v33q0 20 -8.5 32t-28.5 12q-22 0 -38 -16l-84 -75v112zM160 248q5 0 10.5 3.5t8.5 6.5l47 30v58h-28 q-31 0 -47.5 -17.5t-16.5 -54.5q0 -11 7.5 -18.5t18.5 -7.5z" />
<glyph unicode="&#xc6;" horiz-adv-x="332" d="M73 669l114 -61l114 61h18l-132 -132l-133 132h19z" />
<glyph unicode="&#xc7;" horiz-adv-x="352" d="M232 162h-55v91q-60 8 -102.5 52.5t-42.5 102.5q0 56 43 101.5t102 52.5v88h55v-89q48 0 91 -27v-106l-62 64q-22 23 -62 23q-28 0 -37 -24.5t-9 -82.5q0 -61 15.5 -84.5t54.5 -23.5q23 0 37.5 7t27.5 20l4 3l35 -32l-5 -4q-37 -31 -90 -40v-92z" />
<glyph unicode="&#xc8;" horiz-adv-x="242" d="M15 188l57 54v181l-52 49l163 51v-281l58 -54h-226zM128 650q23 0 39 -17t16 -41q0 -25 -16 -42t-39 -17q-24 0 -40 17t-16 42q0 24 16 41t40 17z" />
<glyph unicode="&#xc9;" d="M153 185l52 52v59h-179v30l232 269h53v-247h47v-52h-47v-59l52 -52h-210zM117 348h88v103z" />
<glyph unicode="&#xca;" horiz-adv-x="278" d="M273 237l-2 -5q-14 -30 -44 -43.5t-54 -13.5q-44 0 -73 25t-29 63v175h-72l183 169v-95h93v-52h-93v-228q33 0 56 29l4 5z" />
<glyph unicode="&#xcb;" d="M207 177q-78 0 -125.5 45.5t-47.5 116.5q0 99 65 179.5t167 80.5h23l12 -31l-7 -2q-65 -17 -95 -46.5t-47 -102.5q14 13 30.5 19.5t40.5 6.5q56 0 102 -36.5t46 -95.5q0 -58 -53 -96t-111 -38zM142 354q-1 -4 -2 -11t-1 -12q0 -110 68 -110q23 0 37.5 23.5t14.5 57.5 q0 40 -9.5 65.5t-43.5 25.5q-18 0 -39 -12.5t-25 -26.5z" />
<glyph unicode="&#xcc;" horiz-adv-x="0" />
<glyph unicode="&#xcd;" horiz-adv-x="308" d="M164 173q-23 0 -32 1.5t-14 4.5l-110 32l65 81l54 -64q5 -3 12.5 -6t15.5 -3q18 0 33 12.5t15 31.5q0 7 -2.5 10.5t-4.5 4.5l-123 60q-25 11 -36 32t-11 44q0 55 37.5 85.5t87.5 30.5q22 0 42 -6l102 -28l-62 -81l-50 61q-6 7 -20 7q-16 0 -30.5 -10t-14.5 -25 q0 -3 1 -7.5t12 -9.5l114 -58q20 -11 33.5 -32t13.5 -53q0 -51 -36 -83t-92 -32z" />
<glyph unicode="&#xce;" horiz-adv-x="423" d="M371 643v-401l57 -54h-169v27q-16 -17 -40 -28.5t-50 -11.5q-63 0 -103 55.5t-40 121.5q0 67 39.5 121.5t103.5 54.5q27 0 49 -10t41 -30v59l-52 48zM198 466q-25 0 -34.5 -27t-9.5 -87q0 -114 44 -114q23 0 39.5 12t21.5 33v137q-12 46 -61 46z" />
<glyph unicode="&#xcf;" horiz-adv-x="422" d="M53 540l-53 55l163 48v-155q16 17 40 28.5t50 11.5q63 0 103 -55.5t40 -120.5q0 -66 -39.5 -121.5t-103.5 -55.5q-30 0 -55.5 14t-46.5 39l-98 -58v370zM224 466q-49 0 -61 -46v-137q12 -45 61 -45q27 0 35.5 26t8.5 88q0 114 -44 114z" />
<glyph unicode="&#xd0;" horiz-adv-x="599" d="M282 341v-83h-62v-197h63q73 0 110 70.5t37 163.5q0 95 -36.5 164.5t-110.5 69.5h-63v-188h62zM28 258v83h69v186l-64 63h271q115 0 192.5 -87.5t77.5 -207.5t-77 -207.5t-193 -87.5h-271l64 63v195h-69z" />
<glyph unicode="&#xd1;" d="M44 590h324l-175 -362v-43h-107l182 322h-174l-50 -50v133z" />
<glyph unicode="&#xd2;" horiz-adv-x="242" d="M17 188l54 57v293l-53 55l164 50v-398l53 -57h-218z" />
<glyph unicode="&#xd3;" horiz-adv-x="441" d="M388 441v-196l53 -57h-164v244q0 5 -5.5 15t-23.5 10q-9 0 -19.5 -5.5t-26.5 -20.5l-31 -28v-158l54 -57h-218l53 57v172l-52 55l163 51v-55l18 17q26 23 50.5 33t45.5 10q46 0 74.5 -28t28.5 -59z" />
<glyph unicode="&#xd4;" horiz-adv-x="597" d="M355 463l21 19q47 44 85 44q42 0 62.5 -29.5t20.5 -64.5v-187l54 -57h-165v239q0 19 -15 19q-10 0 -30 -18l-30 -28v-155l54 -57h-166v239q0 19 -15 19q-11 0 -29 -18l-31 -28v-155l54 -57h-218l53 57v172l-52 55l163 51v-58l18 17q49 44 85 44q30 0 51.5 -18.5 t29.5 -44.5z" />
<glyph unicode="&#xd5;" d="M101 403h5q53 10 84 38t31 51q0 25 -16.5 40.5t-51.5 15.5q-25 0 -51 -12q-26 -15 -32 -18l-8 -5l-26 29l7 5q32 24 67 38t81 14q59 0 97.5 -25.5t38.5 -70.5q0 -30 -24.5 -56.5t-60.5 -41.5q45 -10 72.5 -34t27.5 -63q0 -67 -80.5 -100.5t-189.5 -33.5h-37v44h37 q158 0 158 90q0 27 -35.5 42.5t-86.5 15.5h-7v37z" />
<glyph unicode="&#xd6;" d="M190 603q79 0 126 -46t47 -117q0 -99 -65 -180t-167 -81l-23 1l-11 31l6 2q22 5 45 11q72 28 97 139q-14 -13 -30.5 -20t-40.5 -7q-56 0 -102 36.5t-46 95.5q0 57 53.5 96t110.5 39zM255 424q1 2 2 8.5t1 15.5q0 110 -68 110q-24 0 -38 -22.5t-14 -57.5q0 -42 8.5 -66.5 t44.5 -24.5q19 0 39.5 11.5t24.5 25.5z" />
<glyph unicode="&#xd7;" horiz-adv-x="0" />
<glyph unicode="&#xd8;" horiz-adv-x="430" d="M403 352q0 -74 -55 -125t-134 -51q-77 0 -132.5 51.5t-55.5 124.5q0 72 55.5 124t132.5 52q78 0 133.5 -51.5t55.5 -124.5zM214 478q-34 0 -47 -36t-13 -90q0 -57 12 -92t48 -35t49 35.5t13 91.5q0 55 -13 90.5t-49 35.5z" />
<glyph unicode="&#xd9;" horiz-adv-x="250" d="M59 669h174v-48h-174v48z" />
<glyph unicode="&#xda;" horiz-adv-x="213" d="M146 -85q28 0 41 29l9 -15q-4 -27 -23.5 -42.5t-47.5 -15.5t-47 20t-19 50t24 53t54 23q10 0 21 -3l3 -1l-4 -13q-20 0 -34.5 -10.5t-14.5 -27.5q0 -19 10.5 -33t27.5 -14z" />
<glyph unicode="&#xdb;" horiz-adv-x="333" d="M330 522l-143 61l-144 -61h-18l162 161l161 -161h-18z" />
<glyph unicode="&#xdc;" d="M365 388q0 -88 -40.5 -151t-126.5 -63q-84 0 -124.5 63t-40.5 151q0 87 40.5 150t124.5 63q86 0 126.5 -62.5t40.5 -150.5zM198 551q-30 0 -43 -34t-13 -129q0 -96 13 -130t43 -34t44 34t14 130q0 95 -13.5 129t-44.5 34z" />
<glyph unicode="&#xdd;" horiz-adv-x="0" />
<glyph unicode="&#xde;" horiz-adv-x="521" d="M80 63v464l-63 63h250l-64 -63v-54h64q97 0 169 -45t72 -129q0 -83 -72.5 -128.5t-168.5 -45.5h-64v-62l64 -63h-250zM372 299q0 46 -30.5 80t-74.5 34h-64v-227h64q44 0 74.5 33.5t30.5 79.5z" />
<glyph unicode="&#xdf;" horiz-adv-x="380" d="M132 -3l-123 18l62 106l68 -67q18 -12 42 -12q26 0 47 15.5t21 45.5q0 16 -7.5 26t-18.5 18l-119 64q-45 25 -63 57t-18 60q0 50 41 87.5t118 37.5h22.5t24.5 -3l119 -17l-64 -100l-62 61q-20 9 -34 9q-25 0 -41.5 -15t-16.5 -29t10 -28.5t33 -27.5l119 -64 q27 -14 47 -41t20 -65q0 -58 -43 -99t-130 -41h-33q-15 3 -21 4zM75 632l114 -61l114 61h18l-132 -132l-133 132h19z" />
<glyph unicode="&#xe0;" horiz-adv-x="475" d="M-20 0l63 63l156 387h73l153 -387l63 -63h-242l58 58l-22 62h-140l-25 -62l58 -58h-195zM213 298l-48 -120h94zM190 618l128 -127l-172 70q-10 4 -17 15t-7 22q0 14 11 23t26 9q17 0 31 -12z" />
<glyph unicode="&#xe1;" horiz-adv-x="475" d="M-20 0l63 63l156 387h73l153 -387l63 -63h-242l58 58l-22 62h-140l-25 -62l58 -58h-195zM213 298l-48 -120h94zM319 561l-172 -70l128 127q12 12 30 12q20 0 29 -11t9 -22q0 -26 -24 -36z" />
<glyph unicode="&#xe2;" horiz-adv-x="475" d="M-20 0l63 63l156 387h73l153 -387l63 -63h-242l58 58l-22 62h-140l-25 -62l58 -58h-195zM213 298l-48 -120h94zM382 482l-144 61l-143 -61h-18l161 161l162 -161h-18z" />
<glyph unicode="&#xe3;" horiz-adv-x="475" d="M-20 0l63 63l156 387h73l153 -387l63 -63h-242l58 58l-22 62h-140l-25 -62l58 -58h-195zM213 298l-48 -120h94zM117 490q6 40 39 67t65 27q27 0 45 -14.5t29 -14.5q13 0 20.5 8.5t14.5 20.5h20q-6 -40 -39 -67t-65 -27q-22 0 -42.5 14.5t-30.5 14.5q-11 0 -19.5 -7.5 t-16.5 -21.5h-20z" />
<glyph unicode="&#xe4;" horiz-adv-x="475" d="M-20 0l63 63l156 387h73l153 -387l63 -63h-242l58 58l-22 62h-140l-25 -62l58 -58h-195zM213 298l-48 -120h94zM320 485q-25 0 -42.5 16.5t-17.5 39.5q0 24 17 40t43 16q25 0 42.5 -16.5t17.5 -39.5q0 -24 -17 -40t-43 -16zM153 486q-25 0 -42.5 16.5t-17.5 39.5 q0 24 17 40t43 16t43 -16t17 -40t-17 -40t-43 -16z" />
<glyph unicode="&#xe5;" horiz-adv-x="475" d="M-20 0l63 63l156 387h73l153 -387l63 -63h-242l58 58l-22 62h-140l-25 -62l58 -58h-195zM213 298l-48 -120h94zM321 558q0 -36 -25 -61t-61 -25q-35 0 -60 25t-25 61t25 61t60 25q36 0 61 -25t25 -61zM235 532q26 0 26 26q0 11 -7.5 18.5t-18.5 7.5t-18 -7t-7 -19 q0 -10 7 -18t18 -8z" />
<glyph unicode="&#xe6;" horiz-adv-x="593" d="M220 298l-47 -120h94zM565 321l-71 71h-192l50 -124h102l59 59v-175l-59 58h-80l60 -152h59l72 73v-131h-312l59 58l-23 62h-140l-25 -62l59 -58h-196l63 63l157 387h358v-129z" />
<glyph unicode="&#xe7;" horiz-adv-x="435" d="M28 225q0 92 68 163t165 71q49 0 78.5 -4.5t68.5 -22.5v-133l-78 78q-15 12 -32.5 19.5t-36.5 7.5q-58 0 -78 -50.5t-20 -128.5q0 -77 20.5 -126.5t77.5 -49.5q18 0 35.5 7.5t33.5 20.5l78 77v-136q-38 -17 -68 -22t-79 -5l-26 1l-23 -23q25 -2 43.5 -17.5t18.5 -39.5 q0 -35 -41.5 -55t-90.5 -20h-16v24h16q41 0 41 34q0 14 -12.5 24t-27.5 10h-39l77 77q-68 25 -110.5 86t-42.5 133z" />
<glyph unicode="&#xe8;" horiz-adv-x="411" d="M14 0l60 60v330l-60 60h369v-129l-70 71h-122v-124h82l58 59v-175l-58 58h-82v-152h120l72 73v-131h-369zM162 620l128 -127l-172 70q-10 4 -17 15t-7 22q0 14 11 23t26 9q17 0 31 -12z" />
<glyph unicode="&#xe9;" horiz-adv-x="411" d="M14 0l60 60v330l-60 60h369v-129l-70 71h-122v-124h82l58 59v-175l-58 58h-82v-152h120l72 73v-131h-369zM316 565l-172 -70l128 127q12 12 30 12q20 0 29 -11t9 -22q0 -26 -24 -36z" />
<glyph unicode="&#xea;" horiz-adv-x="411" d="M14 0l60 60v330l-60 60h369v-129l-70 71h-122v-124h82l58 59v-175l-58 58h-82v-152h120l72 73v-131h-369zM353 482l-143 61l-143 -61h-19l162 161l162 -161h-19z" />
<glyph unicode="&#xeb;" horiz-adv-x="411" d="M14 0l60 60v330l-60 60h369v-129l-70 71h-122v-124h82l58 59v-175l-58 58h-82v-152h120l72 73v-131h-369zM284 488q-24 0 -40 16t-16 40t16 40t40 16t40 -16t16 -40t-16 -40t-40 -16zM129 489q-24 0 -40 16t-16 40t16 40t40 16t40 -16t16 -40t-16 -40t-40 -16z" />
<glyph unicode="&#xec;" horiz-adv-x="278" d="M258 450l-60 -60v-330l60 -60h-237l60 60v330l-60 60h237zM77 620l128 -127l-172 70q-10 4 -17 15t-7 22q0 14 11 23t26 9q17 0 31 -12z" />
<glyph unicode="&#xed;" horiz-adv-x="278" d="M258 450l-60 -60v-330l60 -60h-237l60 60v330l-60 60h237zM237 565l-172 -70l128 127q12 12 30 12q20 0 29 -11t9 -22q0 -26 -24 -36z" />
<glyph unicode="&#xee;" horiz-adv-x="278" d="M258 450l-60 -60v-330l60 -60h-237l60 60v330l-60 60h237zM282 483l-144 61l-143 -61h-18l161 162l162 -162h-18z" />
<glyph unicode="&#xef;" horiz-adv-x="278" d="M258 450l-60 -60v-330l60 -60h-237l60 60v330l-60 60h237zM216 488q-24 0 -40 16t-16 40t16 40t40 16t40 -16t16 -40t-16 -40t-40 -16zM61 489q-24 0 -40 16t-16 40t16 40t40 16t40 -16t16 -40t-16 -40t-40 -16z" />
<glyph unicode="&#xf1;" horiz-adv-x="499" d="M14 0l60 60v330l-60 60h154l196 -247v187l-60 60h192l-60 -60v-453l-291 370v-247l60 -60h-191zM150 492q6 40 39 67t65 27q27 0 45 -14.5t29 -14.5q13 0 20.5 8.5t14.5 20.5h20q-6 -40 -39 -67t-65 -27q-22 0 -42.5 14.5t-30.5 14.5q-11 0 -19.5 -7.5t-16.5 -21.5h-20z " />
<glyph unicode="&#xf2;" horiz-adv-x="523" d="M495 225q0 -96 -66 -167t-168 -71t-167.5 71t-65.5 167q0 95 65.5 166.5t167.5 71.5q101 0 167.5 -71.5t66.5 -166.5zM261 404q-55 0 -76.5 -51.5t-21.5 -127.5q0 -75 22 -127t76 -52t76.5 52.5t22.5 126.5q0 75 -22 127t-77 52zM197 620l128 -127l-172 70q-10 4 -17 15 t-7 22q0 14 11 23t26 9q17 0 31 -12z" />
<glyph unicode="&#xf3;" horiz-adv-x="523" d="M495 225q0 -96 -66 -167t-168 -71t-167.5 71t-65.5 167q0 95 65.5 166.5t167.5 71.5q101 0 167.5 -71.5t66.5 -166.5zM261 404q-55 0 -76.5 -51.5t-21.5 -127.5q0 -75 22 -127t76 -52t76.5 52.5t22.5 126.5q0 75 -22 127t-77 52zM369 565l-172 -70l128 127q12 12 30 12 q20 0 29 -11t9 -22q0 -26 -24 -36z" />
<glyph unicode="&#xf4;" horiz-adv-x="523" d="M495 225q0 -96 -66 -167t-168 -71t-167.5 71t-65.5 167q0 95 65.5 166.5t167.5 71.5q101 0 167.5 -71.5t66.5 -166.5zM261 404q-55 0 -76.5 -51.5t-21.5 -127.5q0 -75 22 -127t76 -52t76.5 52.5t22.5 126.5q0 75 -22 127t-77 52zM403 482l-143 61l-143 -61h-19l162 161 l162 -161h-19z" />
<glyph unicode="&#xf5;" horiz-adv-x="523" d="M495 225q0 -96 -66 -167t-168 -71t-167.5 71t-65.5 167q0 95 65.5 166.5t167.5 71.5q101 0 167.5 -71.5t66.5 -166.5zM261 404q-55 0 -76.5 -51.5t-21.5 -127.5q0 -75 22 -127t76 -52t76.5 52.5t22.5 126.5q0 75 -22 127t-77 52zM163 492q6 40 39 67t65 27q27 0 45 -14.5 t29 -14.5q13 0 20.5 8.5t14.5 20.5h20q-6 -40 -39 -67t-65 -27q-22 0 -42.5 14.5t-30.5 14.5q-11 0 -19.5 -7.5t-16.5 -21.5h-20z" />
<glyph unicode="&#xf6;" horiz-adv-x="523" d="M495 225q0 -96 -66 -167t-168 -71t-167.5 71t-65.5 167q0 95 65.5 166.5t167.5 71.5q101 0 167.5 -71.5t66.5 -166.5zM261 404q-55 0 -76.5 -51.5t-21.5 -127.5q0 -75 22 -127t76 -52t76.5 52.5t22.5 126.5q0 75 -22 127t-77 52zM341 488q-24 0 -40 16t-16 40t16 40 t40 16t40 -16t16 -40t-16 -40t-40 -16zM186 489q-24 0 -40 16t-16 40t16 40t40 16t40 -16t16 -40t-16 -40t-40 -16z" />
<glyph unicode="&#xf7;" horiz-adv-x="254" d="M172 303l23 -303h-132l23 303h86zM129 456q25 0 42 -17t17 -42t-17 -42t-42 -17q-24 0 -41.5 17.5t-17.5 41.5t17.5 41.5t41.5 17.5z" />
<glyph unicode="&#xf8;" horiz-adv-x="523" d="M364 438l28 43h64l-46 -73q40 -34 62.5 -82t22.5 -101q0 -96 -66 -167t-168 -71q-26 0 -54 7t-50 18l-29 -43h-63l46 74q-83 72 -83 182q0 95 65.5 166.5t167.5 71.5q27 0 53.5 -6.5t49.5 -18.5zM360 225q0 24 -2.5 48t-7.5 44l-154 -242q27 -29 65 -29q56 0 77.5 51.5 t21.5 127.5zM163 225q0 -30 1 -48.5t7 -40.5l154 241q-13 13 -28 20t-36 7q-56 0 -77 -50.5t-21 -128.5z" />
<glyph unicode="&#xf9;" horiz-adv-x="496" d="M7 450h236l-59 -60v-267q0 -30 25 -52t60 -22t60 22t25 52v267l-60 60h194l-59 -60v-267q0 -60 -53.5 -98t-127.5 -38q-71 0 -126 37t-55 99v267zM197 620l128 -127l-172 70q-10 4 -17 15t-7 22q0 14 11 23t26 9q17 0 31 -12z" />
<glyph unicode="&#xfa;" horiz-adv-x="496" d="M7 450h236l-59 -60v-267q0 -30 25 -52t60 -22t60 22t25 52v267l-60 60h194l-59 -60v-267q0 -60 -53.5 -98t-127.5 -38q-71 0 -126 37t-55 99v267zM361 565l-172 -70l128 127q12 12 30 12q20 0 29 -11t9 -22q0 -26 -24 -36z" />
<glyph unicode="&#xfb;" horiz-adv-x="496" d="M7 450h236l-59 -60v-267q0 -30 25 -52t60 -22t60 22t25 52v267l-60 60h194l-59 -60v-267q0 -60 -53.5 -98t-127.5 -38q-71 0 -126 37t-55 99v267zM393 482l-143 61l-143 -61h-19l162 161l162 -161h-19z" />
<glyph unicode="&#xfc;" horiz-adv-x="496" d="M7 450h236l-59 -60v-267q0 -30 25 -52t60 -22t60 22t25 52v267l-60 60h194l-59 -60v-267q0 -60 -53.5 -98t-127.5 -38q-71 0 -126 37t-55 99v267zM332 488q-24 0 -40 16t-16 40t16 40t40 16t40 -16t16 -40t-16 -40t-40 -16zM177 489q-24 0 -40 16t-16 40t16 40t40 16 t40 -16t16 -40t-16 -40t-40 -16z" />
<glyph unicode="&#xfd;" horiz-adv-x="0" />
<glyph unicode="&#xfe;" horiz-adv-x="464" d="M74 60v330l-60 60h237l-60 -60v-27h47q83 0 146 -34.5t63 -100.5t-63 -100.5t-146 -34.5h-47v-33l60 -60h-237zM238 305h-47v-154h47q33 0 57 23t24 54t-24 54t-57 23z" />
<glyph unicode="&#xff;" horiz-adv-x="450" d="M240 450l-58 -58l76 -124l77 124l-58 58h193l-62 -62l-119 -186v-142l60 -60h-236l60 60v141l-122 187l-63 62h252zM317 478q-24 0 -40 16t-16 40t16 40t40 16t40 -16t16 -40t-16 -40t-40 -16zM162 479q-24 0 -40 16t-16 40t16 40t40 16t40 -16t16 -40t-16 -40t-40 -16z " />
<glyph unicode="&#x152;" horiz-adv-x="0" />
<glyph unicode="&#x153;" horiz-adv-x="681" d="M350 450h309v-129l-71 71h-121v-124h81l59 59v-175l-59 58h-81v-152h120l72 73v-131h-309v15q-34 -28 -94 -28q-101 0 -164.5 71t-63.5 167q0 97 63 167.5t165 70.5q60 0 94 -28v15zM256 404q-54 0 -73.5 -51t-19.5 -128q0 -101 25.5 -140t67.5 -39q54 0 74 50.5 t20 128.5q0 77 -20 128t-74 51z" />
<glyph unicode="&#x178;" horiz-adv-x="0" />
<glyph unicode="&#x2c7;" horiz-adv-x="332" d="M73 669l114 -61l114 61h18l-132 -132l-133 132h19z" />
<glyph unicode="&#x2c9;" horiz-adv-x="250" d="M59 669h174v-48h-174v48z" />
<glyph unicode="&#x2da;" horiz-adv-x="215" d="M214 600q0 -36 -25 -61t-61 -25q-35 0 -60 25t-25 61t25 61t60 25q36 0 61 -25t25 -61zM128 574q26 0 26 26q0 11 -7.5 18.5t-18.5 7.5t-18 -7t-7 -19q0 -10 7 -18t18 -8z" />
<glyph unicode="&#x302;" horiz-adv-x="441" d="M388 441v-196l53 -57h-164v244q0 5 -5.5 15t-23.5 10q-9 0 -19.5 -5.5t-26.5 -20.5l-31 -28v-158l54 -57h-218l53 57v172l-52 55l163 51v-55l18 17q26 23 50.5 33t45.5 10q46 0 74.5 -28t28.5 -59z" />
<glyph unicode="&#x303;" horiz-adv-x="597" d="M355 463l21 19q47 44 85 44q42 0 62.5 -29.5t20.5 -64.5v-187l54 -57h-165v239q0 19 -15 19q-10 0 -30 -18l-30 -28v-155l54 -57h-166v239q0 19 -15 19q-11 0 -29 -18l-31 -28v-155l54 -57h-218l53 57v172l-52 55l163 51v-58l18 17q49 44 85 44q30 0 51.5 -18.5 t29.5 -44.5z" />
<glyph unicode="&#x2013;" horiz-adv-x="650" d="M0 265h650v-61h-650v61z" />
<glyph unicode="&#x2014;" horiz-adv-x="704" d="M0 265h704v-61h-704v61z" />
<glyph unicode="&#x2018;" horiz-adv-x="229" d="M112 628q26 0 43.5 -18.5t17.5 -44.5v-194l-116 167q-8 11 -8 28q0 24 18 43t45 19z" />
<glyph unicode="&#x2019;" horiz-adv-x="229" d="M63 371v194q0 26 18.5 44.5t43.5 18.5q28 0 45.5 -19.5t17.5 -43.5q0 -16 -8 -27z" />
<glyph unicode="&#x201a;" d="M365 388q0 -88 -40.5 -151t-126.5 -63q-84 0 -124.5 63t-40.5 151q0 87 40.5 150t124.5 63q86 0 126.5 -62.5t40.5 -150.5zM198 551q-30 0 -43 -34t-13 -129q0 -96 13 -130t43 -34t44 34t14 130q0 95 -13.5 129t-44.5 34z" />
<glyph unicode="&#x201c;" horiz-adv-x="415" d="M302 628q26 0 43.5 -18.5t17.5 -44.5v-194l-116 167q-8 11 -8 28q0 24 18 43t45 19zM123 628q26 0 43.5 -18.5t17.5 -44.5v-194l-116 167q-8 11 -8 28q0 24 18 43t45 19z" />
<glyph unicode="&#x201d;" horiz-adv-x="415" d="M63 371v194q0 26 18.5 44.5t43.5 18.5q28 0 45.5 -19.5t17.5 -43.5q0 -16 -8 -27zM243 371v194q0 25 18 44t43 19q28 0 45.5 -19.5t17.5 -43.5q0 -16 -8 -27z" />
<glyph unicode="&#x201e;" horiz-adv-x="415" d="M47 -140v194q0 25 18 44t43 19q28 0 45.5 -19.5t17.5 -43.5q0 -16 -8 -27zM226 -140v194q0 25 18 44t44 19q28 0 45.5 -19.5t17.5 -43.5q0 -14 -8 -27z" />
<glyph unicode="&#x2022;" d="M199 -8q-66 0 -117 32t-51 87q0 75 70 106q-25 14 -40.5 37.5t-15.5 49.5q0 48 47 78.5t107 30.5q62 0 109 -30.5t47 -78.5q0 -27 -14.5 -49.5t-42.5 -37.5q71 -32 71 -106q0 -55 -51 -87t-119 -32zM260 111q0 32 -16 56t-45 24q-27 0 -44 -24t-17 -56q0 -31 16.5 -53 t44.5 -22t44.5 22t16.5 53zM154 297q0 -24 12 -42.5t33 -18.5t33 18.5t12 42.5q0 34 -10 53t-35 19q-24 0 -34.5 -19.5t-10.5 -52.5z" />
<glyph unicode="&#x2026;" horiz-adv-x="833" d="M54 58q0 28 19.5 47.5t47.5 19.5t47.5 -19.5t19.5 -47.5q0 -27 -19.5 -46.5t-47.5 -19.5t-47.5 19.5t-19.5 46.5zM325 58q0 28 19.5 47.5t47.5 19.5q27 0 46.5 -19.5t19.5 -47.5q0 -27 -19.5 -46.5t-46.5 -19.5q-28 0 -47.5 19.5t-19.5 46.5zM596 58q0 28 19.5 47.5 t47.5 19.5q27 0 46.5 -19.5t19.5 -47.5q0 -27 -19.5 -46.5t-46.5 -19.5q-28 0 -47.5 19.5t-19.5 46.5z" />
<glyph unicode="&#x2039;" d="M101 403h5q53 10 84 38t31 51q0 25 -16.5 40.5t-51.5 15.5q-25 0 -51 -12q-26 -15 -32 -18l-8 -5l-26 29l7 5q32 24 67 38t81 14q59 0 97.5 -25.5t38.5 -70.5q0 -30 -24.5 -56.5t-60.5 -41.5q45 -10 72.5 -34t27.5 -63q0 -67 -80.5 -100.5t-189.5 -33.5h-37v44h37 q158 0 158 90q0 27 -35.5 42.5t-86.5 15.5h-7v37z" />
<glyph unicode="&#x203a;" d="M153 185l52 52v59h-179v30l232 269h53v-247h47v-52h-47v-59l52 -52h-210zM117 348h88v103z" />
<glyph unicode="&#x2122;" d="M98 371q24 21 58 33t59 12q57 0 95 -27t38 -76q0 -35 -23 -61t-58 -55l-139 -128h181l42 42v-111h-316v48l148 159q27 27 44 53.5t17 42.5q0 28 -13.5 41.5t-47.5 13.5q-20 0 -40.5 -10t-34.5 -21l-35 -30l-26 28z" />
<glyph unicode="&#x2219;" d="M190 603q79 0 126 -46t47 -117q0 -99 -65 -180t-167 -81l-23 1l-11 31l6 2q22 5 45 11q72 28 97 139q-14 -13 -30.5 -20t-40.5 -7q-56 0 -102 36.5t-46 95.5q0 57 53.5 96t110.5 39zM255 424q1 2 2 8.5t1 15.5q0 110 -68 110q-24 0 -38 -22.5t-14 -57.5q0 -42 8.5 -66.5 t44.5 -24.5q19 0 39.5 11.5t24.5 25.5z" />
<glyph unicode="&#x25fc;" horiz-adv-x="450" d="M0 450h450v-450h-450v450z" />
</font>
</defs>
</svg>
