<svg height="512" viewBox="0 0 510 510" width="512" xmlns="http://www.w3.org/2000/svg" xmlns:xlink="http://www.w3.org/1999/xlink"><linearGradient id="a"><stop offset="0" stop-color="#f8f6f7"/><stop offset=".2" stop-color="#f8f6f7"/><stop offset="1" stop-color="#e7e6f5"/></linearGradient><linearGradient id="c" gradientUnits="userSpaceOnUse" x1="41.6" x2="485.7" xlink:href="#a" y1="255" y2="255"/><linearGradient id="b"><stop offset="0" stop-color="#99e6fc"/><stop offset=".4" stop-color="#01d0fb"/><stop offset=".5" stop-color="#08c6f7"/><stop offset=".7" stop-color="#1da9eb"/><stop offset=".9" stop-color="#3f7cd9"/><stop offset="1" stop-color="#4f66d0"/></linearGradient><linearGradient id="d" gradientUnits="userSpaceOnUse" x1="164" x2="346" xlink:href="#b" y1="207.5" y2="207.5"/><linearGradient id="e" gradientUnits="userSpaceOnUse" x1="-486" x2="771" y1="255" y2="255"><stop offset="0" stop-color="#f8f6f7"/><stop offset="1" stop-color="#d1ceeb"/></linearGradient><linearGradient id="f" gradientUnits="userSpaceOnUse" x1="329.6" x2="460.5" xlink:href="#a" y1="60.7" y2="60.7"/><linearGradient id="g" gradientUnits="userSpaceOnUse" x1="38" x2="540.1" xlink:href="#b" y1="367.8" y2="367.8"/><linearGradient id="h" gradientUnits="userSpaceOnUse" x1="188" x2="407" xlink:href="#b" y1="367.8" y2="367.8"/><path d="M75 493V17c0-9 8-17 17-17h285c32 0 58 26 58 58v435c0 9-8 17-17 17H92c-9 0-17-8-17-17z" fill="url(#c)"/><path d="M177 268h-2c-7 0-12-7-11-13 0-1 2-19 8-38 8-30 19-46 34-52 11-3 17 0 21 3 8 5 10 16 10 28 0 1 2 2 2 0 7-16 14-30 28-32 8-1 16 2 20 10l3 5c1 4 6 5 8 3 11-10 21-24 25-30a13 13 0 0121 14c-2 3-22 34-45 45-7 4-14 5-20 2l-7-7c-3-4-8-3-10 1a539 539 0 00-11 28c-6 11-14 16-23 14-5 0-14-4-16-19v-21c0-6-8-8-10-2-6 13-11 33-13 50-1 7-6 11-12 11z" fill="url(#d)"/><path d="M377 0h-81v129c0 10 8 17 17 17h40c23 0 41 19 41 42v245H75v32h302c10 0 17 7 17 17v11c0 9-7 17-17 17h41c9 0 17-8 17-17V58c0-32-26-58-58-58z" fill="url(#e)"/><path d="M377 0h-56v105c0 9 8 16 17 16h97V58c0-32-26-58-58-58z" fill="url(#f)"/><path d="M452 440H58c-11 0-20-9-20-21V316c0-11 9-20 20-20h394c11 0 20 9 20 20v103c0 12-9 21-20 21z" fill="url(#g)"/><path d="M452 296h-41c12 0 21 9 21 20v103c0 12-9 21-21 21h41c11 0 20-9 20-21V316c0-11-9-20-20-20z" fill="url(#h)"/><g fill="#fff"><path d="M157 327c0-3 3-6 7-6h26c16 0 29 8 29 28v1c0 21-13 29-30 29h-12v26c0 4-5 6-10 6s-10-2-10-6v-78zm20 11v26h12c7 0 11-4 11-13v-1c0-8-4-12-11-12zM264 387c0-15-39-12-39-41 0-19 17-26 32-26 7 0 25 1 25 11 0 3-3 10-8 10s-7-4-17-4c-9 0-12 3-12 7 0 12 39 10 39 41 0 18-13 27-31 27-16 0-30-8-30-16 0-4 4-10 9-10s9 9 21 9c5 0 11-2 11-8zM323 321c17 0 31 8 31 29v32c0 21-14 29-31 29h-21c-5 0-9-3-9-6v-78c0-3 4-6 9-6h21zm-11 17v56h11c7 0 12-4 12-12v-32c0-8-5-12-12-12z"/></g></svg>